<?xml version="1.0" standalone="no"?>
<!DOCTYPE svg PUBLIC "-//W3C//DTD SVG 20010904//EN"
 "http://www.w3.org/TR/2001/REC-SVG-20010904/DTD/svg10.dtd">
<svg version="1.0" xmlns="http://www.w3.org/2000/svg"
 width="203.000000pt" height="190.000000pt" viewBox="0 0 203.000000 190.000000"
 preserveAspectRatio="xMidYMid meet">
<metadata>
Created by potrace 1.10, written by Peter Selinger 2001-2011
</metadata>
<g transform="translate(0.000000,190.000000) scale(0.100000,-0.100000)"
fill="#333333" stroke="none">
<path d="M512 1420 c-87 -12 -131 -37 -160 -91 -19 -35 -23 -55 -19 -97 6 -78
53 -120 170 -152 58 -16 83 -45 92 -108 9 -66 21 -83 34 -51 6 13 15 43 21 65
5 23 19 53 30 67 19 24 27 25 123 29 79 2 111 8 141 24 142 74 87 236 -99 293
-72 22 -245 33 -333 21z m280 -25 c87 -18 130 -39 173 -83 43 -45 54 -91 32
-138 -25 -52 -66 -68 -189 -74 -128 -6 -146 -18 -174 -113 -16 -53 -19 -57
-21 -32 -10 99 -27 118 -135 149 -123 35 -161 115 -108 227 15 32 57 57 112
68 69 14 238 12 310 -4z"/>
<path d="M1470 1311 c-123 -33 -193 -65 -238 -108 -44 -42 -45 -43 -40 -98 7
-85 26 -99 141 -105 l92 -5 28 -55 c39 -77 52 -72 52 20 l0 74 50 18 c28 10
69 25 93 34 54 20 77 60 68 117 -19 115 -95 149 -246 108z m178 -17 c52 -36
70 -136 32 -172 -11 -10 -54 -29 -95 -42 -42 -13 -81 -30 -87 -38 -7 -8 -12
-41 -11 -76 l2 -61 -19 41 c-28 60 -41 67 -119 65 -90 -2 -118 10 -137 56 -32
74 3 131 109 178 137 60 279 82 325 49z"/>
<path d="M591 890 c-77 -12 -129 -102 -101 -175 16 -42 -23 -100 -77 -116 -24
-6 -64 -30 -89 -52 -98 -86 -115 -206 -32 -233 21 -6 21 -7 -8 -22 -19 -10
-66 -17 -136 -20 -63 -3 -108 -9 -108 -15 0 -18 190 -3 241 20 42 19 61 20
175 16 71 -3 151 -11 178 -19 71 -20 138 -17 245 11 121 32 157 31 244 -4 96
-38 163 -47 210 -27 53 22 73 62 80 157 6 96 22 124 77 139 59 16 50 31 -15
24 -46 -6 -55 -4 -55 9 0 9 5 19 10 22 6 4 3 17 -9 33 -17 24 -17 30 -5 47 8
10 12 27 8 37 -3 10 -2 27 1 38 6 19 8 18 29 -8 13 -15 29 -40 37 -56 19 -40
43 -54 63 -37 20 17 21 50 1 57 -8 4 -22 1 -30 -6 -13 -10 -15 -9 -15 10 0 12
-11 35 -25 52 -30 35 -31 44 -7 56 60 31 147 19 183 -26 19 -24 20 -35 15 -99
-6 -61 -4 -78 13 -112 12 -22 25 -42 31 -46 5 -3 10 -10 10 -15 0 -18 -96 32
-135 71 -32 30 -44 36 -53 27 -20 -20 -14 -32 33 -75 l46 -41 -3 -62 c-2 -55
1 -65 21 -81 31 -26 85 -25 109 2 22 23 34 70 25 96 -4 14 -3 15 6 7 17 -15
30 -78 31 -136 0 -74 20 -88 125 -88 50 0 85 4 85 10 0 6 -36 10 -89 10 -50 0
-92 4 -95 9 -3 4 -8 39 -11 76 -8 84 -18 111 -58 150 -18 17 -45 57 -61 88
-27 54 -28 60 -16 101 16 57 6 99 -31 130 -52 44 -162 48 -202 7 -21 -21 -21
-21 -1 -43 39 -45 47 -58 35 -58 -6 0 -21 16 -32 35 -17 28 -24 33 -35 24 -8
-6 -14 -30 -14 -53 0 -23 -5 -47 -12 -54 -9 -9 -8 -18 2 -39 7 -16 12 -37 11
-49 -1 -11 5 -27 14 -34 14 -12 14 -15 -1 -31 -11 -13 -19 -48 -25 -109 -5
-49 -13 -99 -19 -110 -29 -54 -109 -65 -208 -29 -150 55 -151 55 -275 24 -114
-29 -210 -35 -257 -17 l-25 10 27 7 c30 8 53 30 62 62 10 31 -10 97 -38 130
-21 24 -28 26 -51 18 -15 -6 -36 -26 -46 -45 -21 -39 -25 -120 -8 -152 11 -20
10 -20 -97 -13 -60 4 -111 9 -113 11 -2 1 6 15 18 30 12 15 31 59 42 98 12 39
28 90 37 114 15 43 15 43 54 37 22 -4 64 -16 94 -26 48 -17 59 -18 82 -6 19 9
26 20 25 35 -2 16 4 23 22 28 28 7 30 15 14 45 -8 15 -6 33 6 70 14 42 15 52
3 66 -12 15 -11 15 9 5 29 -16 33 -15 33 6 0 25 -30 51 -77 68 -42 14 -56 15
-122 4z m132 -23 c18 -8 38 -21 46 -30 12 -15 9 -16 -32 -11 -60 9 -90 0 -107
-30 -7 -14 -16 -23 -21 -21 -13 8 -39 -25 -39 -49 0 -27 24 -51 40 -41 5 3 10
15 10 27 0 16 3 18 13 9 16 -13 37 4 37 30 0 35 12 49 41 49 33 0 36 -14 17
-67 -9 -25 -9 -41 -1 -63 11 -29 10 -30 -23 -36 -36 -7 -44 -21 -19 -30 12 -5
13 -10 4 -20 -16 -19 -45 -18 -107 6 -29 11 -66 20 -83 20 l-30 0 17 29 c13
21 24 29 43 28 20 -2 26 3 26 18 0 14 -6 19 -20 18 -11 -1 -23 4 -27 10 -12
19 -9 79 5 107 26 53 136 77 210 47z m-40 -59 c-14 -7 -25 -24 -29 -44 -6 -34
-24 -38 -24 -5 0 23 36 61 58 60 13 0 12 -3 -5 -11z m-73 -78 c0 -28 -13 -40
-24 -22 -7 12 5 52 15 52 5 0 9 -13 9 -30z m939 -52 c-8 -14 -14 -17 -22 -9
-7 7 -6 15 3 25 17 22 32 9 19 -16z m136 -154 c58 -19 75 -37 75 -75 0 -65
-41 -100 -93 -80 -30 12 -40 38 -32 85 8 42 -6 70 -57 114 -21 19 -35 38 -32
44 4 5 25 -8 48 -31 25 -24 61 -47 91 -57z m-1245 64 c0 -2 -15 -52 -34 -111
-32 -103 -64 -157 -91 -157 -20 0 -65 40 -65 58 0 66 61 156 129 192 31 17 61
25 61 18z m226 -114 c10 -14 19 -47 22 -74 4 -42 2 -50 -20 -64 -13 -9 -38
-19 -56 -22 -28 -6 -33 -3 -43 22 -12 33 -5 93 17 135 19 38 57 39 80 3z"/>
</g>
</svg>
