 <svg  version="1.0" xmlns="http://www.w3.org/2000/svg"  width="300.000000pt" height="300.000000pt" viewBox="0 0 300.000000 300.000000"  preserveAspectRatio="xMidYMid meet">  <g transform="translate(0.000000,300.000000) scale(0.100000,-0.100000)" fill="#333333" stroke="none"> <path d="M1215 2241 c-113 -28 -175 -117 -178 -257 -1 -81 -3 -83 -59 -59 -30 12 -21 -10 51 -122 100 -158 103 -165 92 -214 -5 -22 -11 -42 -13 -44 -1 -2 -41 58 -88 132 -92 146 -126 183 -170 183 -44 0 -158 -38 -242 -82 -176 -91 -251 -229 -359 -663 -23 -91 -39 -169 -35 -172 9 -9 9 -11 55 175 103 417 178 555 347 644 84 44 185 78 232 78 43 0 62 -22 167 -188 45 -70 87 -127 95 -127 10 0 18 18 24 58 11 68 7 79 -80 212 -33 49 -63 96 -67 103 -7 11 -5 12 11 3 43 -23 49 -16 54 72 9 134 53 208 145 243 29 11 56 14 85 10 99 -15 216 -95 239 -163 14 -42 5 -132 -17 -179 -12 -26 -13 -40 -5 -71 15 -51 15 -50 -19 -56 -18 -4 -30 -13 -30 -22 0 -8 -9 -15 -20 -15 -11 0 -20 -7 -20 -15 0 -8 4 -15 9 -15 5 0 3 -13 -5 -30 -18 -35 -36 -37 -99 -10 -66 28 -91 26 -130 -13 -41 -41 -54 -103 -30 -144 21 -37 14 -56 -63 -160 -70 -95 -98 -115 -119 -87 -7 10 -13 25 -13 33 0 30 -50 123 -62 118 -24 -8 -12 -45 56 -173 9 -17 19 -45 22 -62 6 -30 5 -32 -22 -32 -16 0 -67 -12 -112 -26 -70 -22 -85 -25 -92 -13 -24 44 -107 148 -117 149 -7 0 -13 -2 -13 -4 0 -19 66 -174 79 -186 9 -8 15 -25 13 -38 -5 -34 16 -122 41 -172 28 -55 91 -93 141 -83 46 9 134 55 241 128 55 37 111 67 132 71 21 3 139 30 263 59 124 29 243 57 265 60 62 11 64 16 47 90 -9 35 -12 68 -8 72 11 11 24 -15 31 -66 14 -96 9 -91 84 -89 36 1 101 -4 144 -11 97 -16 152 -8 208 28 27 18 74 35 122 45 153 31 155 48 12 109 -76 33 -80 36 -77 63 2 16 5 31 8 33 2 2 59 -21 127 -52 67 -32 128 -57 134 -57 16 0 18 10 44 190 11 80 36 233 56 340 74 415 69 378 51 396 -17 17 -183 31 -437 35 -109 2 -135 0 -142 -13 -9 -17 -97 -542 -106 -633 -7 -72 -7 -72 103 -120 72 -31 79 -36 82 -64 4 -35 0 -37 -36 -16 -79 43 -152 74 -152 64 0 -5 43 -31 96 -55 102 -48 114 -48 114 4 0 16 5 22 17 20 9 -2 22 6 28 18 10 20 12 20 115 -27 113 -52 132 -56 148 -36 9 10 102 499 137 713 7 48 -11 74 -53 74 -15 0 -126 7 -247 15 -121 8 -223 11 -227 7 -6 -7 -98 -562 -98 -595 0 -13 24 -30 84 -58 46 -21 89 -39 95 -39 14 0 14 -11 -2 -31 -11 -14 -22 -11 -105 28 l-94 43 6 38 c73 475 102 639 116 647 10 6 483 -13 523 -21 36 -7 36 -26 -8 -255 -19 -101 -51 -287 -70 -414 -20 -126 -38 -231 -40 -234 -3 -2 -60 21 -128 52 -67 32 -127 57 -133 57 -6 0 -16 -18 -22 -40 -12 -48 -6 -54 101 -100 42 -19 77 -37 77 -41 0 -4 -26 -13 -57 -19 -32 -6 -74 -16 -94 -21 -28 -7 -43 -5 -74 11 -43 22 -75 26 -75 10 0 -6 -11 -22 -25 -35 -31 -32 -86 -34 -114 -4 -18 19 -39 95 -29 104 2 2 21 0 43 -5 37 -8 119 0 133 15 16 16 -34 35 -92 35 -99 0 -106 -4 -106 -61 0 -42 -3 -49 -27 -61 -16 -7 -29 -23 -31 -36 -3 -18 -10 -22 -41 -22 l-38 0 -12 75 -12 75 -67 0 c-37 0 -74 -5 -82 -10 -11 -7 0 -10 37 -10 52 0 52 0 62 -37 26 -99 29 -90 -36 -103 -32 -6 -159 -36 -283 -65 -123 -30 -226 -52 -228 -50 -2 2 23 20 55 41 54 35 64 38 133 39 64 0 82 4 124 29 33 19 63 29 90 28 48 0 86 21 86 47 0 31 -55 69 -108 76 -69 10 -73 13 -14 14 45 1 52 4 52 21 0 12 -13 29 -32 41 -29 18 -44 20 -136 16 l-104 -5 -95 65 c-53 36 -106 66 -119 66 -19 0 -24 5 -24 23 0 13 -4 24 -10 24 -14 0 -13 63 2 95 6 14 26 34 43 45 l32 20 61 -26 c74 -32 105 -28 122 18 7 18 12 39 11 46 -1 6 5 12 14 12 8 0 15 6 15 13 0 7 14 18 30 24 27 10 30 15 23 40 -10 38 -8 67 12 143 30 117 3 186 -98 251 -79 51 -164 74 -222 60z m1278 -116 c120 -8 223 -17 228 -21 5 -3 9 -15 9 -27 0 -33 -119 -682 -130 -711 l-9 -25 -112 49 c-61 28 -117 50 -124 50 -7 0 -17 6 -23 13 -6 7 -52 31 -101 52 -89 39 -91 41 -91 74 0 29 70 473 85 539 6 26 -10 26 268 7z m-1181 -751 c64 -44 107 -67 125 -67 15 1 60 2 99 4 76 3 134 -13 134 -37 0 -10 -15 -14 -53 -14 -29 0 -79 -7 -110 -15 -32 -8 -73 -15 -92 -15 -43 0 -232 30 -262 41 -29 11 -29 39 -2 98 23 52 37 71 53 71 6 0 55 -30 108 -66z m1018 41 c0 -8 -4 -15 -9 -15 -13 0 -22 16 -14 24 11 11 23 6 23 -9z m-1396 -105 l7 -25 -14 25 c-8 14 -17 36 -21 50 l-7 25 14 -25 c8 -14 17 -36 21 -50z m179 -4 c-7 -45 6 -51 146 -73 61 -9 111 -19 111 -22 0 -11 -351 -104 -359 -95 -7 8 -31 83 -31 98 0 3 9 6 19 6 18 0 111 93 111 111 0 5 2 9 4 9 3 0 2 -15 -1 -34z m1082 -46 c17 0 17 -2 5 -10 -17 -11 -84 -13 -120 -3 l-25 7 25 7 c14 5 41 6 60 4 19 -3 44 -5 55 -5z m-487 -60 c24 -15 32 -27 30 -43 -3 -19 -11 -23 -63 -28 -36 -4 -80 -17 -110 -33 -42 -22 -60 -26 -116 -24 -66 2 -67 2 -154 -58 l-87 -59 -142 0 c-133 0 -144 1 -191 27 -27 14 -60 37 -73 51 l-23 25 53 12 c29 7 76 21 105 31 44 15 52 15 57 3 3 -8 12 -14 19 -14 8 0 101 25 207 55 222 64 265 72 375 74 64 1 87 -3 113 -19z m-999 -72 c22 -31 41 -60 41 -63 0 -3 -11 -5 -24 -5 -23 0 -29 9 -72 125 -10 27 4 13 55 -57z m1369 -15 c25 -20 109 -16 131 6 10 10 20 24 23 31 3 9 14 10 36 5 81 -17 -5 -65 -119 -65 -125 0 -202 34 -131 58 21 7 29 6 36 -7 5 -9 16 -22 24 -28z m-1285 -95 c18 -17 57 -43 87 -57 50 -24 67 -26 178 -26 67 0 122 -1 122 -1 0 -1 -40 -27 -88 -57 -102 -65 -188 -107 -218 -107 -33 0 -87 41 -107 82 -37 76 -47 198 -16 198 6 0 25 -14 42 -32z"/> </g> </svg> 