 <svg  version="1.0" xmlns="http://www.w3.org/2000/svg"  width="300.000000pt" height="158.000000pt" viewBox="0 0 300.000000 158.000000"  preserveAspectRatio="xMidYMid meet">  <g transform="translate(0.000000,158.000000) scale(0.100000,-0.100000)" fill="#333333" stroke="none"> <path d="M1146 1459 c-76 -12 -169 -64 -231 -130 -126 -132 -157 -318 -81 -484 28 -61 110 -154 165 -187 20 -12 38 -23 40 -24 4 -3 -182 -233 -189 -233 -3 -1 -1 53 5 120 7 82 7 123 0 128 -5 5 -55 29 -110 54 -169 76 -238 108 -279 128 -22 10 -42 16 -45 13 -11 -10 -13 -264 -3 -277 10 -12 -44 -66 -214 -212 -22 -20 -33 -36 -29 -46 3 -9 66 -49 140 -90 l134 -74 -189 -3 c-126 -2 -190 -6 -190 -13 0 -7 66 -10 210 -8 116 2 210 6 210 10 0 4 -67 45 -150 90 -82 46 -150 88 -149 94 1 11 222 215 233 215 3 0 6 -10 6 -23 0 -20 22 -34 160 -102 89 -43 159 -79 157 -81 -2 -2 -78 32 -169 76 -91 44 -172 80 -180 80 -21 0 -104 -88 -93 -98 6 -5 85 -48 176 -95 l166 -85 49 49 c45 45 74 61 74 40 0 -5 -40 -52 -90 -104 -49 -52 -90 -101 -90 -108 0 -8 49 36 110 96 60 60 107 111 105 114 -3 2 4 15 16 27 l21 23 -202 101 c-111 56 -200 103 -198 106 3 2 87 -35 186 -83 100 -47 184 -84 187 -81 9 8 24 242 17 250 -8 8 -341 163 -370 172 -18 6 -20 -2 -30 -111 l-10 -118 5 125 c3 69 6 126 7 128 2 1 95 -40 207 -92 l204 -95 -2 -78 c-1 -43 -5 -104 -8 -137 -4 -34 -2 -57 3 -55 10 4 222 254 222 262 0 3 -17 16 -37 29 -316 194 -271 651 75 767 263 89 552 -112 552 -384 l0 -62 -32 0 c-18 0 -41 6 -50 14 -9 8 -23 13 -30 10 -7 -2 -21 0 -31 5 -20 10 -96 -9 -113 -28 -14 -17 -48 -22 -52 -9 -7 21 -24 34 -38 28 -9 -3 -14 2 -14 16 0 25 -18 27 -35 4 -20 -27 -47 -9 -43 29 3 29 8 33 43 42 28 6 40 6 43 -3 2 -6 11 -11 19 -11 11 0 13 5 8 18 -23 51 24 182 65 182 6 0 10 4 10 9 0 10 -56 41 -73 41 -6 0 -25 11 -43 25 -35 27 -49 32 -38 14 4 -7 2 -10 -5 -8 -7 3 -12 8 -11 13 1 5 -4 13 -12 17 -19 13 5 11 39 -2 90 -35 108 -30 63 19 -24 27 -36 32 -74 32 -25 0 -48 -4 -51 -10 -3 -5 -15 -10 -26 -10 -14 0 -19 -7 -19 -25 0 -22 3 -23 24 -15 33 12 39 2 16 -30 -29 -41 -28 -53 5 -60 17 -4 38 -11 49 -15 16 -7 18 -4 14 23 -4 31 -4 31 35 26 39 -4 75 -29 63 -42 -4 -3 -11 0 -15 7 -10 16 -31 6 -31 -14 0 -9 6 -12 15 -9 13 5 13 2 0 -30 -9 -20 -13 -41 -11 -45 11 -17 -18 -71 -39 -72 -11 0 -33 -8 -50 -18 -37 -22 -45 -61 -16 -90 11 -11 16 -23 11 -26 -16 -10 -51 14 -119 82 -63 63 -64 65 -66 121 -2 75 -23 118 -55 115 -25 -3 -25 -3 4 22 23 18 39 23 68 20 21 -2 42 -6 46 -9 12 -7 82 15 82 26 0 5 -6 8 -12 7 -7 -1 -21 1 -31 6 -10 4 -30 1 -49 -8 -21 -10 -37 -12 -44 -6 -16 13 -61 -12 -97 -57 -31 -37 -31 -37 -7 -30 53 16 63 13 73 -24 8 -32 10 -56 6 -100 0 -8 16 -41 37 -73 29 -45 42 -57 57 -53 13 3 21 -1 24 -14 6 -21 50 -38 100 -38 18 -1 49 -9 70 -18 20 -10 46 -18 58 -19 20 0 21 -6 9 -57 -5 -20 1 -35 22 -62 16 -20 37 -36 47 -36 22 0 22 -17 -3 -57 -39 -64 -121 -93 -268 -93 -53 0 -91 -4 -88 -9 4 -5 38 -15 78 -21 87 -15 172 -3 254 34 l56 26 62 -52 63 -51 7 -116 c3 -63 8 -116 10 -119 3 -2 81 39 174 91 l169 94 39 -33 c22 -18 34 -33 28 -34 -6 0 -17 7 -24 15 -10 13 -17 12 -51 -5 -21 -11 -42 -20 -46 -20 -4 1 9 10 30 21 34 18 42 39 16 39 -6 0 -8 -4 -5 -8 2 -4 -60 -44 -140 -87 -89 -50 -142 -85 -139 -92 2 -7 0 -13 -6 -13 -24 0 2 -31 94 -114 l97 -88 113 72 c61 40 142 91 179 114 37 23 68 44 68 47 0 3 -54 47 -120 98 l-120 92 0 139 c0 77 -1 140 -3 140 -15 0 -341 -182 -340 -189 4 -17 -30 1 -78 41 l-47 39 50 52 c28 29 56 64 64 80 l15 27 315 0 315 0 -16 30 c-9 17 -13 30 -10 30 2 0 19 -28 36 -62 51 -102 43 -98 196 -98 112 0 133 2 133 15 0 13 27 15 187 15 102 0 184 3 180 6 -3 4 -87 6 -186 5 l-181 -2 -27 46 c-16 26 -46 74 -68 108 l-40 62 -53 3 c-31 2 -60 -2 -68 -9 -11 -9 -14 -8 -14 6 0 10 -30 68 -67 128 l-68 111 -5 -134 c-5 -134 1 -177 22 -164 7 4 8 3 4 -4 -4 -6 0 -25 9 -41 8 -17 15 -32 15 -36 0 -3 -136 -5 -301 -5 l-301 0 6 23 c54 181 13 350 -113 471 -108 102 -235 141 -385 115z m155 -50 c28 -28 17 -35 -25 -15 -19 9 -41 16 -49 16 -9 0 -19 5 -22 10 -4 6 10 10 34 10 28 0 48 -7 62 -21z m-67 -78 c18 -34 15 -39 -24 -33 -32 5 -40 19 -14 29 8 3 13 12 10 19 -10 26 14 14 28 -15z m1031 -241 c57 -96 59 -106 49 -209 l-7 -62 -53 93 -53 93 -1 94 c0 52 2 92 5 89 3 -3 30 -47 60 -98z m-964 -100 c10 0 19 -4 19 -9 0 -8 -68 -4 -78 5 -2 1 5 11 15 21 17 17 18 17 21 1 2 -10 12 -18 23 -18z m264 -11 c5 -5 23 -9 40 -9 29 0 30 -2 30 -39 0 -22 -3 -35 -6 -29 -7 10 -25 -47 -21 -67 2 -12 -71 -104 -99 -123 -10 -7 -19 -19 -19 -26 0 -7 29 -36 65 -65 60 -49 65 -56 63 -89 l-1 -37 -4 33 c-3 25 -19 45 -73 91 l-68 59 -60 -30 c-42 -21 -78 -31 -123 -33 l-64 -4 54 9 c124 23 191 76 191 150 0 25 -3 31 -16 26 -9 -4 -25 5 -40 22 -21 23 -24 34 -19 74 4 38 2 49 -12 57 -17 10 -17 10 0 11 9 0 17 5 17 11 0 5 4 7 10 4 5 -3 20 1 32 10 24 17 103 13 123 -6z m907 -21 c8 -13 38 -60 67 -106 l52 -83 -108 3 -107 3 -18 32 c-15 24 -18 47 -16 100 l3 68 58 -97 c42 -71 63 -98 77 -98 11 0 20 2 20 5 0 16 -111 187 -118 180 -3 -2 1 -11 8 -20 7 -9 10 -18 7 -21 -8 -9 -29 35 -22 46 3 6 23 10 44 10 29 0 42 -6 53 -22z m-26 -103 c19 -32 33 -60 30 -62 -4 -5 -76 110 -76 122 0 13 8 2 46 -60z m-96 -60 l21 -34 107 -4 107 -3 -121 -2 c-121 -2 -121 -2 -132 23 -12 26 -16 55 -8 55 2 0 14 -16 26 -35z m-1685 -96 l150 -68 3 -48 c1 -26 -1 -80 -5 -119 l-8 -70 -184 88 -183 89 6 31 c3 17 6 68 6 115 l0 84 33 -17 c17 -10 100 -48 182 -85z m1275 56 c-15 -9 -19 -14 -10 -15 13 0 15 -18 12 -116 -3 -98 -6 -115 -18 -110 -8 3 -73 -26 -145 -65 -71 -39 -132 -70 -134 -68 -2 2 -7 48 -11 101 l-7 96 52 27 c28 14 49 30 46 35 -3 5 0 8 7 5 17 -6 190 84 183 95 -6 9 22 29 40 29 6 0 -1 -6 -15 -14z m17 -142 c-3 -10 -5 -2 -5 17 0 19 2 27 5 18 2 -10 2 -26 0 -35z m-1322 -185 c171 -86 183 -94 169 -109 -16 -18 -49 -15 -38 2 3 5 -69 46 -160 90 -94 46 -166 88 -166 95 0 8 2 14 5 14 3 0 88 -41 190 -92z m1260 59 c-31 -21 -261 -147 -269 -147 -3 0 -5 15 -5 33 1 23 3 26 6 10 2 -13 7 -23 11 -23 4 1 63 32 132 70 113 62 175 91 125 57z m-1370 -76 c68 -33 143 -67 165 -77 22 -10 40 -21 40 -24 0 -3 -19 -25 -42 -47 l-43 -42 -115 60 c-63 33 -138 71 -166 85 l-51 26 41 39 c23 21 42 39 44 39 1 0 58 -27 127 -59z m1503 5 l43 -35 -23 -14 c-13 -8 -76 -47 -142 -86 l-119 -71 -41 37 c-22 21 -41 41 -41 45 0 7 263 158 275 158 3 0 24 -16 48 -34z m81 -28 c36 -28 70 -55 74 -58 9 -8 -321 -223 -334 -218 -4 2 -48 39 -98 83 -58 52 -86 82 -78 87 7 4 30 -11 59 -39 44 -43 49 -46 73 -35 23 10 234 134 274 161 11 7 7 15 -20 40 -54 49 -23 36 50 -21z m-209 38 c0 -2 -30 -21 -67 -42 -38 -20 -88 -48 -113 -62 -25 -14 -40 -20 -34 -13 12 13 193 118 207 120 4 0 7 -1 7 -3z"/> </g> </svg> 