 <svg  version="1.0" xmlns="http://www.w3.org/2000/svg"  width="300.000000pt" height="300.000000pt" viewBox="0 0 300.000000 300.000000"  preserveAspectRatio="xMidYMid meet">  <g transform="translate(0.000000,300.000000) scale(0.100000,-0.100000)" fill="#333333" stroke="none"> <path d="M1383 2658 c-13 -6 -25 -19 -28 -29 -7 -20 -25 -26 -25 -9 0 20 -48 9 -87 -19 -72 -52 -115 -150 -134 -303 -6 -49 -22 -121 -35 -160 -28 -84 -30 -147 -8 -237 15 -60 15 -68 -1 -120 -26 -85 -43 -112 -96 -159 -62 -55 -102 -127 -128 -227 -36 -138 -52 -361 -31 -435 5 -20 32 -58 61 -87 62 -64 56 -70 -11 -10 -66 59 -168 117 -206 117 -33 0 -84 -33 -83 -53 0 -7 50 -45 112 -85 62 -40 148 -105 192 -143 44 -38 93 -77 108 -88 15 -10 48 -52 73 -92 53 -87 80 -118 113 -130 19 -8 21 -12 11 -24 -7 -8 -18 -15 -25 -15 -7 0 -49 51 -93 113 -44 61 -99 131 -122 155 -44 44 -161 134 -310 238 l-85 59 -253 4 c-176 2 -257 0 -265 -8 -8 -8 60 -11 248 -11 235 0 263 -2 290 -18 51 -32 267 -191 322 -238 44 -38 213 -243 213 -259 0 -3 -15 5 -32 19 -18 13 -88 58 -156 99 -68 41 -118 78 -113 82 6 3 11 14 11 24 0 22 -63 91 -83 91 -8 0 -31 22 -51 50 -35 48 -65 65 -103 58 -29 -5 -27 -37 3 -69 22 -23 28 -37 25 -65 -4 -51 21 -84 64 -84 l36 0 -16 -30 c-26 -50 -16 -129 19 -152 26 -18 95 -7 149 22 31 17 62 30 70 30 7 0 48 -25 92 -55 43 -30 95 -60 114 -65 33 -9 38 -8 59 16 39 45 157 77 282 77 146 1 291 -13 317 -30 15 -10 35 -12 65 -8 32 5 54 1 88 -14 53 -24 133 -27 174 -6 24 13 95 15 448 15 277 0 417 3 413 10 -4 6 -152 10 -413 10 l-406 0 32 32 c60 63 59 59 52 538 -7 395 -10 442 -28 512 -30 112 -43 130 -109 165 -112 60 -217 79 -228 43 -13 -42 -33 -21 -46 50 -10 58 -10 83 2 143 8 39 14 117 13 172 0 89 -4 109 -33 180 -90 222 -183 355 -275 396 -56 24 -124 32 -153 17z m145 -34 c76 -38 135 -110 203 -249 104 -213 116 -280 84 -467 -12 -69 -13 -101 -5 -154 6 -37 13 -71 16 -75 5 -9 -61 -56 -125 -88 -28 -15 -41 -18 -38 -9 28 67 30 91 17 169 -13 82 -9 174 12 280 14 70 3 102 -53 154 -45 42 -61 69 -84 148 -22 77 -42 89 -137 85 l-73 -3 -3 60 c-4 77 4 117 29 149 28 35 87 35 157 0z m-212 -41 c-4 -16 -9 -65 -13 -110 -6 -82 -6 -82 -32 -77 -14 2 -37 -1 -51 -9 -55 -28 -59 -126 -13 -337 14 -63 28 -135 30 -160 6 -46 -15 -177 -28 -186 -5 -2 -6 -12 -3 -22 4 -10 3 -13 -3 -6 -11 14 -80 17 -122 4 -19 -5 -36 -8 -39 -6 -2 2 5 21 16 43 40 78 43 109 20 208 l-21 91 27 94 c15 52 36 145 46 209 13 80 28 133 49 175 32 63 88 116 124 116 16 0 18 -5 13 -27z m25 -180 c9 -10 8 -13 -4 -13 -17 0 -27 30 -26 75 1 28 2 27 10 -9 5 -22 14 -45 20 -53z m177 -20 c7 -10 21 -47 32 -84 16 -53 31 -78 75 -125 30 -33 55 -63 55 -69 -1 -5 -31 22 -69 61 -56 58 -71 80 -81 122 -13 55 -43 102 -65 102 -8 0 -17 5 -21 12 -12 19 59 0 74 -19z m-260 -24 c-53 -27 -62 -49 -55 -138 8 -111 48 -251 91 -321 30 -48 36 -66 31 -92 -8 -39 -22 -61 -52 -76 -37 -20 -39 -14 -25 63 15 74 15 77 -18 213 -19 80 -35 176 -38 230 -4 87 -3 94 18 117 16 17 34 25 54 25 l31 -1 -37 -20z m222 1 c10 -10 24 -38 30 -62 15 -57 48 -106 110 -164 44 -41 50 -52 50 -86 0 -53 -56 -186 -96 -225 -38 -40 -84 -43 -144 -13 -22 11 -45 20 -52 20 -7 -1 -30 -37 -52 -80 -44 -93 -43 -117 9 -165 54 -52 192 -81 260 -55 24 9 26 8 20 -7 -4 -10 -10 -26 -12 -35 -4 -15 -17 -18 -77 -18 -138 1 -210 34 -271 125 -48 72 -46 90 11 117 81 38 96 115 39 201 -36 54 -63 141 -86 280 -16 93 -8 115 55 158 33 22 51 26 113 27 60 2 77 -2 93 -18z m178 -517 c0 -54 4 -112 10 -128 14 -46 -20 -153 -54 -165 -35 -14 -139 -12 -187 2 -48 15 -117 76 -117 105 0 27 59 153 71 153 6 0 27 -9 49 -20 47 -24 81 -25 121 -5 35 19 85 85 94 126 4 16 8 29 10 29 1 0 3 -44 3 -97z m372 -171 c89 -35 119 -58 141 -108 35 -79 40 -137 49 -584 9 -488 11 -464 -51 -535 -30 -33 -34 -35 -96 -35 -54 0 -70 4 -99 26 -31 24 -39 26 -82 19 -51 -9 -76 -9 -164 1 -32 3 -58 10 -58 15 0 5 -8 9 -18 9 -11 0 -27 9 -36 19 -14 16 -23 17 -48 10 -17 -4 -35 -6 -39 -3 -16 9 -10 40 11 59 11 10 20 23 20 29 0 6 9 22 20 36 32 41 27 70 -37 219 -16 37 19 -6 56 -69 36 -59 46 -70 69 -70 17 0 46 -15 76 -40 59 -49 70 -52 171 -48 79 3 80 3 83 31 2 15 -4 62 -14 105 -10 42 -17 106 -17 142 0 72 61 398 99 528 13 46 24 102 24 123 0 45 -9 53 -120 100 -87 36 -84 34 -76 48 9 14 55 4 136 -27z m-909 -44 c-23 -24 -53 -67 -68 -95 -16 -29 -31 -53 -34 -53 -4 0 -12 13 -18 28 -10 24 -9 38 7 83 15 46 23 56 53 66 19 7 49 12 67 12 l34 1 -41 -42z m69 -37 c-10 -56 -9 -73 15 -169 14 -59 28 -117 30 -129 8 -36 -24 -172 -57 -245 -30 -66 -81 -128 -95 -115 -3 4 6 58 20 121 15 62 27 141 27 175 0 67 -10 94 -67 178 l-35 52 37 63 c45 74 115 152 128 139 5 -5 3 -36 -3 -70z m679 62 c0 -10 -4 -27 -8 -38 -7 -17 -8 -17 -15 8 -3 16 -4 32 -1 37 10 16 25 11 24 -7z m153 -42 c25 -13 49 -28 51 -35 6 -15 -14 -118 -42 -215 -72 -255 -95 -513 -57 -640 26 -82 19 -88 -91 -81 -75 5 -83 7 -128 45 -28 22 -59 39 -74 40 -20 0 -33 12 -57 50 -18 28 -43 64 -57 80 -41 49 -44 10 -6 -89 l33 -86 -22 -30 c-12 -16 -22 -34 -22 -39 0 -5 -12 -23 -26 -40 -15 -18 -24 -40 -22 -53 3 -20 9 -23 47 -22 31 1 50 -5 63 -18 10 -10 23 -16 28 -13 5 3 11 1 15 -5 3 -5 26 -10 49 -10 24 0 59 -6 78 -14 30 -13 41 -13 87 1 52 15 53 15 90 -11 20 -14 50 -26 67 -27 16 -1 40 -4 54 -8 22 -7 20 -9 -20 -15 -38 -6 -58 -3 -113 19 -59 24 -71 26 -97 15 -25 -11 -34 -9 -65 10 -25 16 -45 21 -68 17 -18 -3 -71 1 -120 9 -104 18 -252 6 -325 -26 -53 -24 -62 -25 -62 -6 0 14 -79 135 -112 172 l-19 22 53 29 c124 69 374 224 383 238 12 18 -26 62 -69 80 -37 16 -73 6 -186 -50 -123 -61 -190 -102 -231 -142 l-37 -35 -36 38 c-44 48 -47 65 -5 29 18 -14 41 -25 53 -23 20 3 21 9 24 138 2 74 -4 205 -12 290 -15 146 -12 218 8 223 5 1 27 -27 49 -62 39 -61 41 -68 40 -138 -1 -43 -13 -118 -29 -179 -24 -96 -25 -107 -11 -121 14 -15 18 -15 41 0 58 39 126 202 133 322 4 66 0 94 -21 164 -25 82 -32 152 -20 198 6 20 9 18 38 -25 49 -73 103 -108 187 -122 40 -7 92 -10 116 -6 l43 6 -15 -30 c-8 -16 -15 -51 -15 -78 0 -44 5 -56 51 -113 60 -75 69 -95 69 -154 0 -48 14 -95 29 -95 11 0 16 15 26 73 3 20 10 37 15 37 6 0 26 -32 45 -71 34 -67 64 -88 57 -41 -4 26 1 27 33 6 42 -28 39 2 -15 156 -55 157 -60 194 -36 285 9 32 16 77 16 100 0 22 7 49 15 59 8 11 15 29 15 41 0 40 8 39 142 -24z m-195 -40 c-15 -18 -141 -76 -184 -85 l-31 -7 15 33 c11 24 28 39 57 51 23 9 64 32 91 50 l50 33 7 -31 c4 -18 2 -36 -5 -44z m-833 24 c-18 -45 -18 -85 2 -113 13 -20 14 -30 3 -72 -10 -39 -10 -80 0 -208 15 -180 20 -407 9 -418 -14 -14 -145 105 -175 159 -35 64 1 421 54 537 45 97 144 204 107 115z m842 -67 c-3 -13 -12 -56 -22 -96 -22 -95 -16 -138 40 -291 51 -139 54 -151 28 -128 -27 25 -42 21 -43 -10 0 -24 -5 -19 -29 31 -38 77 -54 94 -74 76 -9 -7 -16 -24 -17 -39 0 -14 -4 -35 -9 -46 -6 -15 -9 -7 -10 30 -1 80 -15 122 -57 171 -79 94 -79 96 -53 194 9 33 14 37 82 58 40 12 91 33 113 46 51 31 56 31 51 4z m-1092 -602 c73 -42 143 -99 191 -156 36 -44 38 -48 35 -92 -1 -14 4 -29 10 -33 7 -5 9 2 5 22 -6 25 -5 26 6 8 6 -11 21 -30 32 -42 14 -15 16 -23 7 -23 -7 0 -19 8 -27 18 -14 16 -14 16 -8 -3 4 -12 -17 2 -52 36 -68 67 -216 179 -290 221 -64 36 -72 47 -48 65 31 22 74 15 139 -21z m723 -2 c18 -14 33 -30 33 -37 -1 -11 -376 -241 -424 -260 -17 -6 -27 -2 -48 23 -16 16 -28 39 -28 49 0 40 145 137 335 223 75 34 90 34 132 2z m-849 -140 c15 -9 39 -34 55 -55 15 -22 35 -42 45 -46 9 -3 32 -22 51 -41 30 -33 32 -37 16 -48 -12 -9 -25 -10 -42 -3 -13 5 -42 9 -63 9 -47 0 -60 18 -60 83 0 34 -5 48 -25 65 -26 22 -34 52 -14 52 6 0 23 -7 37 -16z m519 -279 c34 -49 62 -93 63 -97 1 -22 -42 -3 -68 30 -32 41 -102 149 -102 158 0 3 10 4 23 2 15 -2 42 -31 84 -93z m-301 24 c41 -22 74 -44 74 -47 0 -12 -137 -72 -164 -72 -14 0 -31 9 -40 22 -16 22 -21 92 -10 122 10 27 63 18 140 -25z"/> </g> </svg> 