 <svg  version="1.0" xmlns="http://www.w3.org/2000/svg"  width="300.000000pt" height="300.000000pt" viewBox="0 0 300.000000 300.000000"  preserveAspectRatio="xMidYMid meet">  <g transform="translate(0.000000,300.000000) scale(0.100000,-0.100000)" fill="#333333" stroke="none"> <path d="M1056 2576 c-3 -13 -9 -31 -12 -40 -3 -9 -2 -16 4 -16 5 0 14 18 20 40 5 22 6 40 2 40 -4 0 -11 -11 -14 -24z"/> <path d="M906 2568 c15 -49 25 -71 30 -65 8 8 -18 87 -28 87 -5 0 -6 -10 -2 -22z"/> <path d="M1176 2507 c-22 -19 -35 -36 -30 -39 5 -4 27 11 49 33 48 48 35 51 -19 6z"/> <path d="M750 2474 c0 -13 68 -79 75 -73 2 3 -13 23 -35 44 -22 22 -40 35 -40 29z"/> <path d="M945 2456 c-65 -28 -108 -111 -87 -167 6 -14 27 -39 47 -55 20 -16 52 -44 72 -61 19 -18 39 -33 44 -33 16 0 22 50 9 79 -13 32 -6 71 13 71 19 0 20 -116 2 -151 -24 -45 5 -129 44 -129 10 0 24 -7 31 -16 17 -19 88 -54 111 -54 20 0 24 -4 33 -42 5 -21 3 -28 -8 -28 -26 0 -88 -63 -109 -109 -14 -32 -22 -84 -29 -195 -10 -164 -13 -154 45 -191 15 -9 15 -16 2 -70 -16 -67 -19 -131 -6 -139 21 -14 58 139 43 182 -6 18 -5 41 3 67 11 39 11 39 23 17 8 -13 10 -36 6 -57 l-6 -35 54 0 c55 0 116 -28 126 -57 6 -21 -18 -15 -50 12 -16 14 -34 22 -39 19 -13 -8 17 -41 45 -50 11 -4 26 -14 33 -23 15 -19 17 -61 3 -61 -22 0 -60 25 -60 40 0 41 -50 53 -74 18 -20 -28 -10 -41 25 -34 39 7 38 -9 -3 -70 -47 -69 -64 -76 -93 -40 -16 20 -29 27 -44 23 -14 -3 -25 2 -35 18 -19 29 -77 49 -121 41 -44 -9 -81 -39 -107 -89 -31 -58 -29 -210 2 -357 13 -58 25 -117 28 -132 l4 -28 -456 0 c-297 0 -456 -3 -456 -10 0 -12 899 -14 918 -1 11 7 9 30 -14 127 -35 152 -40 348 -11 402 40 72 140 96 191 45 31 -30 31 -27 -8 -158 -31 -104 -59 -254 -54 -293 5 -40 32 -39 52 2 36 77 59 189 61 304 1 62 5 115 8 118 3 4 18 -8 32 -25 15 -17 32 -31 39 -31 17 0 71 59 91 100 10 19 19 36 20 38 2 2 14 -4 28 -12 44 -30 78 4 54 54 -12 24 -12 28 2 37 14 9 14 13 -4 33 -30 33 -73 52 -121 53 -39 0 -44 3 -44 23 0 22 1 22 28 9 30 -15 171 -35 246 -35 59 0 90 -18 139 -81 37 -47 37 -49 22 -73 -13 -20 -14 -29 -5 -46 19 -36 45 -21 44 27 0 33 4 43 20 51 17 7 25 4 44 -21 30 -41 28 -73 -6 -107 -24 -24 -39 -29 -98 -34 -205 -18 -290 -45 -316 -101 -17 -38 4 -55 69 -55 93 0 249 67 312 133 23 25 175 97 205 97 29 0 63 -22 82 -53 28 -47 25 -223 -5 -379 -13 -65 -21 -125 -17 -133 5 -13 68 -15 491 -15 317 0 485 3 485 10 0 7 -168 10 -485 10 -267 0 -485 1 -485 3 0 2 9 43 20 93 22 95 37 317 26 377 -4 20 -20 49 -35 66 -37 40 -93 42 -170 6 -46 -22 -52 -23 -45 -8 14 32 7 73 -17 100 -13 14 -19 27 -14 29 30 11 76 46 91 69 15 23 16 34 7 73 -13 60 -122 352 -155 417 -39 76 -100 139 -160 166 -75 34 -194 34 -259 0 -41 -20 -51 -22 -81 -12 -50 16 -83 55 -80 93 1 17 -7 46 -18 65 -25 43 -25 79 -1 120 44 71 31 156 -31 208 -34 29 -102 33 -153 11z m142 -21 c51 -34 68 -125 33 -183 -11 -18 -20 -50 -20 -71 0 -25 -5 -41 -15 -45 -18 -7 -18 -29 -1 -78 14 -39 8 -49 -13 -24 -21 25 -24 81 -7 114 11 22 14 44 9 77 -4 30 -1 54 7 70 16 30 5 46 -14 20 -14 -19 -36 -13 -36 11 0 15 -12 19 -23 7 -4 -3 -2 -12 4 -19 6 -8 8 -22 4 -31 -6 -17 -7 -17 -16 0 -6 9 -17 17 -24 17 -24 0 -17 -30 8 -39 23 -9 52 -75 41 -93 -5 -8 -62 33 -121 89 -103 97 62 257 184 178z m35 -402 c1 -7 4 -13 7 -13 4 0 12 -9 19 -21 12 -18 11 -19 -6 -10 -26 14 -52 71 -51 113 0 33 0 33 15 -12 9 -25 16 -51 16 -57z m12 42 c7 -34 -7 -15 -19 25 -5 16 -4 22 3 15 5 -5 12 -23 16 -40z m407 -110 c109 -39 160 -114 258 -377 74 -200 82 -238 55 -276 -13 -19 -63 -52 -79 -52 -17 0 0 42 25 60 17 12 30 30 30 42 0 38 -102 342 -137 410 -48 92 -104 141 -188 167 -37 12 -95 21 -129 22 -43 0 -55 3 -41 9 33 14 159 11 206 -5z m-35 -40 c107 -32 190 -146 244 -335 12 -41 33 -110 47 -153 l26 -78 -37 -34 c-28 -25 -36 -39 -31 -54 4 -14 0 -23 -14 -30 -27 -15 -24 -17 -69 42 -52 69 -90 87 -184 87 l-73 1 49 19 c27 11 69 38 92 61 33 32 51 42 80 44 25 1 44 10 56 25 20 25 21 71 1 77 -13 5 -83 -54 -83 -70 0 -6 15 3 33 21 33 32 57 41 57 21 0 -22 -21 -47 -48 -57 -45 -16 -59 3 -67 89 -9 89 -30 143 -81 198 -64 71 -124 90 -160 50 -14 -16 -20 -43 -25 -110 -4 -48 -12 -102 -19 -119 -12 -29 -11 -33 15 -60 27 -28 27 -54 0 -43 -8 3 -15 0 -15 -6 0 -6 9 -11 20 -11 24 0 24 -3 4 -42 -12 -24 -13 -36 -5 -54 13 -30 -6 -33 -38 -6 -20 16 -21 21 -10 74 18 88 -4 117 -41 56 l-20 -33 0 30 c0 17 11 80 25 140 18 79 33 122 55 153 31 44 37 62 20 62 -5 0 -10 9 -10 19 0 11 -5 23 -11 27 -46 28 123 28 217 -1z m-213 -77 c-11 -13 -28 -38 -37 -56 -26 -50 -57 -206 -55 -276 1 -66 -11 -118 -28 -123 -7 -3 -20 4 -30 14 -16 16 -18 30 -12 144 8 148 27 224 66 261 54 50 138 81 96 36z m146 -13 c69 -35 120 -127 130 -235 5 -43 11 -82 14 -87 4 -6 -15 -31 -42 -56 -85 -80 -211 -99 -211 -33 0 14 5 28 11 32 6 3 9 17 6 30 -2 14 0 27 4 30 15 9 10 22 -17 48 -21 19 -25 30 -20 48 4 12 11 65 16 116 4 51 13 99 20 107 16 19 53 19 89 0z m-184 -374 l-7 -36 -14 27 c-13 25 -13 31 3 60 17 32 18 32 21 9 2 -13 1 -40 -3 -60z m-69 -182 c-5 -55 -25 -115 -26 -80 0 23 23 141 28 141 3 0 2 -27 -2 -61z m133 -43 c9 -11 6 -15 -19 -18 -32 -5 -37 1 -18 20 15 15 23 15 37 -2z m401 -60 c0 -14 -5 -28 -10 -31 -13 -8 -24 20 -16 40 9 24 26 17 26 -9z m-591 -241 c-9 -84 -42 -213 -64 -254 -14 -26 -14 -26 -15 20 0 59 15 141 48 262 21 78 28 93 33 73 4 -14 3 -59 -2 -101z m596 104 c-28 -30 -172 -98 -237 -110 -96 -19 -135 5 -85 51 37 36 87 51 202 61 60 6 112 12 114 15 2 2 9 4 14 4 6 0 2 -9 -8 -21z"/> <path d="M1211 2379 c-18 -6 -31 -13 -28 -16 9 -9 77 7 77 17 0 12 -4 11 -49 -1z"/> <path d="M750 2283 c-46 -4 -82 -23 -43 -23 46 0 112 13 107 21 -3 5 -8 8 -12 7 -4 -1 -27 -3 -52 -5z"/> <path d="M1176 2261 c13 -13 84 -31 84 -22 0 4 -17 13 -39 19 -46 14 -58 15 -45 3z"/> <path d="M816 2139 c-32 -23 -55 -43 -53 -46 7 -6 117 68 117 78 0 13 -2 12 -64 -32z"/> </g> </svg> 