<?xml version="1.0" standalone="no"?>
<!DOCTYPE svg PUBLIC "-//W3C//DTD SVG 20010904//EN"
 "http://www.w3.org/TR/2001/REC-SVG-20010904/DTD/svg10.dtd">
<svg version="1.0" xmlns="http://www.w3.org/2000/svg"
 width="300.000000pt" height="300.000000pt" viewBox="0 0 300.000000 300.000000"
 preserveAspectRatio="xMidYMid meet">
<metadata>
Created by potrace 1.10, written by Peter Selinger 2001-2011
</metadata>
<g transform="translate(0.000000,300.000000) scale(0.100000,-0.100000)"
fill="#333333" stroke="none">
<path d="M740 2325 c-7 -8 -22 -15 -34 -15 -38 0 -124 -50 -156 -90 -78 -99
-113 -235 -114 -453 l-1 -158 -90 -46 c-110 -56 -206 -123 -235 -163 -16 -22
-26 -62 -37 -142 -14 -101 -14 -120 0 -190 8 -43 29 -108 46 -145 37 -80 50
-152 38 -208 -13 -59 -16 -208 -5 -222 6 -7 15 -10 22 -6 6 3 3 -3 -7 -15 -28
-31 -13 -45 30 -27 44 19 43 19 43 -4 0 -29 46 -78 85 -91 26 -9 53 -8 109 1
66 11 77 11 93 -3 33 -29 82 -48 125 -49 24 0 51 -4 61 -8 17 -6 17 -8 4 -19
-12 -11 -32 -10 -98 0 -79 12 -83 14 -96 45 -16 40 -28 41 -100 7 -45 -22 -64
-25 -104 -21 -64 8 -105 30 -125 69 -20 39 -29 28 -47 -64 l-13 -63 -67 -3
c-91 -4 -85 -22 7 -22 l74 0 13 70 12 71 26 -24 c38 -35 62 -46 122 -53 46 -5
61 -2 102 20 63 34 83 34 90 -3 8 -36 21 -41 132 -46 101 -5 108 -10 119 -75
l6 -40 490 0 490 0 0 35 0 35 -475 0 c-466 0 -475 0 -475 20 0 10 -20 42 -45
70 -43 49 -54 70 -37 70 5 0 17 -9 27 -20 22 -24 34 -25 63 -4 l23 16 -25 32
-25 33 256 6 c160 4 262 3 273 -3 10 -6 28 -10 39 -10 23 0 47 -35 31 -45 -13
-8 -43 -66 -37 -72 3 -2 14 1 25 8 17 11 23 9 44 -16 23 -26 30 -28 100 -29
64 -1 81 3 106 21 l30 22 37 -44 36 -45 640 0 c419 0 639 3 639 10 0 7 -218
10 -634 10 l-634 0 -35 39 -35 39 24 48 c13 26 24 56 24 66 0 30 -26 73 -54
88 l-27 14 61 61 c48 48 58 64 48 72 -22 18 -51 -1 -121 -77 -37 -40 -67 -65
-67 -57 0 24 -64 160 -82 175 -30 25 -26 -4 8 -58 35 -56 44 -100 20 -100 -19
0 -66 -39 -66 -55 0 -20 41 -44 81 -48 19 -2 52 5 76 17 35 16 44 17 57 6 37
-30 4 -112 -64 -158 -27 -18 -45 -22 -89 -20 -32 2 -56 8 -59 16 -2 6 5 12 15
12 17 1 17 1 0 15 -18 13 -18 14 4 26 13 6 53 15 91 19 66 7 103 24 93 40 -3
5 -31 2 -63 -6 -60 -14 -154 -19 -165 -7 -4 3 -1 13 5 21 11 12 8 18 -12 31
-74 48 -148 143 -125 159 6 4 16 19 22 33 9 20 21 28 55 33 23 4 60 19 80 33
46 31 44 46 -14 144 -37 64 -38 67 -36 155 2 76 -1 96 -21 139 -20 43 -25 73
-32 205 -10 206 -22 242 -100 289 -38 23 -95 28 -102 9 -2 -7 -6 50 -9 127 -3
77 -13 172 -22 211 -17 71 -94 222 -140 273 -50 56 -186 92 -216 56z m113 -15
c63 -24 100 -60 157 -157 69 -118 81 -171 89 -388 4 -104 4 -260 -2 -345 -7
-127 -6 -182 8 -300 13 -119 14 -156 5 -210 -7 -36 -15 -82 -17 -103 l-5 -39
-40 42 c-45 46 -45 37 2 209 23 87 25 154 6 271 -32 195 -30 282 9 383 4 9 3
17 -1 17 -5 0 -21 -31 -36 -68 -17 -42 -42 -81 -65 -103 l-36 -34 31 40 c64
83 131 310 116 392 -8 41 -37 63 -85 63 -22 0 -42 7 -51 18 -14 16 -62 133
-87 214 -15 45 -47 88 -67 88 -28 0 -13 -47 40 -132 81 -127 94 -199 43 -246
-21 -20 -44 -27 -168 -52 -61 -12 -94 -38 -109 -86 -13 -43 -12 162 1 208 8
30 23 46 71 79 33 23 69 50 79 60 19 19 27 69 11 69 -23 0 -105 -65 -128 -102
-15 -24 -47 -73 -72 -109 -24 -37 -57 -104 -73 -150 l-30 -84 6 90 c11 172 49
293 116 370 35 39 98 74 135 75 12 0 31 9 44 20 29 25 36 25 103 0z m-44 -43
c15 -19 42 -99 31 -92 -15 9 -62 105 -51 105 5 0 14 -6 20 -13z m-59 -97 c0
-12 -111 -100 -125 -100 -13 1 102 110 115 110 6 0 10 -4 10 -10z m240 -210
c70 0 82 -41 54 -178 -22 -107 -68 -212 -116 -267 -39 -45 -44 -47 -81 -41
-87 14 -163 77 -216 180 -36 67 -39 108 -11 153 19 32 66 53 121 53 14 0 48 7
77 15 59 18 92 53 92 98 l0 31 20 -22 c15 -15 33 -22 60 -22z m-424 -113 c0
-99 6 -160 24 -247 31 -149 35 -351 8 -393 -15 -22 -18 -51 -18 -199 1 -145 4
-182 20 -228 11 -30 19 -58 20 -62 0 -4 -24 17 -54 47 l-55 54 21 53 c29 74
36 238 14 331 -9 38 -16 105 -16 150 0 105 -30 235 -60 257 -20 15 -20 20 -10
83 11 74 51 191 83 250 11 20 21 37 21 37 1 0 1 -60 2 -133z m107 -292 c36
-45 123 -95 166 -95 28 0 32 -3 26 -17 -22 -53 -44 -152 -48 -220 -6 -88 -9
-91 -95 -92 -60 -1 -117 22 -108 45 32 84 31 258 -4 413 -25 115 -25 117 8 53
15 -29 40 -68 55 -87z m550 78 c62 -31 88 -120 92 -308 2 -104 6 -128 29 -183
24 -56 26 -71 20 -136 -5 -62 -3 -78 15 -113 11 -23 25 -44 31 -48 20 -12 10
-27 -14 -21 -43 11 -127 -14 -159 -46 -25 -25 -28 -33 -22 -66 4 -20 13 -50
20 -67 7 -16 17 -41 20 -54 4 -14 27 -46 52 -72 l44 -47 -27 -6 c-14 -4 -32
-2 -39 4 -8 6 -41 13 -74 15 -32 1 -64 5 -69 9 -5 3 -12 45 -15 93 -6 80 -4
96 24 183 46 143 54 232 40 439 -6 97 -21 231 -32 299 -12 67 -18 130 -15 138
6 17 28 13 79 -13z m-58 -333 c19 -209 19 -309 0 -402 -19 -94 -49 -190 -58
-182 -12 12 -7 77 9 129 19 60 21 201 4 300 -8 49 -9 130 -4 270 l8 200 13
-75 c7 -41 20 -149 28 -240z m-725 256 c0 -18 -9 -85 -20 -147 -23 -135 -26
-306 -5 -399 17 -79 71 -216 83 -213 15 4 130 -122 137 -149 4 -14 5 -38 3
-52 -3 -26 -6 -27 -67 -31 -109 -6 -124 8 -141 126 -11 76 -41 152 -90 229
-25 39 -29 56 -30 120 -1 41 1 96 5 123 8 52 -4 77 -36 77 -31 0 -42 -43 -23
-93 9 -23 16 -60 15 -81 -1 -22 5 -60 13 -85 8 -25 19 -75 25 -110 7 -43 23
-85 49 -130 41 -69 62 -121 62 -153 0 -18 -2 -17 -29 3 -26 19 -39 21 -98 17
-37 -3 -83 -13 -102 -23 l-34 -17 8 63 c5 35 9 98 9 139 1 66 -4 86 -38 165
-54 124 -63 187 -46 315 16 117 30 145 105 202 45 34 220 135 238 137 4 1 7
-14 7 -33z m52 -37 c9 -35 17 -93 16 -129 l0 -65 -22 80 c-29 103 -40 188 -23
183 7 -3 20 -33 29 -69z m525 -41 c1 -46 8 -123 17 -173 22 -126 20 -204 -9
-310 -14 -49 -25 -101 -25 -114 0 -25 0 -24 -36 10 -57 55 -87 122 -92 212 -5
79 -8 86 -31 65 -20 -20 -4 132 22 212 20 58 28 69 71 97 28 18 57 44 65 58 9
14 16 25 16 25 1 0 2 -37 2 -82z m-536 -115 l28 -88 -20 -135 c-14 -86 -20
-161 -17 -205 l5 -70 -24 70 c-31 92 -46 248 -33 345 6 41 13 99 17 128 3 29
8 50 11 47 3 -3 18 -44 33 -92z m-177 -167 c3 -14 1 -37 -5 -53 l-11 -28 -14
30 c-21 48 -17 75 12 75 6 0 15 -11 18 -24z m235 -60 c9 -79 2 -168 -19 -245
-36 -135 -40 140 -4 308 8 37 14 20 23 -63z m317 -43 c0 -78 41 -170 101 -223
34 -30 44 -45 41 -64 l-3 -25 -40 28 c-26 17 -49 46 -67 81 -29 59 -65 218
-55 244 13 33 24 14 23 -41z m-121 20 c27 2 58 8 68 12 15 6 17 1 17 -38 0
-59 40 -196 71 -242 13 -20 44 -47 69 -60 43 -22 46 -27 74 -111 18 -55 29
-109 29 -142 0 -69 13 -67 22 5 11 87 24 109 24 41 1 -31 5 -68 11 -82 9 -25
14 -26 82 -27 59 -1 67 -2 43 -10 -16 -4 -129 -9 -252 -9 l-223 -1 -51 45
c-28 25 -54 46 -58 46 -4 0 -7 75 -6 168 0 151 -3 178 -29 284 -34 141 -32
154 21 132 24 -11 55 -14 88 -11z m-96 -293 c5 -47 6 -89 2 -93 -13 -14 -39
112 -45 218 l-6 100 20 -70 c11 -38 24 -108 29 -155z m-280 33 c29 -58 64
-163 57 -170 -7 -7 -74 121 -85 162 -23 83 -12 86 28 8z m713 -96 c16 -30 4
-29 -30 3 -18 16 -32 37 -32 46 0 15 4 14 26 -7 14 -13 30 -32 36 -42z m342
47 c9 -4 20 -14 25 -23 8 -14 2 -16 -39 -16 -40 0 -54 -5 -79 -29 -17 -17 -31
-35 -31 -41 0 -16 -37 -48 -43 -38 -12 22 -17 85 -7 103 17 31 131 60 174 44z
m-318 -106 c8 8 -3 -76 -12 -90 -6 -9 -53 114 -53 137 0 6 13 -4 28 -22 16
-17 33 -28 37 -25z m332 36 c-17 -17 -109 -46 -118 -37 -3 3 8 16 23 29 20 17
40 24 70 24 38 0 40 -1 25 -16z m211 -170 c-114 -115 -143 -128 -44 -20 80 89
115 120 124 110 3 -2 -33 -43 -80 -90z m-1248 7 c13 -11 21 -22 17 -26 -8 -8
-73 -24 -143 -35 -27 -4 -57 -10 -66 -14 -13 -5 -17 -2 -17 16 0 13 -1 29 -3
37 -10 38 170 56 212 22z m89 -22 c0 -7 -42 -20 -47 -16 -1 2 0 13 3 24 5 19
9 20 25 10 10 -6 19 -15 19 -18z m198 -47 c30 -20 58 -45 62 -57 4 -11 15 -27
24 -34 9 -7 16 -20 16 -27 0 -23 -28 -16 -60 16 -34 33 -41 35 -57 19 -14 -14
-8 -34 25 -78 l25 -33 -54 7 c-33 4 -74 18 -104 37 -48 30 -52 30 -106 19 -74
-15 -104 -14 -139 4 -24 13 -60 59 -60 79 0 18 37 36 77 36 24 0 77 11 116 24
40 14 81 27 92 29 40 9 91 -6 143 -41z m852 0 c-17 -29 -46 -38 -69 -23 -18
12 -2 34 38 54 36 19 50 4 31 -31z m131 -11 c17 -18 29 -40 29 -56 0 -42 -48
-125 -73 -125 -6 0 -1 10 11 23 11 12 28 39 37 60 20 49 4 90 -37 95 -19 2
-25 8 -21 18 8 21 21 17 54 -15z m-1441 -21 c-45 -25 -61 -25 -31 0 13 11 33
20 45 20 17 -1 14 -4 -14 -20z m1144 -16 c27 -10 9 -21 -26 -16 -28 4 -30 6
-13 13 11 4 21 8 22 8 1 1 8 -2 17 -5z m-666 -57 c6 -7 7 -18 3 -26 -7 -11
-11 -9 -20 7 -6 11 -11 23 -11 26 0 11 17 6 28 -7z m719 -31 c-3 -8 -16 -20
-28 -26 -17 -10 -20 -9 -14 2 24 41 55 59 42 24z m-155 -176 c462 0 468 0 468
-20 0 -20 -5 -20 -472 -18 l-472 3 -7 29 c-6 22 -5 26 3 18 9 -9 139 -12 480
-12z"/>
</g>
</svg>
