<?xml version="1.0" standalone="no"?>
<!DOCTYPE svg PUBLIC "-//W3C//DTD SVG 20010904//EN"
 "http://www.w3.org/TR/2001/REC-SVG-20010904/DTD/svg10.dtd">
<svg version="1.0" xmlns="http://www.w3.org/2000/svg"
 width="300.000000pt" height="300.000000pt" viewBox="0 0 300.000000 300.000000"
 preserveAspectRatio="xMidYMid meet">
<metadata>
Created by potrace 1.10, written by Peter Selinger 2001-2011
</metadata>
<g transform="translate(0.000000,300.000000) scale(0.100000,-0.100000)"
fill="#333333" stroke="none">
<path d="M807 2245 c-4 -9 -7 -36 -7 -61 0 -44 -4 -55 -138 -376 -42 -100 -62
-160 -62 -188 0 -31 21 -87 81 -218 91 -197 134 -301 144 -349 l6 -31 -42 5
c-58 8 -106 -18 -119 -66 -15 -53 -13 -181 3 -181 9 0 12 25 12 94 0 119 12
136 91 136 63 0 66 -4 84 -105 15 -85 36 -139 50 -130 5 3 10 17 10 31 0 47
-32 169 -50 189 -10 11 -25 47 -33 80 -9 33 -61 160 -116 282 -56 122 -104
235 -106 250 -4 20 11 68 48 158 128 312 147 362 152 418 4 35 12 60 20 63 7
3 34 -4 59 -15 54 -23 60 -49 22 -96 -24 -30 -24 -30 -45 -11 -17 16 -24 17
-34 7 -9 -10 -8 -16 9 -30 l22 -17 -35 -90 c-62 -161 -113 -316 -113 -345 0
-37 38 -97 104 -167 69 -74 79 -78 121 -52 19 12 41 30 48 40 13 18 17 17 93
-20 89 -45 105 -47 142 -22 15 10 80 46 145 80 66 34 135 75 155 92 25 21 39
26 48 19 16 -13 30 9 15 24 -7 7 -11 74 -11 197 l0 186 -45 44 c-25 24 -45 52
-45 62 0 39 93 66 119 34 18 -22 31 -119 17 -128 -8 -6 -8 -10 0 -15 22 -15
72 -349 60 -397 -10 -41 -97 -128 -252 -252 -83 -67 -134 -115 -134 -126 0
-10 8 -45 17 -78 16 -59 16 -62 -7 -134 l-23 -74 22 -44 c11 -24 21 -49 21
-54 0 -17 22 -33 36 -27 21 8 17 28 -12 62 -31 38 -30 84 2 89 32 5 51 -21 59
-77 12 -91 -9 -86 331 -73 165 7 331 12 371 12 39 0 78 3 87 6 20 8 20 44 1
108 -8 27 -15 79 -15 115 0 85 -16 191 -30 205 -14 14 -31 -11 -25 -39 28
-140 38 -216 28 -226 -11 -11 -382 -69 -445 -69 -20 0 -39 4 -43 9 -6 10 10
116 44 291 11 58 32 173 46 255 14 83 30 154 35 159 10 10 551 -2 568 -13 12
-7 -4 -132 -52 -406 -28 -154 -34 -181 -40 -174 -3 2 -11 58 -20 123 -10 76
-21 125 -31 135 -31 31 -34 -2 -10 -104 13 -55 35 -158 50 -229 33 -164 36
-170 83 -163 64 11 20 -10 -100 -47 l-117 -36 -138 11 c-76 6 -139 12 -141 13
-1 2 34 14 78 27 44 12 80 27 80 32 0 9 -6 8 -127 -31 -46 -14 -83 -29 -83
-33 0 -11 57 -18 205 -25 151 -7 181 -2 328 52 80 31 90 54 23 54 l-45 0 -11
58 c-6 31 -15 75 -20 96 -7 30 -6 42 5 50 7 6 20 47 29 91 35 177 76 436 76
478 l0 44 -62 6 c-35 4 -167 9 -293 13 -269 8 -257 12 -274 -93 -30 -182 -55
-319 -77 -427 -13 -65 -24 -142 -24 -172 0 -49 2 -54 26 -60 41 -10 435 45
475 66 14 8 19 2 28 -35 6 -24 11 -55 11 -68 l0 -25 -172 -7 c-95 -4 -265 -8
-377 -8 l-205 -2 -12 58 c-14 69 -31 90 -74 89 -38 -1 -41 -3 -43 -31 -1 -11
-5 -17 -10 -12 -4 4 4 38 20 75 l27 67 -17 67 c-9 37 -17 72 -17 79 0 7 57 58
127 114 176 143 250 217 258 260 7 36 -29 321 -45 365 -6 14 -10 46 -10 72 0
64 -17 120 -40 132 -53 28 -139 -9 -140 -61 0 -9 20 -39 45 -67 l45 -50 0
-183 0 -184 -53 -38 c-28 -22 -88 -57 -132 -79 -44 -22 -105 -55 -135 -74
l-56 -34 -83 41 c-75 37 -85 46 -102 86 -10 25 -22 57 -26 71 -6 25 -5 25 24
-8 17 -19 33 -45 37 -57 18 -56 114 -113 169 -99 29 7 38 27 72 163 21 81 24
109 17 137 -6 20 -8 44 -5 55 6 24 -28 57 -92 87 -60 29 -96 30 -151 5 -47
-21 -80 -59 -89 -102 -5 -23 -10 -28 -18 -20 -16 16 -63 13 -81 -5 -20 -20
-20 -47 0 -89 25 -54 55 -56 76 -7 11 26 12 24 19 -27 4 -29 15 -73 24 -98 20
-53 12 -79 -36 -107 -27 -16 -32 -16 -54 -2 -13 9 -50 48 -82 88 -56 69 -58
74 -57 127 1 43 17 97 68 232 36 97 66 181 66 186 0 5 11 16 25 23 26 14 58
71 53 97 -9 45 -137 86 -151 48z m370 -358 c19 -10 14 -12 -40 -12 -43 -1 -76
-8 -106 -23 -49 -24 -61 -24 -34 1 50 45 133 60 180 34z m57 -59 l38 -33 -22
-27 c-11 -15 -34 -37 -50 -48 -30 -21 -162 -72 -169 -65 -2 2 4 12 13 21 26
26 13 39 -37 39 -40 0 -47 3 -47 20 1 76 70 122 186 124 43 1 56 -4 88 -31z
m36 2 c0 -15 -5 -12 -26 11 -19 22 -19 22 4 10 12 -6 22 -16 22 -21z m-345
-66 c10 -10 13 -24 9 -38 -15 -48 -24 -66 -33 -66 -9 0 -33 34 -44 63 -4 11 1
25 13 37 24 24 34 25 55 4z m355 -29 c0 -40 -49 -226 -66 -253 -12 -19 -21
-22 -42 -17 -71 17 -132 81 -132 138 0 24 -3 28 -12 19 -19 -19 -25 -15 -42
29 -19 46 -15 59 19 59 30 0 39 -14 20 -30 -21 -18 -18 -40 5 -40 58 0 214 73
227 105 9 24 23 17 23 -10z m954 -490 l6 -50 -15 55 c-16 63 -18 81 -6 60 5
-8 12 -37 15 -65z m-66 -60 c0 -38 -1 -39 -8 -10 -4 17 -8 46 -8 65 0 32 1 33
8 10 4 -14 8 -43 8 -65z m-1278 -290 c6 -33 14 -69 16 -80 4 -16 3 -17 -4 -5
-6 8 -15 42 -22 75 -6 33 -14 69 -16 80 -4 16 -3 17 4 5 6 -8 15 -42 22 -75z"/>
</g>
</svg>
