 <svg  version="1.0" xmlns="http://www.w3.org/2000/svg"  width="300.000000pt" height="300.000000pt" viewBox="0 0 300.000000 300.000000"  preserveAspectRatio="xMidYMid meet">  <g transform="translate(0.000000,300.000000) scale(0.100000,-0.100000)" fill="#333333" stroke="none"> <path d="M1497 2390 c-12 -18 -15 -18 -20 -5 -10 23 -41 18 -69 -12 -36 -39 -44 -58 -72 -164 -13 -52 -40 -126 -60 -164 -41 -79 -45 -119 -16 -150 l19 -21 -67 4 c-58 3 -72 0 -102 -20 -71 -48 -100 -140 -119 -380 -11 -133 -8 -204 11 -241 17 -33 28 -6 28 70 0 119 7 82 13 -62 5 -142 19 -194 59 -217 17 -10 104 -14 363 -16 400 -4 413 -2 430 66 12 52 26 62 85 62 56 0 85 -19 100 -65 16 -49 4 -91 -41 -140 -49 -53 -106 -78 -250 -109 -63 -13 -126 -27 -140 -31 -18 -4 -31 -1 -42 10 -38 37 -319 160 -423 184 -75 18 -112 44 -134 96 -22 52 -47 65 -121 65 -72 0 -118 -29 -119 -75 0 -36 51 -101 109 -140 122 -80 380 -182 486 -192 54 -5 126 4 195 23 l24 7 -21 -27 c-20 -25 -22 -56 -4 -56 13 0 31 24 31 41 0 21 19 28 108 37 95 11 126 0 164 -53 29 -41 68 -61 68 -34 0 16 -20 51 -43 77 -42 46 26 46 114 1 35 -17 49 -36 49 -64 0 -37 -145 -44 -385 -20 -176 17 -282 38 -464 91 -94 27 -187 31 -217 10 -14 -11 -19 -26 -19 -60 0 -81 40 -86 63 -7 20 64 33 69 115 41 46 -16 72 -30 72 -40 0 -27 -90 -63 -169 -67 -70 -5 -73 -4 -181 50 -208 104 -247 103 -412 -10 -116 -79 -166 -90 -247 -54 -48 21 -138 81 -202 135 -35 29 -58 30 -34 1 25 -30 219 -154 257 -164 87 -24 129 -12 245 72 139 99 187 101 366 11 114 -57 119 -58 197 -58 65 0 91 5 138 26 68 32 80 53 46 81 -20 17 -20 19 -4 13 57 -22 262 -67 374 -81 69 -10 194 -18 276 -18 131 -2 154 0 179 16 21 14 27 25 23 42 -4 23 -3 23 24 -6 15 -16 34 -29 43 -29 9 0 54 20 99 45 113 61 140 60 236 -5 41 -27 83 -50 93 -50 11 0 49 16 84 36 57 32 72 36 118 32 30 -2 81 -18 121 -36 37 -18 70 -30 73 -27 10 10 -13 24 -90 54 -102 41 -144 40 -224 -4 -34 -19 -71 -35 -82 -35 -11 0 -41 15 -65 34 -108 82 -158 85 -276 17 -86 -50 -105 -49 -141 9 -16 27 -41 50 -72 66 -27 13 -48 28 -48 33 0 4 25 25 55 45 124 82 130 223 11 277 -23 10 -53 19 -68 19 -40 0 -68 32 -68 78 0 20 7 88 16 150 20 137 16 150 -52 171 -47 16 -49 18 -58 64 -7 35 -6 54 2 68 21 33 13 73 -24 129 -75 115 -84 143 -84 275 0 95 -4 128 -19 160 -23 49 -74 99 -123 119 -50 21 -74 20 -91 -4z m108 -24 c86 -51 123 -151 110 -298 -7 -86 -7 -87 77 -225 38 -62 48 -87 43 -104 -7 -20 -10 -16 -28 31 -14 39 -38 72 -83 117 -35 34 -64 66 -64 71 0 5 10 31 21 57 24 55 29 136 10 159 -21 25 -29 19 -41 -26 -24 -92 -35 -114 -82 -164 -61 -65 -62 -93 -4 -109 69 -20 81 -59 46 -160 -39 -113 -19 -155 73 -155 59 0 77 12 77 50 0 15 11 36 25 50 l24 23 7 -42 c7 -46 41 -81 78 -81 34 0 46 -20 45 -75 l-1 -50 -8 48 c-5 27 -12 52 -15 55 -4 4 -190 6 -415 5 -419 -1 -450 -4 -450 -41 0 -9 -7 -35 -15 -57 -8 -22 -14 -76 -15 -120 0 -64 -3 -76 -12 -61 -14 25 -4 233 17 365 19 113 41 167 84 204 46 38 130 38 204 0 46 -25 63 -28 143 -28 93 0 124 11 124 42 0 12 -16 13 -92 7 -102 -7 -159 3 -202 37 -36 28 -34 64 8 148 19 37 44 105 55 149 29 113 54 165 85 182 24 12 28 12 36 0 22 -34 11 -78 -31 -127 -60 -69 -71 -101 -63 -182 6 -63 4 -71 -21 -109 -18 -27 -25 -48 -20 -59 6 -16 9 -15 31 10 13 15 24 39 24 53 0 33 11 30 38 -11 32 -51 63 -48 93 9 13 25 32 47 42 50 16 4 18 11 12 60 l-7 55 36 15 c34 14 36 18 36 58 -1 54 -14 72 -73 97 -49 21 -72 50 -62 81 9 28 49 26 100 -4z m18 -155 c11 -44 3 -61 -27 -61 -34 0 -49 -30 -40 -85 5 -35 3 -45 -8 -45 -8 0 -24 -20 -36 -45 -12 -25 -28 -45 -35 -45 -8 0 -27 17 -44 38 -23 28 -33 54 -38 95 -10 76 -3 98 50 157 25 28 45 59 45 69 0 16 7 15 62 -13 52 -26 63 -36 71 -65z m67 -101 c0 -19 -11 -59 -25 -89 -14 -30 -23 -62 -20 -72 4 -10 35 -47 69 -81 41 -41 69 -79 81 -110 l17 -47 -36 -34 c-26 -25 -36 -43 -36 -65 0 -28 -4 -32 -37 -38 -48 -9 -87 12 -91 49 -2 16 6 56 17 90 37 109 22 155 -59 177 -22 6 -40 15 -40 19 0 5 22 32 49 60 48 50 81 118 81 166 0 12 3 25 7 28 11 12 23 -16 23 -53z m-200 -272 c60 10 81 9 68 -3 -3 -3 -32 -10 -66 -16 -49 -9 -71 -8 -116 5 -73 22 -81 37 -8 18 46 -12 70 -13 122 -4z m415 -398 c-1 -110 -33 -309 -54 -334 -38 -44 -73 -50 -331 -54 -250 -4 -386 6 -402 30 -5 7 -7 88 -4 190 6 153 4 178 -10 192 -8 9 -22 16 -30 16 -18 0 -18 14 -1 28 18 15 114 18 502 18 l330 -1 0 -85z m-813 -156 c-2 -98 1 -181 7 -196 15 -39 57 -47 301 -54 229 -7 378 4 432 32 38 20 56 64 69 167 6 45 12 84 15 86 2 2 4 -23 4 -57 0 -68 15 -91 58 -93 19 -1 13 -4 -17 -10 -54 -10 -71 -26 -80 -70 -13 -62 -25 -64 -401 -63 -375 0 -386 2 -407 64 -7 21 -12 101 -12 203 -1 155 0 168 17 165 15 -3 17 -18 14 -174z m997 -152 c36 -24 54 -75 41 -121 -13 -49 -40 -83 -96 -122 -55 -37 -56 -65 -5 -91 19 -10 44 -27 55 -39 l21 -22 -32 22 c-67 46 -168 66 -179 36 -3 -8 8 -32 25 -54 17 -21 31 -45 31 -51 0 -7 -13 6 -30 28 -48 67 -69 76 -158 68 -42 -3 -90 -9 -107 -13 -16 -3 -28 -3 -25 0 3 3 66 18 140 32 157 31 222 57 278 113 75 75 75 170 2 220 -28 20 -30 23 -10 17 14 -4 36 -15 49 -23z m-1082 -17 c11 -8 27 -30 33 -50 13 -40 62 -70 160 -99 117 -35 379 -150 394 -174 8 -13 -86 -32 -159 -32 -157 0 -537 175 -590 272 -16 30 -17 40 -7 62 20 44 114 56 169 21z m59 -367 c-7 -13 -17 -36 -20 -51 -9 -36 -26 -25 -26 17 0 36 15 56 42 56 17 0 17 -2 4 -22z"/> </g> </svg> 