 <svg  version="1.0" xmlns="http://www.w3.org/2000/svg"  width="300.000000pt" height="300.000000pt" viewBox="0 0 300.000000 300.000000"  preserveAspectRatio="xMidYMid meet">  <g transform="translate(0.000000,300.000000) scale(0.100000,-0.100000)" fill="#333333" stroke="none"> <path d="M2085 2562 c-18 -5 10 -8 75 -8 58 0 128 -3 155 -7 41 -5 44 -4 20 4 -39 12 -211 20 -250 11z"/> <path d="M1986 2535 c-138 -56 -225 -203 -197 -329 18 -79 59 -121 167 -173 124 -59 133 -54 11 6 -109 54 -139 83 -163 154 -41 124 50 285 190 332 31 11 56 23 56 27 0 10 4 11 -64 -17z"/> <path d="M2470 2504 c57 -19 113 -42 122 -51 10 -9 21 -14 24 -10 3 3 -6 13 -20 22 -29 19 -191 75 -215 75 -9 -1 31 -17 89 -36z"/> <path d="M910 2501 c8 -5 44 -11 80 -14 136 -12 251 -80 301 -180 35 -67 24 -161 -24 -204 -31 -29 -94 -59 -142 -68 -22 -4 -34 -10 -28 -12 24 -9 118 27 157 58 43 36 76 98 76 144 0 105 -134 231 -280 264 -63 14 -158 22 -140 12z"/> <path d="M753 2493 c-13 -2 -23 -9 -23 -14 0 -6 5 -7 10 -4 6 3 38 10 73 14 61 8 62 8 12 8 -27 0 -60 -2 -72 -4z"/> <path d="M624 2445 c-75 -37 -116 -81 -139 -146 -21 -59 -19 -118 8 -169 36 -71 56 -81 246 -114 89 -16 120 -34 141 -87 16 -37 30 -28 30 19 -1 34 -2 35 -14 19 -14 -17 -15 -17 -28 1 -23 33 -65 53 -130 62 -165 24 -182 30 -224 85 -32 42 -42 114 -25 168 27 81 84 134 191 178 25 10 38 18 29 19 -9 0 -47 -16 -85 -35z"/> <path d="M2630 2436 c0 -1 27 -25 61 -51 33 -26 76 -72 96 -101 42 -64 54 -71 21 -13 -33 59 -178 193 -178 165z"/> <path d="M2845 2096 c0 -35 -6 -76 -15 -92 -20 -41 -73 -91 -117 -111 -53 -24 -244 -24 -332 0 -35 10 -65 16 -68 13 -2 -2 39 -14 91 -26 271 -63 455 27 456 223 0 31 -3 57 -7 57 -5 0 -8 -29 -8 -64z"/> <path d="M995 2020 l-80 -6 83 -2 c49 -1 82 2 82 8 0 6 -1 9 -2 8 -2 -1 -39 -5 -83 -8z"/> <path d="M2112 1961 c26 -16 52 -39 58 -51 6 -12 14 -19 17 -16 12 12 -85 96 -110 96 -6 0 10 -13 35 -29z"/> <path d="M2240 1870 c-15 -36 -26 -38 -33 -8 -4 12 -9 20 -12 16 -3 -3 -1 -17 5 -32 5 -15 10 -39 11 -54 0 -20 7 -11 25 37 25 63 28 99 4 41z"/> <path d="M931 1839 c-147 -16 -170 -43 -128 -148 l25 -63 -24 6 c-36 9 -59 -30 -45 -79 11 -41 37 -75 57 -75 8 0 21 -24 29 -55 13 -44 14 -62 5 -90 -12 -37 -18 -40 -100 -50 -127 -16 -207 -68 -283 -183 -99 -148 -156 -341 -164 -552 -7 -171 8 -233 70 -296 52 -51 94 -64 213 -64 292 0 528 133 418 235 -39 37 -107 36 -224 -1 -146 -45 -189 -40 -222 26 -13 26 -18 59 -18 126 0 162 62 351 147 445 66 73 118 85 220 49 64 -22 105 -25 134 -10 16 9 28 5 62 -17 39 -27 42 -32 45 -79 2 -28 -6 -105 -18 -171 -11 -66 -20 -150 -20 -187 0 -67 20 -136 39 -136 13 0 14 17 2 24 -5 3 -14 27 -21 53 -10 41 -8 74 16 239 32 220 29 241 -37 275 l-38 19 24 36 c51 75 21 160 -40 112 -23 -18 -26 -26 -22 -62 2 -23 8 -51 12 -63 6 -19 2 -25 -21 -33 -22 -9 -43 -6 -106 15 -44 14 -91 25 -106 25 -95 -1 -188 -106 -247 -281 -68 -199 -54 -419 28 -445 38 -12 98 -5 187 23 105 32 179 36 209 9 23 -21 27 -56 11 -86 -32 -61 -232 -121 -405 -123 -99 -1 -115 1 -160 23 -91 45 -120 117 -118 290 2 246 96 519 223 647 56 58 123 89 220 102 57 8 79 15 93 32 21 27 22 97 2 146 -11 25 -12 40 -5 47 5 5 10 19 11 31 0 11 15 -23 34 -75 26 -75 42 -102 73 -132 47 -44 97 -56 138 -35 26 14 30 13 75 -20 60 -43 77 -85 89 -222 5 -58 14 -164 20 -234 18 -204 56 -293 133 -312 32 -8 77 16 77 43 0 9 -25 78 -55 152 -30 74 -55 136 -55 138 0 7 195 1 241 -8 110 -21 116 -27 191 -200 37 -85 67 -160 68 -166 0 -7 -16 -14 -35 -16 -33 -4 -37 -1 -58 36 -35 63 -68 81 -144 81 -59 0 -67 -3 -89 -28 -28 -33 -25 -61 8 -89 17 -15 40 -18 128 -18 l108 0 16 -39 c21 -53 71 -108 105 -116 16 -3 41 -19 57 -36 42 -44 118 -64 249 -64 152 0 213 20 281 89 87 89 171 329 181 517 8 149 -17 184 -152 204 l-50 7 50 23 c28 12 63 36 78 54 39 46 36 85 -12 152 -55 77 -76 123 -110 237 -37 123 -50 150 -95 190 -60 52 -171 61 -254 20 -53 -26 -105 -94 -123 -160 -16 -62 1 -68 54 -19 53 49 92 59 135 37 49 -26 67 -68 66 -161 0 -133 -46 -230 -122 -262 -19 -8 -36 -13 -38 -11 -2 2 1 21 7 42 13 48 4 104 -22 132 -18 19 -18 23 -4 52 10 18 15 49 13 74 -3 38 -6 43 -30 46 -37 4 -59 -32 -65 -111 -7 -81 12 -169 43 -207 l25 -29 -59 -30 c-68 -34 -105 -74 -140 -150 -26 -56 -43 -181 -25 -181 6 0 12 30 15 68 5 68 28 127 74 188 27 35 131 89 187 97 81 12 137 91 157 222 22 149 -31 250 -132 250 -31 0 -45 -8 -83 -45 -28 -28 -45 -38 -45 -29 0 30 62 139 90 159 64 45 182 50 248 10 43 -27 67 -68 98 -170 41 -136 56 -171 102 -239 57 -83 63 -100 47 -138 -14 -34 -81 -79 -132 -89 -25 -5 -34 -1 -58 27 -15 18 -39 57 -53 86 -37 74 -52 70 -88 -24 l-30 -78 -34 4 c-19 3 -57 5 -85 5 -45 1 -50 -1 -53 -22 -3 -18 4 -26 32 -37 47 -20 64 -19 111 5 23 12 47 17 60 13 11 -3 58 -7 105 -8 99 -2 226 -29 252 -52 10 -9 23 -35 29 -57 30 -112 -73 -485 -165 -593 -15 -18 -53 -45 -84 -60 -54 -26 -65 -28 -187 -28 -137 0 -194 11 -238 45 l-25 20 35 35 c33 33 35 39 30 81 -5 45 -29 84 -53 84 -7 0 -23 -10 -34 -22 -19 -20 -21 -32 -18 -85 2 -35 0 -63 -4 -63 -21 0 -61 36 -83 75 -32 53 -31 65 3 65 15 0 34 5 42 10 17 10 14 18 -59 190 -80 186 -86 192 -204 215 -87 17 -253 20 -261 6 -4 -5 19 -73 50 -151 30 -77 54 -149 52 -158 -4 -23 -53 -27 -83 -8 -54 36 -79 131 -95 371 -12 188 -25 277 -46 317 -8 16 -37 44 -64 64 l-49 35 19 32 c24 40 70 227 70 283 0 47 -19 78 -45 73 -43 -9 -84 -145 -62 -205 6 -18 3 -23 -18 -28 -22 -6 -25 -12 -25 -49 0 -25 8 -56 21 -76 25 -41 13 -54 -44 -47 -77 9 -104 41 -156 189 l-37 102 32 -3 c34 -4 45 11 79 116 l17 53 98 -6 c104 -8 140 1 140 34 0 60 -102 80 -299 60z m245 -24 c25 -10 34 -20 32 -32 -3 -16 -16 -18 -110 -18 -59 0 -111 -4 -116 -10 -5 -5 -19 -40 -31 -77 -26 -79 -42 -95 -75 -80 -15 7 -32 32 -50 76 -32 82 -33 113 -3 126 64 29 297 39 353 15z m34 -185 c0 -89 -57 -300 -80 -300 -13 0 -27 29 -35 73 -7 35 -6 38 25 48 26 10 30 15 25 33 -21 65 -8 144 31 187 24 27 34 14 34 -41z m-375 -35 c14 -13 25 -30 24 -37 0 -10 -2 -10 -6 0 -2 6 -14 12 -25 12 -18 0 -20 -4 -14 -40 8 -48 2 -50 -24 -7 -45 74 -11 129 45 72z m7 -87 c-9 -9 -12 -4 -11 23 0 32 1 33 11 11 8 -17 8 -26 0 -34z m1258 -103 c13 -16 6 -63 -16 -106 -12 -24 -11 -29 12 -55 23 -24 26 -34 22 -81 -3 -29 -8 -56 -12 -60 -11 -12 -44 33 -56 75 -15 54 -12 167 4 207 16 38 27 43 46 20z m-995 -195 c3 -11 -3 -40 -15 -67 -24 -55 -40 -46 -40 23 0 57 40 90 55 44z m1263 -103 c11 -24 34 -60 52 -80 l32 -37 -45 0 c-24 0 -65 3 -90 6 l-46 7 18 36 c10 20 24 53 30 74 7 20 16 37 21 37 5 0 18 -19 28 -43z m-148 -106 l25 -7 -22 -12 c-12 -7 -33 -12 -47 -12 -29 0 -76 19 -76 32 0 10 84 9 120 -1z m-490 -476 c25 -13 70 -70 70 -90 0 -4 -45 -5 -101 -3 -84 4 -104 8 -121 25 -24 25 -17 60 15 73 35 14 105 11 137 -5z m290 -114 c19 -36 12 -90 -16 -118 -34 -34 -47 -20 -48 50 -1 76 38 116 64 68z"/> </g> </svg> 