<?xml version="1.0" standalone="no"?>
<!DOCTYPE svg PUBLIC "-//W3C//DTD SVG 20010904//EN"
 "http://www.w3.org/TR/2001/REC-SVG-20010904/DTD/svg10.dtd">
<svg version="1.0" xmlns="http://www.w3.org/2000/svg"
 width="300.000000pt" height="228.000000pt" viewBox="0 0 300.000000 228.000000"
 preserveAspectRatio="xMidYMid meet">
<metadata>
Created by potrace 1.10, written by Peter Selinger 2001-2011
</metadata>
<g transform="translate(0.000000,228.000000) scale(0.100000,-0.100000)"
fill="#333333" stroke="none">
<path d="M2076 1600 c-127 -33 -237 -66 -247 -76 -28 -25 -229 -542 -229 -588
0 -9 3 -16 8 -16 4 0 72 -11 150 -25 135 -24 222 -53 222 -75 0 -14 -11 -12
-31 6 -26 23 -286 73 -414 80 -60 3 -177 2 -259 -3 l-149 -9 -44 -48 c-71 -75
-72 -75 271 -68 195 3 295 1 299 -5 5 -7 -115 -13 -365 -18 -352 -7 -372 -7
-385 11 -17 23 -10 28 56 42 58 13 137 65 171 112 17 24 25 28 54 23 34 -5 82
13 105 41 12 14 16 14 42 1 32 -17 69 -20 69 -5 0 5 -19 24 -42 41 -24 17 -42
37 -40 46 4 20 -23 60 -47 68 -11 3 -18 12 -15 19 3 7 -2 19 -11 26 -8 7 -15
25 -15 40 0 15 -7 33 -15 40 -17 14 -55 4 -55 -15 0 -11 -9 -10 -44 6 -49 21
-71 18 -102 -18 l-21 -24 -91 39 c-64 28 -94 36 -101 29 -14 -14 -14 -27 0
-27 10 0 149 -58 158 -66 9 -8 -105 -125 -144 -147 -39 -22 -46 -23 -56 -10
-9 10 -23 13 -43 9 -17 -3 -66 -10 -110 -16 -44 -5 -85 -15 -95 -24 -14 -13
-24 -14 -56 -5 -21 6 -61 8 -88 5 -55 -8 -127 -34 -127 -46 0 -14 82 -22 177
-18 l88 3 0 -54 c0 -46 4 -56 27 -74 22 -16 42 -20 115 -20 56 0 79 -2 63 -7
-14 -5 -58 -8 -98 -9 -92 -1 -112 -11 -112 -56 0 -47 -20 -58 -196 -112 -152
-46 -224 -76 -224 -94 0 -6 15 -2 33 9 17 11 106 43 197 72 179 55 210 74 210
125 l0 32 90 6 c49 3 104 12 122 21 18 8 59 18 90 21 54 7 56 6 60 -16 6 -45
35 -49 278 -44 124 3 289 7 368 10 l143 5 -16 -31 c-36 -68 -167 -88 -320 -49
-43 11 -93 20 -110 20 -43 0 -98 -38 -109 -76 -7 -22 -19 -35 -43 -43 -58 -21
-84 -91 -34 -91 11 0 80 -14 153 -31 73 -17 183 -41 245 -54 129 -27 156 -24
271 31 64 31 72 38 72 63 l0 29 -62 -34 c-103 -55 -144 -59 -288 -29 -225 46
-300 66 -300 80 0 7 27 24 60 39 70 30 72 29 380 -25 194 -34 200 -35 180 -15
-22 20 -107 45 -218 65 l-97 17 72 7 c102 8 166 44 178 98 l6 28 142 3 c139 3
142 4 145 26 4 27 6 27 41 1 23 -17 48 -22 129 -26 117 -7 122 -3 97 67 -18
51 -45 208 -45 263 l0 37 98 -6 c78 -5 105 -3 136 10 22 9 41 14 43 12 2 -2 0
-21 -5 -42 -5 -22 -10 -73 -11 -114 -1 -41 -8 -94 -16 -118 -8 -23 -15 -49
-15 -57 0 -11 -13 -15 -52 -15 -65 0 -100 -9 -95 -24 2 -7 27 -10 68 -8 35 2
170 6 299 10 129 4 228 10 220 14 -8 5 -107 9 -220 10 l-206 3 9 43 c6 32 13
42 28 42 15 0 28 17 49 63 45 94 35 148 -24 133 -23 -6 -24 -4 -19 32 8 66 -8
76 -134 80 -120 4 -174 -8 -153 -33 10 -12 10 -15 0 -15 -10 0 -12 -24 -7
-107 5 -95 12 -131 43 -242 l7 -23 -102 4 c-85 3 -104 7 -121 24 l-21 20 49
110 c98 217 292 698 292 724 0 16 -22 12 -264 -50z m244 34 c0 -22 -310 -777
-325 -793 -2 -1 -28 9 -57 23 -42 20 -256 66 -310 66 -18 0 -4 52 56 213 97
258 142 360 164 375 19 13 419 120 455 121 9 1 17 -2 17 -5z m-1110 -407 c0
-13 7 -33 16 -45 17 -25 7 -29 -22 -7 -24 18 -38 19 -28 3 5 -9 3 -9 -9 1 -9
7 -14 17 -12 22 6 8 -25 29 -43 29 -23 0 61 -72 100 -86 60 -21 88 -41 88 -64
0 -18 -4 -17 -47 10 -27 16 -61 32 -77 36 -27 6 -28 6 -17 -17 l12 -24 -20 24
c-12 13 -21 30 -21 37 0 16 -21 56 -34 65 -4 4 -17 4 -27 2 -25 -7 -146 -136
-165 -176 -14 -29 -19 -32 -65 -33 -58 -1 -62 7 -14 25 37 13 145 126 145 152
0 9 -22 24 -56 38 -30 13 -53 25 -51 27 2 2 29 -7 61 -21 70 -31 81 -31 102 0
21 32 53 32 122 0 48 -22 74 -19 35 4 -15 9 -16 12 -3 20 19 13 30 5 30 -22z
m-115 -47 c-4 -14 -2 -20 9 -20 9 0 13 -6 10 -14 -3 -8 6 -27 20 -42 19 -21
23 -32 15 -45 -5 -10 -9 -31 -9 -47 0 -20 -10 -40 -32 -61 -43 -42 -200 -123
-268 -138 -74 -16 -72 -16 -59 8 6 13 10 52 7 96 l-3 74 52 -2 53 -3 31 50
c64 102 195 211 174 144z m1367 -18 c9 -9 -16 -12 -114 -12 -70 0 -129 4 -133
9 -8 14 38 19 142 17 57 -1 98 -7 105 -14z m-194 -29 c-10 -2 -26 -2 -35 0
-10 3 -2 5 17 5 19 0 27 -2 18 -5z m100 -10 c-10 -2 -28 -2 -40 0 -13 2 -5 4
17 4 22 1 32 -1 23 -4z m-1148 -29 l25 -15 -25 7 c-14 3 -29 10 -34 15 -16 14
6 10 34 -7z m16 -25 c36 -11 69 -43 59 -59 -5 -8 -11 -8 -21 1 -29 24 -87 -6
-148 -75 -58 -67 -138 -116 -185 -116 -19 1 -3 12 59 45 94 49 163 113 159
148 -1 12 1 35 6 50 5 21 12 26 24 22 9 -4 30 -11 47 -16z m1297 -14 c11 -10
13 -24 8 -47 -9 -36 -50 -122 -56 -116 -3 2 7 26 20 53 24 47 32 95 18 108 -3
4 -18 0 -32 -10 l-26 -16 19 21 c23 26 30 27 49 7z m-18 -47 c-11 -49 -22 -75
-36 -84 -16 -10 -6 80 11 101 21 25 32 17 25 -17z m-1761 -1 c22 -33 31 -127
16 -171 l-12 -36 -91 0 c-123 0 -142 10 -143 76 -2 77 -3 78 -113 72 -53 -3
-107 -2 -121 2 -24 6 -23 7 15 18 48 14 154 15 175 2 10 -6 21 -4 35 9 13 13
44 21 94 25 40 4 83 11 95 16 31 13 34 12 50 -13z m598 2 c16 -12 27 -23 25
-26 -8 -7 -67 26 -67 37 0 15 9 12 42 -11z m-87 -9 c6 -10 -21 -24 -73 -37
-24 -6 -26 -5 -13 10 7 10 28 21 45 26 17 5 32 10 33 10 1 1 5 -4 8 -9z m481
-135 c242 -45 269 -65 85 -65 -130 0 -151 -4 -151 -29 -1 -14 -2 -14 -11 2 -9
16 -35 17 -309 17 -165 0 -300 4 -300 8 0 4 15 23 34 42 42 43 63 46 322 48
165 2 209 -1 330 -23z m224 -85 c0 -6 -33 -10 -79 -10 -43 0 -106 -3 -140 -6
-41 -5 -61 -3 -61 4 0 11 41 14 218 20 36 1 62 -2 62 -8z m393 -17 c-13 -2
-33 -2 -45 0 -13 2 -3 4 22 4 25 0 35 -2 23 -4z m-1199 -115 c-5 -8 -2 -9 12
-3 37 16 91 17 144 1 30 -9 67 -16 83 -16 17 0 28 -3 24 -6 -3 -4 -48 -1 -99
5 -80 10 -99 10 -130 -4 -47 -19 -49 -19 -42 3 5 14 3 14 -10 -2 -31 -39 -19
-46 37 -22 48 21 59 22 142 14 99 -10 318 -51 356 -68 22 -10 22 -10 2 -6 -12
2 -112 19 -222 37 -170 28 -205 31 -238 21 -58 -18 -103 -49 -103 -71 0 -24 4
-25 240 -77 194 -42 237 -42 334 4 80 37 85 38 61 12 -23 -25 -164 -80 -206
-80 -26 0 -127 21 -497 105 -35 8 -23 37 25 60 24 11 42 27 43 36 0 9 9 28 21
43 21 26 36 36 23 14z"/>
</g>
</svg>
