 <svg  version="1.0" xmlns="http://www.w3.org/2000/svg"  width="300.000000pt" height="210.000000pt" viewBox="0 0 300.000000 210.000000"  preserveAspectRatio="xMidYMid meet">  <g transform="translate(0.000000,210.000000) scale(0.100000,-0.100000)" fill="#333333" stroke="none"> <path d="M995 2031 c-105 -49 -159 -136 -159 -256 -1 -85 30 -156 100 -234 57 -64 74 -105 74 -185 0 -93 5 -96 153 -97 139 -1 195 -12 107 -22 -30 -4 -88 -9 -127 -13 -72 -6 -94 -19 -50 -28 12 -3 51 -11 87 -19 l65 -15 -72 -1 c-39 0 -84 -6 -100 -12 -27 -10 -27 -11 -9 -25 13 -9 47 -14 100 -14 79 0 129 -13 96 -24 -8 -3 -59 -6 -112 -8 -74 -2 -99 0 -103 10 -3 8 -5 43 -5 78 0 39 -4 64 -11 64 -7 0 -9 -24 -4 -77 7 -79 17 -103 40 -103 8 0 27 -8 43 -17 25 -14 31 -25 36 -68 10 -83 7 -112 -10 -119 -39 -15 -88 -5 -144 30 l-58 36 -58 -17 c-81 -23 -112 -59 -152 -176 -40 -118 -75 -290 -66 -335 l6 -34 -306 0 c-197 0 -306 -4 -306 -10 0 -6 109 -10 308 -10 l309 0 24 -26 24 -27 200 7 c110 3 211 9 225 12 17 5 22 4 15 -4 -5 -6 -26 -14 -45 -19 -51 -13 -50 -37 5 -72 89 -56 264 -111 355 -111 34 0 90 25 90 40 0 22 289 90 491 115 68 8 129 21 136 28 7 7 20 49 27 92 24 132 56 254 97 363 22 57 37 107 35 111 -3 4 -41 2 -86 -5 -108 -17 -389 -36 -475 -32 l-69 3 -8 -30 c-5 -16 -14 -57 -21 -90 l-13 -60 -62 79 c-34 43 -62 87 -62 97 0 22 -46 56 -119 85 -71 30 -91 30 -181 -1 -40 -14 -75 -23 -77 -21 -2 2 -7 35 -10 74 l-6 71 29 -2 c20 -1 29 3 29 13 0 11 -12 15 -47 15 -26 1 -50 4 -54 8 -4 4 27 7 69 7 41 0 83 3 92 6 27 11 57 84 63 152 4 55 2 66 -17 86 -12 12 -18 26 -14 30 5 4 10 47 13 94 5 77 9 92 38 134 62 90 82 146 82 228 0 94 -21 141 -85 198 -98 86 -245 108 -360 53z m218 4 c109 -28 176 -88 203 -183 23 -76 9 -164 -37 -236 -67 -104 -80 -137 -73 -182 7 -49 -3 -104 -19 -104 -6 0 -37 12 -70 27 -54 25 -58 29 -50 53 7 23 7 52 2 152 -2 47 15 68 55 68 17 0 38 5 46 10 19 12 3 30 -43 47 -32 11 -32 11 21 12 58 1 71 17 20 25 -131 20 -233 14 -165 -10 18 -6 13 -8 -25 -11 -26 -2 -52 -11 -59 -20 -11 -13 -8 -20 26 -46 22 -18 54 -45 72 -62 30 -30 31 -33 22 -81 -5 -27 -9 -67 -8 -89 1 -22 -1 -52 -5 -67 -12 -40 23 -54 101 -40 48 8 61 8 76 -6 9 -8 17 -18 17 -21 0 -8 -264 4 -277 12 -6 4 -13 42 -16 85 -6 91 -12 107 -77 182 -61 71 -90 130 -97 195 -15 141 62 255 197 291 61 17 95 17 163 -1z m-10 -322 c-13 -2 -33 -2 -45 0 -13 2 -3 4 22 4 25 0 35 -2 23 -4z m44 -52 c13 -7 8 -11 -28 -18 -36 -7 -47 -15 -59 -40 l-15 -32 -60 54 -60 53 35 6 c85 14 132 9 187 -23z m-97 -248 c-9 -15 -10 -12 -6 16 3 18 7 45 8 60 1 14 3 7 5 -16 2 -24 -1 -51 -7 -60z m63 -70 l52 -28 -54 -3 c-73 -4 -84 1 -69 33 6 14 13 25 15 25 2 0 27 -12 56 -27z m111 -140 c-24 -107 -28 -115 -51 -92 -7 7 -56 14 -110 17 -82 5 -92 7 -58 13 22 4 70 8 108 8 37 1 67 5 67 11 0 10 -53 26 -126 37 -51 8 -44 9 164 32 9 1 10 -7 6 -26z m-76 -140 c-10 -2 -28 -2 -40 0 -13 2 -5 4 17 4 22 1 32 -1 23 -4z m-289 -182 c8 -5 15 -22 17 -38 1 -15 6 -61 10 -101 l7 -72 -49 25 c-56 29 -159 49 -183 35 -13 -7 -10 -10 14 -15 82 -17 170 -51 173 -66 2 -9 -22 -51 -53 -94 -57 -80 -65 -104 -41 -125 27 -21 120 -40 203 -40 80 0 112 -12 82 -31 -8 -5 -114 -9 -236 -9 l-223 0 -6 27 c-15 58 40 303 93 412 22 45 33 57 77 77 53 25 91 30 115 15z m288 -31 c-74 -45 -80 -47 -75 -23 2 9 28 26 63 39 85 33 88 29 12 -16z m141 8 c2 -19 -8 -43 -36 -80 -71 -95 -71 -92 -10 -148 52 -49 53 -50 38 -77 -15 -27 -20 -28 -105 -34 -50 -3 -91 -5 -92 -5 -1 1 -3 65 -5 142 l-3 142 25 10 c14 6 54 27 89 47 73 41 95 41 99 3z m88 -9 c29 -16 57 -36 60 -42 5 -8 3 -8 -7 1 -7 6 -19 12 -26 12 -21 0 -132 -174 -119 -187 3 -3 40 26 82 65 l76 71 35 -47 c20 -26 49 -61 65 -78 30 -32 31 -58 6 -106 -12 -25 -46 -9 -102 46 -42 42 -89 66 -103 52 -10 -10 17 -35 73 -69 49 -29 71 -53 60 -64 -8 -8 -361 -19 -381 -12 -11 5 20 8 72 8 87 1 93 2 112 27 32 41 27 67 -24 112 -25 22 -45 44 -45 48 0 5 23 41 51 79 35 49 49 76 46 92 -6 30 5 29 69 -8z m-438 -24 c27 -14 66 -26 86 -27 l36 -3 0 -141 0 -141 -97 -6 c-106 -6 -133 -12 -133 -32 0 -14 2 -14 95 -52 l60 -24 -65 5 c-74 6 -128 20 -154 39 -17 12 -13 20 44 105 38 55 60 98 56 107 -4 12 -2 13 13 6 10 -6 21 -7 25 -4 11 12 5 107 -9 148 -8 22 -15 41 -15 43 0 5 11 1 58 -23z m122 0 c0 -10 -10 -15 -32 -15 -34 0 -29 14 7 23 11 3 21 5 23 6 1 0 2 -6 2 -14z m1170 1 c0 -2 -15 -44 -34 -93 -36 -93 -77 -243 -96 -353 -6 -36 -13 -73 -16 -82 -6 -20 -20 -23 -179 -43 -128 -17 -302 -54 -374 -79 -24 -9 -47 -16 -51 -16 -6 0 15 106 28 140 3 8 7 24 8 35 1 11 18 78 38 150 19 72 43 169 53 218 l18 87 140 0 c142 0 341 15 405 30 42 10 60 11 60 6z m-802 -45 c-2 -3 -30 -31 -62 -61 l-59 -55 28 45 c57 92 66 102 81 89 8 -7 13 -15 12 -18z m5 -200 c8 -9 0 -8 -21 5 -19 10 -39 25 -45 33 -8 9 0 8 21 -5 19 -10 39 -25 45 -33z m105 -77 c2 -1 -4 -34 -14 -73 -18 -70 -18 -70 -39 -52 -23 22 -70 35 -180 51 -44 6 -88 14 -98 17 -14 3 -18 0 -15 -14 1 -10 -4 -33 -11 -51 -8 -18 -11 -36 -7 -39 3 -4 27 8 52 27 l46 33 -16 -31 c-17 -33 -25 -37 -101 -47 -48 -7 -49 -6 -33 12 21 23 31 64 20 81 -8 11 -20 11 -70 2 -57 -12 -65 -11 -137 15 -41 15 -78 32 -81 36 -5 9 30 15 134 24 60 5 75 3 89 -11 15 -15 32 -16 137 -10 65 3 153 6 194 6 66 0 74 2 79 20 4 16 11 19 27 14 11 -4 23 -8 24 -10z m-208 -94 c114 -20 162 -40 168 -72 4 -23 -24 -46 -63 -54 -30 -5 -40 -2 -70 25 -27 24 -45 31 -76 31 -39 0 -40 0 -25 22 37 53 9 63 -46 18 l-37 -30 17 40 c9 22 17 40 17 40 0 0 52 -9 115 -20z m-200 -20 c0 -11 -12 -33 -27 -50 l-28 -30 -210 -10 c-207 -11 -253 -8 -270 19 -4 8 58 11 204 11 230 0 266 7 258 47 -4 23 6 30 51 32 16 1 22 -5 22 -19z m175 -70 c14 0 38 -14 56 -31 32 -31 50 -33 102 -14 20 8 21 -3 6 -75 l-11 -50 -45 0 c-47 0 -315 56 -345 72 -36 18 -19 35 46 46 39 6 80 21 103 36 21 15 44 24 51 21 8 -3 24 -5 37 -5z m-130 -21 c-43 -20 -117 -27 -99 -9 11 11 83 28 119 28 13 0 5 -7 -20 -19z m-135 -60 c0 -13 11 -25 33 -34 49 -20 319 -77 344 -72 26 5 31 -8 7 -17 -31 -12 -117 -6 -195 14 -166 43 -310 130 -213 130 18 0 24 -5 24 -21z"/> </g> </svg> 