<?xml version="1.0" standalone="no"?>
<!DOCTYPE svg PUBLIC "-//W3C//DTD SVG 20010904//EN"
 "http://www.w3.org/TR/2001/REC-SVG-20010904/DTD/svg10.dtd">
<svg version="1.0" xmlns="http://www.w3.org/2000/svg"
 width="300.000000pt" height="200.000000pt" viewBox="0 0 300.000000 200.000000"
 preserveAspectRatio="xMidYMid meet">
<metadata>
Created by potrace 1.10, written by Peter Selinger 2001-2011
</metadata>
<g transform="translate(0.000000,200.000000) scale(0.100000,-0.100000)"
fill="#333333" stroke="none">
<path d="M1283 1675 c-17 -19 -16 -44 7 -148 19 -87 19 -90 1 -125 -20 -40
-131 -362 -131 -381 0 -29 19 -5 48 60 l32 72 37 -6 c64 -8 157 -39 144 -46
-15 -9 -41 -94 -41 -132 0 -25 6 -30 55 -45 30 -10 53 -19 51 -21 -2 -2 -73
16 -158 41 -176 52 -201 55 -222 25 -14 -21 -15 -20 -26 22 -17 68 -18 69 -42
69 -39 -1 -208 -36 -218 -46 -8 -8 32 -234 56 -320 5 -20 5 -20 -435 -16 -323
3 -441 2 -441 -7 0 -8 132 -11 487 -11 497 0 593 6 634 39 19 16 19 18 4 96
-21 113 -20 172 4 180 10 3 124 -24 252 -61 129 -36 283 -79 342 -94 l108 -29
11 27 c5 15 18 50 28 77 9 28 21 50 26 50 5 0 32 -6 61 -13 l51 -14 -24 -35
c-15 -22 -24 -50 -24 -73 0 -24 -5 -40 -15 -44 -9 -3 -15 -18 -15 -36 l0 -30
-62 8 c-35 4 -93 7 -130 7 -38 0 -68 3 -68 7 0 4 -50 23 -112 43 -91 30 -113
34 -124 23 -27 -29 -104 -285 -104 -347 l0 -31 78 0 c55 0 89 -6 121 -21 25
-11 97 -32 160 -47 l116 -27 600 5 c330 3 596 7 590 8 -5 1 -265 2 -577 2
-321 0 -568 3 -568 8 0 5 18 80 40 166 43 168 44 176 32 176 -5 0 -28 -70 -52
-154 -24 -85 -46 -160 -50 -167 -6 -8 -30 -6 -95 11 -73 20 -88 21 -95 10 -17
-27 -19 -4 -5 50 7 30 24 106 36 167 l22 113 51 -6 c28 -3 87 -6 131 -7 l80
-2 3 33 c4 38 12 40 38 11 44 -50 135 -63 192 -29 70 43 82 159 23 212 -41 37
-102 53 -147 38 -18 -6 -36 -15 -39 -20 -5 -8 -101 13 -113 24 -3 3 12 60 32
126 21 66 35 124 31 129 -3 6 24 50 60 98 82 111 85 135 18 156 -27 8 -145 45
-263 82 -222 69 -455 135 -474 135 -6 -1 -17 -7 -23 -15z m97 -15 c25 -6 145
-41 268 -77 194 -57 220 -67 205 -79 -10 -7 -24 -14 -32 -14 -11 0 -9 4 5 15
17 13 17 14 2 15 -9 0 -20 -4 -23 -10 -3 -5 -14 -10 -23 -9 -11 0 -9 4 8 11
16 7 20 12 12 15 -8 3 -19 0 -25 -6 -6 -6 -18 -11 -26 -11 -10 1 -7 6 9 15 24
14 24 14 3 15 -12 0 -25 -4 -28 -10 -3 -5 -14 -10 -23 -9 -11 0 -9 4 8 11 14
6 20 12 13 15 -7 2 -21 0 -32 -6 -11 -6 -26 -11 -33 -11 -7 1 1 7 17 16 32 15
33 15 -40 -2 -13 -3 -11 0 5 7 14 6 20 13 13 16 -7 2 -21 0 -32 -6 -11 -6 -26
-11 -33 -11 -7 1 1 7 17 16 25 12 26 13 5 8 -62 -14 -75 -14 -40 1 35 15 20
15 -40 0 -21 -5 -21 -4 5 10 27 14 27 15 5 10 -72 -15 -74 -15 -40 0 34 15 35
15 5 11 -16 -3 -39 -8 -50 -11 -17 -6 -18 -5 -5 5 12 9 8 11 -20 6 -21 -4 -30
-3 -22 3 15 9 -94 35 -109 25 -5 -3 -9 2 -9 10 0 9 1 16 3 16 1 0 34 -9 72
-20 38 -11 77 -20 85 -19 8 0 -23 11 -68 24 -46 13 -87 27 -90 30 -4 4 2 5 13
2 11 -3 40 -11 65 -17z m-63 -139 c17 -82 19 -85 53 -96 23 -8 30 -14 20 -17
-8 -3 -1 -4 15 -2 24 3 27 2 15 -7 -12 -8 -8 -9 15 -5 17 4 25 3 18 -2 -16
-10 202 -76 218 -66 8 5 9 3 4 -6 -6 -10 -3 -12 13 -8 12 4 20 3 17 -1 -6 -11
73 -33 87 -25 7 5 8 3 3 -6 -6 -10 -1 -11 21 -6 18 4 24 3 16 -2 -9 -6 5 -16
47 -31 34 -12 61 -25 61 -29 0 -4 -14 -52 -30 -106 -17 -55 -30 -110 -30 -122
0 -20 -46 -162 -56 -173 -2 -2 -61 12 -131 30 -80 21 -118 35 -101 37 28 3 50
42 63 114 l7 35 81 -23 c44 -13 85 -20 89 -16 12 12 68 183 68 208 0 19 -13
27 -77 52 -94 35 -297 102 -413 136 -48 14 -74 26 -60 26 l25 2 -25 7 c-21 6
-27 17 -41 81 -20 88 -34 184 -19 135 5 -16 17 -68 27 -114z m398 -11 c165
-44 306 -83 313 -85 8 -3 -6 -31 -42 -82 -43 -63 -58 -77 -76 -75 -24 4 -338
102 -480 150 l-85 29 -12 48 c-7 27 -15 67 -19 90 l-6 43 54 -18 c29 -10 188
-55 353 -100z m210 -10 c17 -7 17 -9 3 -9 -10 -1 -18 -5 -18 -11 0 -5 -8 -10
-17 -10 -15 0 -14 2 3 15 17 13 17 14 2 15 -9 0 -20 -4 -23 -10 -3 -5 -11 -10
-18 -10 -6 0 -2 7 9 15 22 16 31 17 59 5z m-639 -196 c-19 -59 -33 -110 -31
-113 8 -7 10 -1 41 99 30 95 30 95 62 93 63 -5 532 -166 532 -183 0 -25 -64
-200 -74 -200 -20 0 -148 39 -160 49 -12 11 -318 104 -373 114 -26 5 -37 2
-53 -15 -11 -12 -20 -26 -20 -32 0 -5 -2 -7 -5 -5 -2 3 15 61 39 130 58 164
66 183 72 177 3 -3 -11 -54 -30 -114z m773 84 c-13 -18 -43 -60 -68 -93 -24
-33 -45 -61 -47 -63 -1 -2 -17 4 -35 12 l-34 16 32 -6 c31 -5 34 -2 89 80 31
47 63 86 71 86 11 0 9 -8 -8 -32z m-514 -324 c50 -15 94 -30 99 -34 12 -12
-33 -140 -50 -140 -7 0 -57 14 -110 31 l-96 31 6 31 c16 80 27 107 44 107 9 0
58 -12 107 -26z m-625 -43 c-42 -13 -94 -22 -87 -15 8 8 66 22 92 22 15 0 14
-1 -5 -7z m151 -117 c17 -77 28 -110 31 -94 3 14 4 1 4 -27 -1 -52 -2 -53 -31
-53 -38 -1 -154 -25 -163 -35 -4 -4 35 -4 87 -1 52 3 92 4 89 1 -7 -7 -82 -17
-138 -19 l-45 -1 -31 155 c-18 85 -30 157 -28 159 6 6 177 40 189 37 6 -2 22
-56 36 -122z m1084 32 c18 -8 41 -26 51 -41 23 -36 22 -110 -4 -144 -23 -32
-84 -53 -127 -45 -31 5 -32 7 -17 23 11 10 28 15 47 13 20 -2 40 4 58 18 22
17 27 29 27 65 0 28 -6 50 -17 61 -17 17 -18 16 -23 -12 -4 -22 -10 -28 -25
-26 -65 11 -70 9 -69 -31 2 -44 -16 -45 -31 -3 -7 21 -5 35 7 57 10 16 13 29
8 29 -25 0 -39 -74 -21 -109 9 -15 6 -17 -20 -13 -35 5 -38 27 -9 89 l19 42
67 -6 c50 -5 65 -3 60 5 -4 7 -32 12 -64 12 -52 1 -55 2 -38 15 25 19 77 19
121 1z m-1057 -71 c0 -16 -2 -15 -8 5 -4 14 -8 34 -8 45 0 16 2 15 8 -5 4 -14
8 -34 8 -45z m1082 -42 c0 -43 -42 -77 -87 -70 -23 4 -33 1 -38 -11 -5 -14 -7
-14 -15 -2 -8 12 -10 12 -10 -4 0 -18 -1 -18 -20 -1 -28 26 -25 35 9 25 24 -6
33 -4 47 12 15 15 16 21 5 27 -20 13 -9 47 14 43 58 -10 70 -7 73 17 5 34 22
6 22 -36z m-615 -73 c52 -17 95 -35 95 -40 0 -5 -13 -70 -30 -143 -16 -74 -30
-144 -30 -155 0 -32 -14 -34 -66 -10 -36 16 -69 22 -122 22 l-74 0 7 44 c6 39
80 285 92 305 7 12 29 8 128 -23z m-451 -38 c2 -4 -13 -6 -35 -4 -21 2 -39 6
-39 8 0 7 69 4 74 -4z m626 -359 c9 -9 -65 9 -74 18 -5 4 8 3 30 -2 21 -6 41
-13 44 -16z"/>
</g>
</svg>
