 <svg  version="1.0" xmlns="http://www.w3.org/2000/svg"  width="300.000000pt" height="300.000000pt" viewBox="0 0 300.000000 300.000000"  preserveAspectRatio="xMidYMid meet">  <g transform="translate(0.000000,300.000000) scale(0.100000,-0.100000)" fill="#333333" stroke="none"> <path d="M1910 1998 c-62 -32 -83 -74 -76 -153 9 -98 22 -130 65 -158 26 -17 40 -35 44 -56 4 -19 17 -36 34 -45 20 -11 23 -15 11 -16 -20 0 -25 -17 -32 -115 -9 -137 -66 -311 -112 -341 -17 -12 -23 -11 -42 2 -19 13 -22 24 -22 80 0 63 3 71 70 188 39 68 70 133 70 145 0 14 -15 32 -45 53 -44 31 -55 51 -35 63 15 9 12 35 -4 35 -8 0 -24 -19 -36 -41 -18 -35 -22 -67 -29 -213 -5 -94 -15 -190 -22 -213 -11 -35 -11 -46 1 -68 18 -33 3 -79 -27 -83 -12 -2 -104 17 -205 42 -101 25 -192 46 -203 48 -15 3 -27 28 -58 133 -22 72 -52 172 -67 223 -16 52 -31 97 -35 100 -4 4 -19 8 -33 9 -26 1 -369 35 -502 49 -90 9 -97 -1 -66 -92 40 -118 127 -346 141 -374 8 -15 28 -33 45 -40 44 -18 32 -22 -15 -5 -31 11 -114 14 -382 15 -222 0 -343 -4 -343 -10 0 -6 123 -10 348 -10 l348 0 81 -30 c154 -56 398 -121 483 -130 62 -6 136 -3 278 11 192 18 217 23 207 39 -3 4 2 10 10 14 8 3 15 17 15 31 0 25 14 34 25 15 3 -5 16 -10 29 -10 12 0 28 -6 34 -12 10 -10 143 -14 580 -16 312 -2 565 -1 562 1 -3 3 -103 7 -223 9 -189 3 -216 5 -210 18 14 29 6 106 -21 190 -47 147 -125 336 -149 357 -31 29 -94 46 -158 42 -40 -3 -58 0 -70 12 -9 9 -22 18 -30 21 -10 3 -9 12 5 42 15 32 16 46 6 109 -13 86 -33 116 -91 139 -60 23 -97 22 -149 -4z m137 -9 c72 -27 101 -99 64 -160 -16 -26 -21 -51 -21 -102 0 -64 -2 -70 -32 -98 -51 -46 -84 -38 -105 26 -5 16 -23 36 -39 45 -39 22 -56 61 -61 139 -5 77 7 105 56 138 37 25 92 30 138 12z m68 -259 l-15 -65 4 66 c2 37 7 73 12 80 16 25 15 -12 -1 -81z m65 -147 c0 -60 -4 -77 -20 -93 -11 -11 -26 -20 -34 -20 -8 0 -22 -3 -31 -6 -14 -6 -12 3 9 44 20 40 26 66 26 117 l0 66 25 -18 c22 -16 24 -25 25 -90z m163 63 c18 -7 39 -22 48 -32 36 -42 155 -375 165 -460 6 -50 5 -54 -19 -65 -36 -16 -76 2 -106 48 -18 27 -19 34 -7 30 20 -8 66 9 66 24 0 8 -12 10 -35 6 -33 -5 -36 -4 -51 31 -9 20 -22 71 -29 112 -15 85 -29 125 -44 135 -23 14 -22 -28 3 -102 35 -106 55 -183 46 -183 -4 0 -74 -9 -155 -20 -179 -24 -213 -25 -237 -3 -10 9 -31 16 -48 15 -27 -1 -29 2 -20 19 19 34 60 237 60 293 0 54 0 54 43 75 51 26 70 40 86 66 10 17 11 12 6 -30 -4 -29 -23 -81 -46 -124 -22 -40 -38 -76 -35 -78 2 -2 15 7 28 20 14 13 42 27 66 30 54 9 75 45 72 126 -1 31 -2 62 -1 69 1 17 102 16 144 -2z m-1528 -17 c132 -11 249 -23 260 -25 16 -3 32 -40 88 -212 37 -115 65 -216 62 -224 -3 -7 8 -45 25 -82 17 -38 30 -70 28 -71 -11 -11 -520 148 -544 169 -14 13 -44 75 -75 156 -60 159 -109 296 -109 304 0 9 2 8 265 -15z m1041 -55 c24 -20 44 -42 44 -48 0 -7 -27 -61 -60 -122 l-60 -109 5 60 c3 33 7 104 11 158 3 53 8 97 11 97 2 0 25 -16 49 -36z m-647 -182 c35 -114 66 -214 68 -222 4 -10 2 -12 -5 -5 -9 10 -152 408 -152 426 0 5 6 9 13 9 7 0 37 -83 76 -208z m1140 -2 c0 -9 -4 -8 -9 5 -5 11 -9 27 -9 35 0 9 4 8 9 -5 5 -11 9 -27 9 -35z m-365 -242 l45 -21 173 22 c207 26 195 26 203 1 4 -11 17 -32 29 -48 l24 -27 -212 2 c-251 3 -376 11 -376 25 0 10 54 68 64 68 3 0 26 -10 50 -22z m-686 -43 c17 -64 45 -89 91 -82 20 4 101 8 181 11 l145 5 -110 -14 c-60 -7 -149 -16 -197 -20 l-87 -7 -11 41 c-12 45 -26 57 -16 14 5 -23 4 -25 -5 -10 -6 10 -8 25 -5 34 8 21 -3 55 -15 48 -10 -7 -12 8 -2 18 13 14 19 6 31 -38z m184 -11 c77 -18 142 -35 144 -37 6 -6 -267 -16 -282 -10 -7 2 -17 17 -22 31 -6 15 -13 35 -17 46 -7 16 -5 17 14 11 13 -4 86 -22 163 -41z m-492 -16 c77 -22 138 -43 136 -45 -4 -5 -277 75 -285 83 -9 8 14 3 149 -38z"/> </g> </svg> 