 <svg  version="1.0" xmlns="http://www.w3.org/2000/svg"  width="300.000000pt" height="228.000000pt" viewBox="0 0 300.000000 228.000000"  preserveAspectRatio="xMidYMid meet">  <g transform="translate(0.000000,228.000000) scale(0.100000,-0.100000)" fill="#333333" stroke="none"> <path d="M2343 2051 c-14 -17 -203 -470 -249 -596 -8 -22 -16 -44 -19 -50 -2 -5 -42 -102 -88 -215 l-83 -205 -225 4 -224 3 -46 43 c-36 34 -59 46 -105 56 -32 7 -88 26 -124 42 -108 49 -149 55 -294 44 -110 -8 -154 -6 -300 12 -94 11 -220 26 -279 31 -60 6 -132 15 -159 20 -95 18 -88 28 -88 -125 l0 -135 68 0 c37 0 184 7 327 15 143 8 315 15 383 15 l124 0 76 -40 c42 -22 109 -49 147 -60 65 -18 77 -27 168 -114 55 -53 93 -97 87 -101 -11 -7 -111 41 -174 84 -88 60 -178 101 -222 101 -88 0 -49 -30 57 -45 31 -4 72 -22 125 -56 43 -27 107 -63 142 -80 61 -29 78 -54 46 -66 -22 -8 -86 13 -146 48 -56 33 -234 74 -276 64 -33 -8 -15 -27 46 -50 51 -20 182 -102 182 -115 0 -13 -30 -20 -58 -13 -15 3 -45 21 -67 38 -53 43 -128 80 -206 101 -83 23 -315 26 -329 5 -7 -12 -18 -11 -70 3 -37 11 -74 15 -93 11 -47 -10 -331 -87 -336 -91 -20 -18 32 -9 174 30 92 25 179 46 194 45 47 -1 106 -24 104 -40 -2 -8 -30 -64 -63 -125 -38 -69 -60 -121 -60 -141 0 -40 33 -73 74 -73 17 0 40 -7 50 -15 17 -13 127 -15 782 -15 734 0 763 1 769 19 4 13 12 17 30 13 22 -4 27 3 58 69 18 41 47 107 63 146 l29 73 338 0 c224 0 337 3 337 10 0 7 -109 10 -330 8 -182 -2 -330 0 -330 3 0 7 77 191 125 299 18 41 52 120 75 175 23 54 50 117 60 140 33 71 230 530 261 608 22 55 17 94 -15 108 -23 10 -396 99 -415 99 -6 0 -19 -9 -28 -19z m281 -57 c137 -33 160 -41 169 -61 9 -20 -28 -111 -259 -649 -240 -560 -307 -707 -291 -639 3 11 60 153 127 315 67 162 151 365 185 450 35 85 90 223 124 305 34 83 61 155 61 160 0 9 -339 116 -367 115 -14 0 -18 -9 -98 -205 -29 -71 -74 -182 -100 -245 -26 -63 -83 -204 -127 -312 l-79 -196 17 -49 c9 -26 29 -84 45 -128 30 -88 102 -285 117 -325 7 -20 4 -35 -15 -73 -13 -27 -22 -54 -20 -60 4 -14 57 85 57 107 0 7 -39 121 -86 252 -48 132 -88 248 -91 260 -3 11 21 82 52 160 147 358 220 539 267 654 27 69 54 129 58 134 9 9 350 -84 350 -96 0 -8 -39 -105 -339 -839 -88 -217 -161 -398 -161 -401 0 -4 6 -8 13 -10 16 -4 -92 -267 -109 -268 -7 0 -14 10 -17 23 -5 19 -22 78 -87 292 -10 33 -30 101 -44 150 -45 155 -38 145 -118 145 -68 0 -70 -1 -65 -22 3 -13 24 -117 47 -231 23 -115 44 -215 47 -223 4 -12 -49 -14 -361 -14 l-366 0 0 40 c0 39 1 40 34 40 97 0 30 78 -134 155 -50 23 -52 25 -20 21 112 -16 160 -29 229 -64 127 -65 163 -66 181 -4 13 49 13 58 -4 74 -8 7 -50 48 -94 90 -73 72 -129 108 -166 108 -22 0 -119 37 -142 55 -17 13 -15 14 26 11 25 -3 86 -17 136 -33 73 -23 96 -35 122 -64 35 -40 83 -65 107 -55 14 5 13 11 -5 45 -27 53 -25 56 10 31 41 -29 110 -39 110 -17 0 9 -17 28 -37 42 l-38 25 221 0 222 0 80 203 c44 111 104 258 132 327 28 69 88 215 132 325 44 110 88 207 98 216 17 15 24 15 62 3 24 -7 114 -30 202 -50z m-2284 -794 c102 -11 219 -25 260 -32 41 -6 131 -10 200 -9 276 7 258 8 345 -31 44 -19 111 -43 149 -53 64 -17 136 -62 136 -86 0 -19 -35 -8 -56 19 -12 15 -26 24 -30 19 -4 -4 -2 -13 4 -19 18 -18 15 -28 -8 -28 -11 0 -34 16 -51 35 -29 32 -59 46 -59 27 0 -14 22 -31 35 -26 7 3 16 1 20 -5 4 -7 -1 -9 -12 -5 -11 3 -7 -4 11 -20 22 -18 39 -24 64 -22 29 2 49 -11 50 -34 1 -7 22 -61 28 -71 3 -5 0 -9 -6 -9 -6 0 -39 27 -73 61 -34 34 -63 57 -65 51 -1 -5 -27 -1 -59 9 -31 11 -62 19 -70 19 -7 0 -13 5 -13 11 0 17 89 3 112 -18 10 -9 20 -14 23 -11 3 3 -4 13 -16 24 -18 16 -39 19 -148 21 -69 1 -148 5 -176 9 -27 3 -158 1 -290 -6 -132 -6 -313 -14 -402 -17 l-163 -6 0 118 0 118 38 -7 c20 -3 120 -15 222 -26z m1149 -257 c41 -29 51 -43 29 -43 -14 0 -118 58 -118 65 0 15 55 1 89 -22z m434 -21 c21 -69 114 -376 139 -456 24 -79 28 -103 19 -122 l-11 -24 -767 2 -768 3 760 5 760 5 3 39 c3 34 1 38 -15 30 -10 -5 -366 -10 -791 -12 -767 -2 -773 -2 -767 -22 7 -22 -6 -26 -36 -10 -33 18 -23 64 44 190 62 120 62 120 92 113 17 -4 95 -7 173 -5 l144 2 106 -46 c134 -58 145 -67 137 -114 l-6 -37 188 -6 c103 -4 275 -7 381 -7 l192 0 0 24 c0 13 -20 123 -45 245 -25 121 -45 222 -45 223 0 2 24 1 54 0 40 -3 55 -8 59 -20z m-1068 -227 c70 -13 198 -66 211 -87 3 -5 -16 2 -42 15 -92 46 -150 58 -250 51 -97 -7 -204 2 -204 16 0 22 182 25 285 5z m1183 -341 c-7 -6 -1518 -5 -1528 1 -6 3 -10 10 -10 16 0 5 300 10 768 11 631 3 768 1 770 -10 2 -8 2 -15 0 -18z"/> </g> </svg> 