 <svg  version="1.0" xmlns="http://www.w3.org/2000/svg"  width="300.000000pt" height="300.000000pt" viewBox="0 0 300.000000 300.000000"  preserveAspectRatio="xMidYMid meet">  <g transform="translate(0.000000,300.000000) scale(0.100000,-0.100000)" fill="#333333" stroke="none"> <path d="M1285 2542 c-32 -7 -59 -37 -158 -176 -76 -108 -135 -175 -338 -377 -137 -138 -251 -261 -259 -279 -11 -27 -11 -39 3 -83 16 -50 16 -53 -1 -67 -11 -8 -57 -44 -102 -80 -78 -61 -120 -109 -120 -137 0 -25 46 -45 86 -37 77 14 174 139 174 225 0 31 7 42 48 75 61 50 161 151 285 286 54 59 137 137 185 173 86 64 232 149 218 126 -6 -8 0 -10 20 -5 20 5 25 4 19 -5 -4 -7 -18 -11 -31 -8 -13 2 -24 1 -24 -4 0 -4 12 -9 26 -11 23 -3 19 -7 -41 -48 -37 -25 -99 -63 -138 -86 -50 -28 -73 -48 -75 -62 -5 -32 8 -27 77 28 35 28 76 57 91 65 26 13 28 13 33 -6 7 -27 32 -19 31 9 0 18 12 24 97 45 92 23 98 23 102 6 3 -9 15 -19 28 -21 15 -2 -14 -14 -76 -32 -110 -31 -162 -55 -215 -96 -19 -15 -45 -30 -57 -34 -13 -4 -23 -14 -23 -22 0 -18 10 -18 35 0 11 7 37 16 57 19 36 5 154 75 144 84 -3 3 -31 -11 -63 -31 -32 -20 -67 -36 -78 -36 -14 0 -4 10 29 31 53 33 153 72 171 66 5 -2 -4 -7 -21 -11 -29 -6 -31 -9 -25 -39 4 -20 14 -33 25 -35 16 -4 18 1 14 29 l-6 34 82 33 c44 18 87 35 94 38 7 4 12 -1 12 -10 0 -11 9 -16 28 -16 l27 -1 -30 -25 c-16 -14 -85 -52 -153 -84 -135 -65 -262 -144 -262 -164 0 -27 16 -26 40 3 18 22 59 43 155 79 72 28 146 54 166 60 32 9 36 8 32 -7 -3 -11 4 -21 18 -27 l22 -10 -26 -17 c-25 -16 -125 -57 -139 -57 -5 0 -8 6 -8 14 0 7 -7 19 -15 26 -12 10 -18 10 -30 0 -20 -17 -19 -47 2 -59 10 -5 16 -11 13 -13 -3 -3 -36 -26 -75 -53 -38 -26 -96 -72 -127 -102 -31 -29 -63 -53 -71 -53 -18 0 -57 -42 -57 -63 0 -30 35 -18 67 21 25 31 42 41 85 50 32 8 70 26 97 47 30 24 54 35 77 35 37 0 46 -15 14 -23 -12 -3 -20 -14 -20 -26 0 -12 -6 -21 -15 -21 -8 0 -26 -18 -40 -41 -18 -27 -40 -46 -71 -59 -25 -11 -69 -31 -97 -45 -47 -23 -224 -63 -317 -71 -168 -15 -292 -70 -276 -122 13 -40 70 -22 175 57 83 63 104 59 188 -36 132 -149 162 -169 245 -164 43 3 169 149 393 456 131 178 296 380 325 395 30 16 52 6 122 -58 35 -31 122 -105 193 -164 132 -108 235 -220 235 -255 0 -10 -48 -70 -106 -133 -58 -62 -130 -148 -160 -189 -30 -42 -64 -88 -77 -104 l-23 -27 -39 41 c-22 23 -32 39 -23 36 10 -3 27 2 40 13 19 15 23 28 23 69 0 48 -3 53 -48 93 -45 40 -49 48 -64 123 -8 44 -22 92 -30 108 -12 25 -19 27 -69 27 -30 0 -64 -5 -75 -10 -17 -10 -19 -7 -19 33 0 32 -6 49 -21 63 -21 19 -22 19 -43 -11 -11 -16 -41 -51 -65 -77 -25 -27 -45 -56 -46 -66 -1 -9 -7 -35 -13 -57 -6 -22 -19 -79 -27 -125 -9 -47 -25 -121 -37 -165 -18 -71 -19 -87 -8 -142 6 -34 9 -75 5 -92 l-7 -31 -56 30 c-31 17 -97 66 -147 110 -49 44 -93 80 -97 80 -5 0 -11 -7 -15 -16 -7 -19 18 -46 127 -138 111 -94 129 -106 162 -106 l27 0 -35 -102 c-19 -56 -34 -108 -34 -115 0 -21 37 -34 130 -45 77 -10 92 -9 113 5 22 14 25 24 29 104 2 50 10 99 19 113 l14 25 3 -28 c2 -15 -1 -50 -7 -78 -9 -39 -8 -57 3 -84 28 -67 172 -141 300 -153 110 -11 566 -3 566 10 0 8 -78 9 -265 5 -146 -3 -289 -2 -318 3 -117 19 -245 86 -267 141 -10 24 -10 41 0 84 12 51 11 68 -5 107 -5 14 13 37 75 98 l83 81 -31 32 c-31 32 -36 45 -33 82 2 17 4 16 17 -8 9 -16 13 -31 10 -34 -7 -8 13 -33 26 -33 5 0 6 5 2 11 -5 8 -1 8 12 0 25 -14 73 -55 54 -45 -8 4 -23 14 -33 22 -9 8 -19 13 -22 10 -5 -4 101 -92 150 -124 20 -13 28 -14 40 -4 20 16 19 41 -2 79 -13 22 -15 35 -8 45 104 145 173 231 259 325 59 63 106 123 106 133 0 43 -107 160 -260 283 -47 38 -119 99 -160 135 -92 82 -111 93 -142 81 -44 -17 -165 -159 -354 -415 -154 -210 -296 -388 -329 -414 -16 -12 -38 -25 -51 -28 -41 -10 -107 29 -170 102 -32 38 -74 83 -91 101 l-33 31 48 11 c26 5 79 15 117 21 39 6 93 22 120 35 28 13 76 36 107 50 42 19 62 35 73 58 8 18 32 41 52 52 33 17 38 25 38 55 0 34 -1 35 -41 34 -31 0 -52 -9 -81 -32 -42 -33 -83 -52 -110 -52 -26 0 10 34 120 112 53 38 97 72 97 77 0 4 24 15 53 24 106 34 170 89 154 132 -12 29 -96 15 -227 -38 -63 -25 -116 -44 -118 -42 -4 3 83 46 231 115 66 31 119 82 115 112 -2 19 -10 24 -40 26 -23 2 -47 -3 -60 -12 -26 -19 -47 -21 -30 -4 18 18 15 36 -8 48 -22 12 -130 -7 -224 -40 -31 -10 -56 -16 -56 -12 0 4 22 21 50 37 58 34 65 47 41 76 l-18 23 -58 -22 c-126 -49 -217 -121 -474 -381 l-244 -246 -13 35 c-32 87 -38 78 234 354 231 234 294 307 414 477 57 80 89 98 151 80 99 -29 176 -89 392 -302 115 -114 211 -206 213 -204 9 9 -46 70 -211 232 -236 231 -368 316 -462 295z m265 -421 c0 -6 -5 -13 -10 -16 -15 -9 -43 3 -35 15 8 13 45 13 45 1z m115 -42 c-8 -12 -35 -12 -35 0 0 11 22 20 33 14 4 -2 5 -9 2 -14z m3 -160 c-2 -6 -8 -10 -13 -10 -5 0 -11 4 -13 10 -2 6 4 11 13 11 9 0 15 -5 13 -11z m-190 -102 c2 -10 -3 -17 -12 -17 -18 0 -29 16 -21 31 9 14 29 6 33 -14z m312 -243 c-18 -21 -24 -10 -9 18 8 14 14 18 17 10 2 -7 -2 -19 -8 -28z m36 -28 c-4 -22 -18 -60 -32 -83 -13 -23 -24 -50 -24 -61 0 -11 -7 -26 -16 -33 -14 -11 -15 -27 -9 -105 l7 -92 -56 -60 c-63 -69 -76 -110 -57 -182 15 -59 68 -110 114 -110 44 0 48 -5 29 -42 -8 -18 -18 -70 -21 -117 l-6 -86 -39 -3 c-58 -5 -176 17 -183 34 -3 8 10 56 28 107 32 87 33 99 34 237 1 110 6 165 22 230 12 47 29 124 38 173 17 86 18 87 47 87 34 0 34 23 0 28 -12 2 -22 7 -22 11 0 15 68 69 91 73 13 1 28 13 34 25 15 34 28 15 21 -31z m-648 -17 c-12 -16 -24 -25 -26 -19 -4 12 26 50 40 50 5 0 -2 -14 -14 -31z m-628 -16 c-20 -111 -121 -208 -196 -189 -31 8 -30 27 3 67 27 31 182 159 194 159 4 0 3 -17 -1 -37z m1435 -7 c9 -13 20 -52 26 -86 12 -78 31 -115 80 -161 41 -37 48 -65 30 -112 -6 -16 -20 -26 -43 -31 l-33 -7 40 -34 c22 -19 37 -36 34 -39 -3 -3 -23 12 -44 34 -32 33 -36 40 -22 46 15 5 13 9 -8 26 -14 11 -40 28 -58 37 -32 16 -178 161 -162 161 5 0 16 -7 26 -16 26 -23 41 -8 38 40 -2 23 1 48 5 55 5 7 3 18 -3 24 -7 7 -12 6 -17 -6 -4 -12 -18 -17 -41 -17 -31 0 -34 2 -23 15 7 8 20 30 29 48 12 24 25 34 51 38 65 12 79 10 95 -15z m-145 -106 c23 0 28 -5 32 -30 3 -17 3 -32 0 -34 -7 -8 -91 49 -92 63 0 8 6 11 16 7 9 -3 28 -6 44 -6z m-79 -107 c-9 -16 -10 -15 -11 9 0 14 3 35 8 45 6 15 8 14 10 -9 2 -15 -1 -35 -7 -45z m53 45 c-4 -5 13 -31 38 -56 24 -26 54 -59 66 -73 l23 -27 -20 -41 c-28 -55 -26 -79 10 -117 l30 -31 -81 -82 c-79 -79 -83 -81 -118 -75 -21 4 -45 11 -55 16 -33 17 -57 70 -57 124 0 54 25 99 84 153 14 14 26 35 26 48 0 19 5 23 32 23 18 0 45 -11 65 -26 65 -50 52 -11 -26 80 -39 45 -53 86 -30 86 5 0 7 5 3 12 -4 7 -3 8 5 4 6 -4 8 -12 5 -18z m-984 8 c0 -6 -132 -92 -153 -99 -24 -9 -34 20 -14 40 21 21 167 72 167 59z m960 -63 c0 -5 16 -26 35 -47 33 -37 49 -64 23 -38 -7 7 -25 12 -40 12 -15 0 -28 4 -28 9 0 5 -3 23 -6 40 -4 20 -3 31 5 31 6 0 11 -3 11 -7z m165 -123 c-3 -5 0 -10 7 -10 8 0 43 -29 78 -65 35 -36 71 -65 80 -65 19 0 64 -90 51 -103 -6 -6 -23 -1 -45 13 -38 23 -47 34 -20 23 12 -4 15 -1 12 12 -1 11 -28 34 -58 52 -89 53 -120 84 -115 119 5 36 4 34 11 34 3 0 2 -4 -1 -10z m-519 -229 c39 -31 85 -63 103 -70 21 -9 29 -17 22 -24 -6 -6 -24 -1 -53 16 -53 32 -220 177 -226 197 -3 8 15 -3 39 -24 24 -20 76 -63 115 -95z"/> </g> </svg> 