 <svg  version="1.0" xmlns="http://www.w3.org/2000/svg"  width="300.000000pt" height="300.000000pt" viewBox="0 0 300.000000 300.000000"  preserveAspectRatio="xMidYMid meet">  <g transform="translate(0.000000,300.000000) scale(0.100000,-0.100000)" fill="#333333" stroke="none"> <path d="M2022 2929 c-292 -25 -502 -104 -641 -242 -132 -130 -148 -279 -41 -385 45 -45 75 -59 193 -88 56 -14 119 -36 140 -50 47 -31 83 -102 128 -254 17 -58 40 -120 50 -139 11 -18 19 -34 17 -35 -2 -1 -20 -9 -41 -19 -22 -10 -47 -32 -59 -53 -15 -25 -24 -32 -31 -25 -6 6 -22 11 -36 11 l-26 1 28 15 c30 16 31 21 18 56 -6 16 -3 37 9 68 18 45 17 46 -6 92 -13 26 -24 61 -24 78 0 63 -102 126 -145 90 -25 -20 -18 -37 40 -100 47 -51 55 -66 55 -98 0 -57 -38 -126 -72 -130 -34 -4 -35 4 -6 35 l22 24 -22 6 c-12 3 -22 11 -22 19 0 7 -7 17 -15 21 -12 7 -13 16 -5 43 14 50 12 106 -4 119 -8 7 -12 21 -9 31 14 53 -90 -7 -123 -71 -18 -36 -18 -70 1 -115 13 -33 13 -39 -5 -73 -19 -39 -13 -61 17 -61 7 0 13 -4 13 -9 0 -12 -19 -25 -58 -41 -31 -12 -33 -11 -81 33 -27 26 -61 49 -76 53 -42 11 -106 -1 -175 -32 -45 -20 -65 -25 -68 -16 -6 20 -22 14 -32 -13 -12 -31 -30 -31 -105 0 -49 20 -77 25 -152 25 -117 0 -139 8 -152 57 -6 21 -11 41 -11 45 0 3 34 -7 76 -23 89 -34 129 -37 144 -10 18 35 12 78 -14 99 l-25 19 46 94 c44 91 68 129 83 129 4 0 25 -14 46 -31 22 -17 72 -49 112 -71 41 -23 76 -47 79 -54 3 -7 -12 -40 -32 -72 l-36 -60 -64 6 c-62 4 -65 4 -76 -21 -23 -51 41 -108 98 -86 42 16 64 40 57 61 -4 13 9 41 36 83 l42 65 -22 152 c-12 84 -29 175 -38 202 -17 50 -17 50 -107 88 l-91 38 16 65 c11 50 19 65 33 65 24 0 45 46 28 63 -9 9 -16 9 -30 0 -16 -10 -20 -9 -23 12 -4 16 -1 22 9 18 10 -4 13 6 13 40 0 84 -70 134 -173 124 -41 -3 -56 -11 -79 -36 -33 -37 -36 -61 -8 -61 18 0 19 -3 10 -21 -6 -11 -14 -60 -17 -108 -5 -81 -4 -90 16 -110 11 -11 21 -32 21 -47 0 -14 13 -57 30 -96 l30 -70 -33 21 c-26 17 -32 26 -29 51 2 26 -1 30 -23 30 -27 0 -32 9 -13 28 8 8 9 15 2 22 -11 11 -160 -58 -186 -87 -17 -19 -98 -253 -98 -283 0 -9 10 -22 23 -28 21 -11 21 -11 -4 -6 -33 7 -43 -7 -35 -50 8 -44 38 -73 89 -86 71 -18 68 -16 52 -54 -24 -57 -29 -136 -12 -177 29 -71 146 -103 277 -75 141 30 194 14 225 -68 22 -57 16 -116 -20 -185 -37 -74 -44 -71 -38 17 6 83 -5 120 -51 170 -70 77 -193 67 -246 -20 -11 -18 -20 -45 -20 -59 0 -54 -30 -125 -75 -176 -26 -30 -43 -58 -39 -64 9 -16 87 -6 119 15 25 16 26 21 20 70 -8 62 18 136 54 155 24 13 28 0 7 -18 -8 -7 -18 -26 -21 -42 -4 -16 -10 -29 -15 -29 -12 0 -19 -26 -13 -49 3 -12 12 -21 19 -21 8 0 14 -6 14 -13 0 -7 11 -29 25 -49 20 -30 32 -37 62 -40 l38 -3 0 -103 c0 -89 -3 -106 -18 -117 -19 -14 -46 -10 -59 9 -4 6 -5 52 -2 101 5 72 3 94 -9 110 -15 19 -17 19 -45 2 -18 -10 -50 -17 -80 -17 -77 0 -87 -12 -137 -190 -54 -187 -56 -221 -17 -260 49 -49 207 -83 276 -60 43 14 96 56 96 76 0 8 -12 19 -26 24 -17 7 -24 15 -20 25 7 20 -28 20 -84 0 -69 -24 -71 -23 -64 42 4 32 9 74 13 94 l6 37 98 -56 97 -56 0 -53 c0 -54 8 -64 30 -38 10 12 11 42 4 128 -5 61 -9 148 -9 192 l0 80 30 -3 c47 -5 96 -33 116 -66 18 -30 31 -84 44 -178 5 -43 4 -46 -14 -41 -14 4 -29 -8 -59 -49 -29 -39 -57 -63 -103 -88 -101 -53 -139 -79 -139 -95 0 -22 42 -28 105 -15 31 6 59 9 62 6 6 -6 -25 -267 -33 -275 -11 -12 -22 25 -28 97 -8 80 -25 126 -54 140 -82 43 -215 3 -257 -77 -8 -16 -19 -57 -24 -91 -6 -34 -12 -64 -14 -67 -11 -10 -133 86 -166 131 -83 110 -106 192 -99 343 4 89 11 117 71 293 82 240 86 280 32 386 -47 93 -186 276 -200 262 -4 -3 21 -39 54 -79 185 -220 199 -285 113 -524 -66 -181 -82 -241 -89 -345 -6 -97 12 -190 51 -268 33 -65 108 -147 165 -179 69 -39 69 -39 61 -80 -17 -100 21 -119 230 -110 384 16 521 81 561 267 6 27 11 50 12 50 1 0 58 -11 127 -25 218 -43 318 -31 386 47 l30 35 17 -46 c37 -103 131 -171 238 -171 49 0 61 4 103 37 45 35 47 36 88 24 23 -7 79 -33 124 -57 104 -57 139 -67 155 -48 20 24 -5 63 -55 85 -25 11 -82 29 -127 40 -94 23 -134 41 -143 64 -10 26 -7 119 5 153 6 17 17 33 25 36 8 3 55 -8 105 -25 97 -34 139 -34 180 0 22 18 23 19 5 46 -17 26 -17 28 4 50 l22 23 -22 12 c-16 8 -34 9 -71 1 -91 -20 -144 -14 -223 24 -74 35 -148 46 -161 24 -5 -7 4 -8 28 -4 29 6 53 -1 127 -35 98 -45 103 -46 254 -24 l50 7 -22 -27 c-20 -26 -20 -56 -1 -56 20 0 7 -31 -17 -40 -42 -16 -90 -11 -158 16 -113 45 -145 24 -154 -105 -6 -86 14 -114 96 -137 192 -53 242 -75 242 -110 0 -23 -17 -17 -142 46 -139 70 -168 74 -223 30 -50 -40 -76 -45 -140 -31 -78 18 -131 60 -166 134 -30 64 -36 96 -20 113 5 5 32 74 59 153 28 79 61 154 73 167 27 28 67 38 102 25 l27 -10 -25 -37 c-28 -41 -29 -53 -15 -106 8 -29 21 -44 54 -63 44 -26 86 -33 86 -15 0 6 -21 25 -47 43 -25 17 -57 41 -71 53 l-24 20 21 41 c11 23 25 45 31 48 6 4 52 -23 102 -59 50 -36 97 -66 103 -66 23 0 37 29 42 90 7 70 -4 67 143 41 l105 -18 -2 -148 c-1 -86 -6 -152 -12 -158 -6 -6 -46 -11 -88 -11 -66 0 -86 4 -132 28 -59 30 -75 26 -69 -20 3 -27 8 -30 73 -46 39 -10 89 -25 112 -33 47 -18 115 -81 135 -126 20 -45 31 -34 25 24 -4 29 0 108 8 175 8 68 11 152 8 188 -5 56 -4 64 10 58 24 -9 37 26 44 115 5 69 3 85 -16 125 -13 25 -36 56 -53 67 -30 21 -30 23 -23 83 13 113 11 189 -4 194 -12 4 -13 -8 -7 -67 6 -67 5 -73 -18 -96 -27 -27 -50 -31 -90 -16 -38 15 -56 89 -36 154 l15 49 66 -7 c77 -7 119 5 119 35 0 28 -86 70 -144 70 -38 0 -48 -5 -75 -36 -27 -30 -32 -43 -29 -77 2 -26 -2 -46 -10 -52 -15 -12 -6 -45 12 -45 8 0 13 -16 13 -46 0 -63 32 -95 102 -102 28 -2 51 -8 51 -11 0 -17 -27 -31 -62 -31 -32 0 -46 7 -79 41 -38 39 -43 41 -81 35 -86 -14 -138 -55 -183 -146 -15 -30 -38 -72 -52 -93 -20 -32 -26 -36 -43 -27 -31 17 -85 12 -114 -11 -34 -27 -49 -57 -98 -197 -22 -64 -43 -124 -48 -132 -11 -19 -17 18 -30 175 -11 133 -42 269 -66 297 -15 15 -33 17 -153 15 -130 -2 -181 4 -181 23 0 4 11 11 25 14 27 7 33 34 13 54 -9 9 -8 12 4 12 11 0 21 -15 30 -47 17 -60 41 -71 36 -17 l-3 39 110 -4 c90 -3 112 -6 122 -21 16 -23 65 -43 94 -38 16 2 32 18 49 48 24 43 25 53 25 200 -1 179 -11 217 -70 251 -19 12 -35 27 -35 35 0 20 56 80 88 93 26 11 31 8 77 -36 95 -91 220 -133 395 -133 122 0 263 26 345 64 62 28 75 48 50 76 -17 19 -130 50 -182 50 -28 0 -29 3 -41 70 -20 118 -18 127 27 135 69 12 74 20 56 93 -15 59 -15 64 0 76 16 11 14 22 -20 137 -51 172 -68 196 -165 226 -78 24 -83 29 -76 80 3 24 9 64 12 89 4 29 2 50 -5 57 -19 19 -31 -11 -31 -75 0 -54 -2 -58 -30 -73 -34 -18 -65 -12 -79 13 -5 9 -12 43 -16 75 -6 49 -5 57 9 57 9 0 16 8 16 20 0 29 22 34 81 20 43 -11 53 -10 66 3 37 36 -29 97 -105 97 -93 0 -149 -48 -137 -119 4 -24 2 -41 -4 -46 -16 -9 -13 -48 4 -71 12 -15 16 -16 24 -6 6 10 10 4 15 -20 3 -19 16 -45 28 -57 18 -20 28 -23 70 -18 51 6 59 0 30 -26 -24 -22 -37 -21 -88 4 -57 27 -107 18 -153 -28 -19 -19 -50 -42 -70 -53 -73 -37 -76 -43 -79 -226 -4 -184 -1 -194 62 -233 30 -19 40 -20 78 -11 60 13 64 13 65 -11 2 -16 -2 -19 -15 -13 -9 4 -28 7 -42 8 -22 1 -26 -5 -39 -54 -9 -40 -10 -63 -3 -82 l10 -28 -52 0 -53 0 -21 48 c-12 26 -36 94 -53 151 -62 212 -97 250 -274 291 -99 23 -149 46 -186 87 -93 99 -83 226 28 344 159 170 420 253 793 253 204 0 283 -13 372 -61 90 -49 116 -101 152 -299 31 -169 48 -230 91 -314 38 -74 73 -116 110 -130 34 -13 75 -13 75 0 0 6 -16 10 -35 10 -49 0 -98 47 -139 134 -43 90 -60 150 -86 305 -32 195 -79 275 -187 323 -97 43 -316 63 -501 47z m256 -123 c15 -8 36 -23 46 -35 17 -18 17 -21 3 -27 -9 -3 -39 -1 -66 5 -59 12 -81 7 -81 -21 0 -11 -8 -22 -20 -25 -23 -6 -24 -8 -5 -93 18 -88 50 -108 115 -75 30 15 30 15 30 -12 0 -41 9 -49 72 -67 98 -28 118 -55 163 -206 37 -128 40 -155 11 -131 -8 7 -25 9 -40 5 -25 -6 -28 -2 -65 77 -36 78 -40 82 -49 59 -12 -33 -23 -153 -14 -166 9 -14 62 -24 62 -13 0 5 10 9 21 9 21 0 21 -4 17 -70 -3 -39 -8 -73 -10 -76 -13 -12 -138 -25 -187 -19 -48 6 -56 4 -81 -20 -27 -26 -27 -26 -33 -5 -3 12 -19 26 -37 33 -24 9 -30 16 -26 33 4 15 -1 23 -22 32 l-27 12 30 -8 c63 -15 170 -6 278 23 59 16 104 32 99 37 -4 4 -28 2 -52 -5 l-43 -12 -55 108 c-44 88 -57 108 -72 104 -17 -4 -18 1 -13 65 6 68 6 69 -28 104 l-34 35 32 -16 c26 -13 37 -14 55 -4 28 15 38 28 38 53 0 16 -6 18 -40 13 -77 -10 -85 -1 -124 145 -30 107 -17 138 67 158 48 12 55 11 85 -4z m-1513 -27 c54 -14 84 -45 91 -95 l5 -39 -21 37 c-39 72 -95 84 -185 41 -19 -9 -38 -14 -41 -10 -13 12 27 57 59 66 43 12 42 12 92 0z m41 -70 c17 -19 17 -19 -19 -4 -20 8 -49 15 -64 16 l-28 1 25 7 c35 10 66 2 86 -20z m-9 -25 c60 -38 52 -174 -20 -331 -51 -111 -70 -170 -56 -178 8 -6 115 68 131 90 4 5 5 18 2 28 -4 12 0 17 15 17 27 0 26 10 -1 45 -12 15 -18 26 -12 24 5 -2 37 -15 70 -28 43 -16 65 -30 73 -47 9 -21 29 -124 57 -292 l5 -33 -58 32 c-51 29 -102 62 -163 107 -9 7 -24 10 -33 6 -9 -3 -44 -58 -77 -122 l-60 -116 31 -26 c27 -22 31 -30 25 -57 -4 -17 -14 -34 -22 -37 -14 -5 -150 32 -142 39 2 2 29 -4 61 -12 81 -23 91 -11 53 63 -44 83 -74 104 -152 104 l-64 0 6 28 c4 15 12 38 19 52 7 14 15 42 19 64 12 65 -17 38 -34 -32 -16 -68 -29 -78 -85 -68 -58 11 -58 20 -7 166 l47 134 84 44 c73 39 82 42 71 22 -10 -18 -9 -24 1 -31 8 -5 20 -7 27 -4 9 3 12 -4 10 -22 -2 -21 5 -32 31 -50 19 -13 42 -23 53 -23 17 0 18 2 2 38 -30 67 -55 143 -49 151 3 5 23 4 45 -1 42 -11 90 -4 90 12 0 6 -30 10 -67 10 -92 0 -103 11 -103 107 0 88 18 140 52 145 37 6 101 -3 125 -18z m1318 -72 c-6 -16 -7 -16 -17 1 -5 10 -7 26 -3 35 6 16 7 16 17 -1 5 -10 7 -26 3 -35z m-1225 -31 c0 -5 -7 -14 -15 -21 -12 -10 -15 -10 -15 2 0 8 3 18 7 21 9 10 23 9 23 -2z m1210 -116 c0 -2 -18 -14 -40 -25 -48 -25 -53 -18 -7 10 32 20 47 25 47 15z m75 -36 c34 -30 35 -34 35 -100 l0 -69 -69 -35 c-83 -41 -98 -61 -107 -137 -4 -32 -11 -58 -16 -58 -17 0 -18 26 -3 69 19 55 19 97 0 151 -8 23 -15 66 -15 95 0 52 1 53 38 68 20 9 46 22 57 31 29 22 40 20 80 -15z m-1305 -101 c0 -5 -9 -8 -20 -8 -16 0 -19 -5 -15 -23 5 -19 -3 -30 -50 -65 -66 -49 -66 -48 -7 84 l37 82 27 -32 c15 -17 27 -34 28 -38z m1115 10 c1 -29 8 -77 16 -107 12 -40 13 -65 6 -95 -16 -73 -14 -110 7 -114 25 -5 36 14 36 63 1 72 13 70 58 -7 23 -40 40 -73 39 -74 -1 -2 -21 3 -45 9 -31 8 -45 8 -53 0 -15 -15 -3 -33 22 -33 10 0 19 -4 19 -9 0 -16 -25 -29 -72 -36 -39 -6 -53 -3 -82 14 -19 12 -37 28 -40 37 -8 21 -8 318 0 339 6 14 71 65 84 65 3 0 5 -24 5 -52z m351 -283 c-4 -12 -123 -45 -160 -45 -9 0 -27 21 -40 48 -14 26 -34 60 -45 77 l-21 30 88 41 87 40 48 -89 c27 -49 46 -95 43 -102z m119 81 c15 -22 14 -23 -21 -34 -45 -13 -49 -5 -39 86 l7 67 19 -48 c10 -26 26 -58 34 -71z m89 -48 c13 -49 28 -120 25 -123 -2 -2 -21 -6 -41 -10 l-38 -7 3 68 c1 38 7 72 12 76 16 12 35 9 39 -4z m-890 -71 c13 -13 26 -42 30 -66 3 -24 17 -60 29 -82 22 -38 22 -38 3 -73 -14 -26 -17 -46 -12 -75 5 -34 3 -41 -14 -46 -28 -9 -40 2 -40 36 0 19 -4 28 -11 23 -6 -3 -9 -19 -6 -34 10 -47 -25 -62 -90 -39 -23 8 -30 15 -26 29 3 10 -2 29 -11 42 -9 12 -16 30 -16 40 0 9 -8 33 -17 52 -14 31 -15 43 -4 90 15 66 34 87 51 56 8 -15 8 -36 -1 -82 -9 -47 -10 -63 -1 -66 7 -2 12 -10 12 -17 0 -8 8 -18 17 -24 17 -9 16 -11 -1 -30 -15 -17 -16 -23 -6 -36 33 -40 99 11 119 91 17 66 7 93 -49 149 -61 60 -65 85 -15 85 24 0 44 -8 59 -23z m-176 -23 c-21 -19 -41 -45 -44 -58 -7 -28 14 -146 28 -164 16 -19 -10 -62 -37 -62 -32 0 -35 8 -18 46 15 31 15 38 -1 88 -15 48 -15 59 -3 88 15 35 79 98 100 98 7 0 -5 -16 -25 -36z m-1028 -14 c0 -11 -14 -11 -50 0 -22 7 -21 8 13 9 20 1 37 -3 37 -9z m-50 -15 c24 -8 46 -13 48 -10 3 3 12 -18 19 -46 7 -29 12 -54 10 -55 -2 -2 -31 6 -65 17 -65 22 -92 47 -92 86 0 28 19 29 80 8z m1056 -41 c-8 -21 -15 -31 -15 -22 -1 18 20 70 26 65 2 -2 -3 -21 -11 -43z m-877 13 c23 -8 46 -29 68 -61 56 -82 47 -89 -72 -54 -75 22 -75 22 -88 67 -8 26 -12 49 -10 54 6 11 63 8 102 -6z m1557 -21 c24 -18 17 -26 -18 -19 -16 3 -28 12 -28 19 0 18 21 18 46 0z m327 -19 c-3 -13 3 -50 11 -84 9 -33 16 -65 16 -69 0 -13 -141 -1 -167 14 -12 7 -35 39 -50 72 -16 33 -32 58 -38 56 -14 -4 -6 -115 11 -148 17 -34 64 -48 158 -48 47 0 75 5 86 15 13 12 27 13 78 5 144 -24 175 -52 97 -89 -124 -58 -374 -84 -505 -52 -80 19 -168 64 -220 111 l-45 41 70 -5 c39 -3 97 -8 131 -12 67 -7 124 13 124 43 0 13 -7 14 -37 9 -21 -4 -70 -9 -109 -13 -68 -5 -72 -5 -79 17 -8 26 3 127 15 135 4 3 28 -4 51 -15 60 -27 101 -25 137 5 25 21 40 25 123 28 52 1 106 4 120 5 22 2 26 -1 22 -21z m-304 -23 c9 -8 -45 -2 -64 6 -14 7 -8 8 20 3 22 -3 42 -7 44 -9z m155 -129 c14 -9 58 -20 98 -25 82 -8 68 -12 -36 -10 -38 1 -79 5 -92 10 -24 10 -44 61 -44 115 0 27 2 25 24 -22 14 -28 36 -59 50 -68z m-1815 38 c6 -21 11 -43 11 -49 0 -30 37 -41 147 -47 89 -5 125 -12 174 -32 l61 -26 94 41 c136 58 175 65 227 41 23 -10 55 -32 71 -49 l28 -30 -30 -16 c-43 -22 -70 -73 -87 -161 -8 -43 -22 -102 -31 -132 -27 -93 -6 -140 73 -168 22 -8 37 -19 35 -27 -2 -7 -13 -47 -24 -88 -17 -63 -21 -115 -25 -317 l-5 -243 -53 0 c-30 0 -66 -5 -82 -11 -15 -5 -68 -52 -118 -104 -81 -84 -96 -95 -150 -110 -75 -22 -171 -15 -283 20 l-80 25 14 69 c7 38 20 83 28 99 43 84 219 111 257 40 6 -11 14 -58 19 -105 9 -89 28 -129 51 -106 12 12 37 162 40 243 3 64 -7 75 -57 61 -22 -6 -57 -11 -78 -11 -52 0 -42 10 71 69 67 35 97 58 128 98 75 96 94 45 19 -55 -55 -74 -50 -101 8 -45 64 61 68 74 58 193 -11 124 -31 198 -62 228 -30 28 -90 52 -128 52 l-30 0 0 -102 c0 -56 5 -141 11 -189 8 -62 8 -92 0 -105 -8 -16 -10 -9 -11 33 l0 52 -107 60 c-59 34 -111 57 -114 53 -4 -4 -11 -55 -15 -114 -8 -123 -11 -120 78 -89 55 19 56 19 61 0 3 -11 14 -19 25 -19 31 0 34 -15 9 -38 -31 -29 -70 -42 -125 -42 -85 0 -203 42 -216 75 -13 35 -4 96 33 226 52 181 50 179 111 179 27 0 65 8 85 17 19 9 38 14 41 10 10 -9 10 -85 1 -144 -8 -45 -6 -54 12 -72 28 -28 67 -27 86 3 20 30 30 149 18 196 -6 23 -16 36 -29 38 -55 8 -65 14 -85 54 -25 50 -27 129 -4 165 25 38 40 28 59 -38 16 -58 16 -62 -1 -74 -14 -11 -16 -18 -8 -40 15 -41 39 -53 72 -35 48 27 68 66 68 130 0 79 -22 105 -84 96 -24 -3 -61 -1 -82 5 -31 10 -42 9 -55 -2 -31 -25 -54 -91 -54 -155 0 -55 -2 -62 -25 -72 -14 -7 -40 -12 -57 -12 l-30 0 35 39 c48 53 61 82 81 173 14 62 23 82 47 102 43 36 88 42 141 18 49 -21 79 -56 97 -114 17 -51 4 -175 -20 -207 -11 -13 -19 -28 -19 -32 0 -12 107 -11 115 0 3 5 -9 20 -26 34 l-31 24 31 43 c82 113 71 253 -23 311 -37 22 -70 23 -151 4 -123 -30 -239 -11 -279 46 -19 28 -21 91 -4 154 15 55 33 58 47 8z m474 27 c14 0 18 -6 15 -27 -6 -55 -97 -69 -120 -18 -17 37 6 59 52 51 19 -3 43 -6 53 -6z m1222 -76 c-30 -23 -62 -28 -108 -16 l-42 10 45 2 c25 1 59 6 75 10 46 12 52 11 30 -6z m-690 -44 c-4 -6 -13 -5 -25 2 -15 9 -16 16 -8 31 9 18 10 18 24 -2 9 -12 12 -25 9 -31z m-31 -9 c3 -5 -1 -23 -10 -40 -20 -40 -11 -95 19 -116 12 -8 42 -15 68 -15 59 0 100 31 118 89 13 43 25 50 56 27 19 -13 18 -15 -8 -54 -50 -76 -154 -116 -224 -87 -33 14 -153 120 -153 135 0 3 15 11 34 18 18 7 41 21 51 32 19 21 40 26 49 11z m76 -38 c45 -16 49 -16 75 1 42 27 51 7 23 -50 -18 -38 -31 -52 -60 -63 -84 -31 -148 34 -108 110 13 23 11 23 70 2z m-170 -87 c34 -36 77 -72 95 -80 64 -31 147 -16 210 36 l30 26 0 -159 c0 -88 -3 -159 -7 -159 -7 0 -10 15 -28 129 -5 36 -14 69 -19 74 -6 6 -57 6 -138 1 l-128 -9 -3 -82 c-3 -80 -3 -82 -21 -64 -10 10 -24 20 -31 23 -9 3 -5 26 16 91 28 88 28 114 -4 125 -31 10 -74 -157 -52 -198 10 -18 9 -36 0 -82 -7 -32 -17 -61 -22 -64 -15 -9 -77 17 -93 39 -20 29 -19 68 5 152 11 38 20 80 20 92 0 47 40 131 73 152 18 11 33 21 34 21 1 0 29 -29 63 -64z m382 0 c6 -32 -11 -265 -22 -296 -10 -29 -14 239 -4 289 8 37 20 40 26 7z m61 -23 c22 -39 40 -189 32 -268 -16 -160 -55 -202 -132 -146 -23 16 -31 41 -13 41 5 0 13 12 16 28 4 15 13 36 20 47 14 23 34 184 34 275 0 69 12 75 43 23z m744 -60 c44 -22 51 -29 41 -41 -9 -10 -31 -13 -92 -10 l-80 3 -11 -37 c-14 -51 -21 -54 -28 -13 -7 46 4 77 39 104 35 28 68 27 131 -6z m-1207 -4 c0 -11 -10 -53 -22 -92 -22 -69 -23 -71 -26 -34 -4 43 24 147 38 147 6 0 10 -9 10 -21z m310 -154 c12 -80 18 -100 33 -103 21 -4 22 -16 1 -36 -14 -15 -18 -14 -44 14 -23 24 -36 30 -72 30 -23 0 -73 3 -110 7 l-68 6 0 88 0 88 108 4 c59 1 114 3 122 2 11 0 19 -25 30 -100z m-840 41 c13 -39 5 -79 -22 -119 -27 -37 -55 -52 -74 -36 -19 15 -18 59 1 59 18 0 18 3 0 64 -21 68 -19 74 18 78 45 5 64 -6 77 -46z m1757 -33 c-3 -10 -5 -2 -5 17 0 19 2 27 5 18 2 -10 2 -26 0 -35z m-1222 -115 c-2 -52 -2 -53 -33 -56 -36 -4 -36 -6 -21 56 17 75 17 74 37 63 15 -8 19 -20 17 -63z m1099 -14 c15 -3 42 -4 61 -2 29 3 35 1 35 -15 0 -13 -5 -17 -16 -13 -9 3 -31 6 -50 6 -41 0 -84 37 -84 72 1 20 3 19 15 -9 8 -20 23 -35 39 -39z m-1058 31 c11 -11 38 -15 97 -16 94 0 150 -16 155 -42 3 -17 -3 -18 -94 -11 -88 6 -98 5 -111 -11 -12 -18 -13 -18 -13 3 0 22 -33 47 -50 37 -6 -4 -10 7 -10 24 0 35 5 38 26 16z m-515 -36 c26 -14 15 -29 -22 -29 -31 0 -36 9 -17 28 15 15 15 15 39 1z m1512 -54 c41 -52 137 -62 152 -16 5 17 10 15 44 -22 54 -59 61 -77 61 -150 0 -97 -8 -127 -34 -127 -22 0 -22 -4 -22 -107 0 -60 -4 -158 -8 -220 l-9 -112 -21 32 c-34 51 -94 85 -191 110 -77 19 -90 26 -93 45 -4 27 -3 27 50 0 33 -18 63 -24 128 -26 47 -1 91 1 98 6 15 10 39 274 28 316 -4 16 -15 27 -29 30 -12 2 -69 11 -127 20 -122 19 -130 15 -130 -60 0 -51 -8 -74 -25 -74 -6 0 -49 27 -95 60 -46 33 -87 60 -92 60 -5 0 4 20 21 43 16 24 42 69 57 101 37 78 101 123 179 125 23 1 37 -7 58 -34z m-1006 -1 c2 -5 -10 -15 -27 -21 -16 -6 -30 -18 -30 -27 0 -27 74 -39 207 -33 97 4 125 2 134 -9 19 -23 49 -153 60 -259 5 -55 14 -134 20 -174 9 -74 9 -75 -19 -110 -67 -82 -152 -94 -377 -51 l-130 24 3 215 c2 216 9 285 39 394 15 54 17 58 42 52 14 -3 33 -1 41 5 17 11 32 9 37 -6z m721 -431 l27 -23 -27 10 c-39 13 -75 39 -82 56 -5 12 0 12 24 -3 17 -10 43 -28 58 -40z m-1126 20 c-6 -10 -22 -29 -37 -43 -25 -22 -24 -20 6 21 34 46 50 57 31 22z m207 -262 c18 -12 7 -69 -25 -133 -55 -108 -198 -154 -509 -165 -168 -5 -182 -4 -204 14 -21 17 -23 25 -17 65 l7 45 67 -25 c58 -22 84 -26 187 -26 143 -1 172 10 249 93 94 100 117 121 149 130 42 12 79 13 96 2z"/> </g> </svg> 