 <svg  version="1.0" xmlns="http://www.w3.org/2000/svg"  width="197.000000pt" height="196.000000pt" viewBox="0 0 197.000000 196.000000"  preserveAspectRatio="xMidYMid meet">  <g transform="translate(0.000000,196.000000) scale(0.100000,-0.100000)" fill="#333333" stroke="none"> <path d="M980 1572 c0 -6 -12 -10 -27 -9 -34 3 -67 -43 -82 -114 -6 -28 -25 -79 -42 -114 -25 -52 -28 -67 -19 -84 14 -28 22 -26 14 3 -3 15 3 41 20 74 14 27 33 80 42 116 9 37 26 78 37 92 18 23 21 24 35 10 14 -14 14 -19 -1 -48 -10 -18 -28 -47 -41 -65 -19 -25 -22 -40 -18 -82 3 -35 -1 -56 -12 -73 -18 -26 -21 -48 -5 -48 6 0 16 13 22 29 l11 29 19 -25 c12 -15 27 -23 38 -20 10 3 20 -1 23 -9 3 -8 14 -14 24 -14 10 0 27 -9 38 -21 17 -19 18 -22 1 -68 -23 -66 -22 -97 5 -115 21 -15 7 -16 -167 -16 -105 0 -195 -4 -201 -8 -13 -9 -23 -47 -33 -127 l-8 -60 -1 72 c-4 150 32 298 76 322 32 17 83 13 125 -9 41 -22 135 -27 168 -9 34 18 11 28 -65 27 -40 0 -79 3 -86 7 -7 4 -35 9 -64 11 -60 4 -106 -18 -130 -64 -33 -63 -54 -338 -28 -364 9 -9 15 -10 20 -1 4 6 8 -11 9 -38 1 -48 1 -48 -20 -34 -28 20 -87 19 -115 -1 -53 -37 -11 -101 105 -162 162 -83 276 -110 377 -89 36 8 38 7 22 -8 -9 -9 -14 -21 -11 -26 4 -5 4 -9 1 -9 -20 0 -168 33 -221 49 -79 25 -138 27 -155 6 -7 -8 -10 -31 -8 -50 2 -19 3 -35 1 -35 -2 0 -40 18 -85 41 -73 37 -88 41 -137 37 -47 -4 -67 -12 -126 -52 -64 -44 -73 -48 -116 -44 -33 4 -64 16 -105 45 -78 52 -84 56 -84 46 1 -12 120 -91 158 -104 48 -16 88 -5 166 49 90 62 137 64 243 8 91 -48 144 -55 207 -27 29 12 50 29 53 41 4 15 11 19 25 14 83 -26 222 -46 354 -51 146 -5 151 -5 171 16 13 14 23 19 28 12 11 -18 43 -12 103 19 65 35 83 34 148 -11 52 -36 61 -36 124 -3 55 28 84 27 153 -7 21 -11 37 -15 37 -9 0 16 -87 50 -128 50 -20 0 -50 -8 -67 -18 -53 -32 -61 -32 -116 4 -66 42 -93 42 -171 3 l-61 -31 -36 39 c-20 21 -45 43 -56 49 -19 11 -17 14 28 55 86 79 70 156 -38 184 -46 11 -50 14 -53 46 -2 18 2 69 8 112 13 88 8 101 -40 110 -24 5 -30 13 -36 42 -4 23 -2 41 5 48 17 17 14 29 -30 105 -39 68 -41 76 -43 159 -2 98 -17 138 -65 172 -34 25 -91 39 -91 23z m78 -32 c36 -22 62 -72 62 -117 -1 -24 -2 -26 -11 -10 -6 9 -14 15 -20 12 -5 -4 -9 0 -9 8 0 23 -40 67 -60 67 -21 0 -45 34 -35 50 10 16 37 12 73 -10z m-1 -91 c11 -20 10 -26 -5 -36 -39 -28 -43 -35 -37 -64 4 -16 3 -29 -2 -29 -5 0 -17 -17 -27 -37 l-18 -38 -29 35 c-43 53 -41 113 8 172 35 45 37 45 67 33 17 -7 37 -23 43 -36z m12 -83 c-6 -21 -26 -54 -45 -74 -23 -24 -32 -29 -25 -15 6 12 16 25 21 28 6 3 10 23 10 43 0 29 5 40 23 48 12 5 23 10 24 9 1 -1 -2 -18 -8 -39z m28 -23 c-8 -21 -18 -46 -21 -55 -6 -12 8 -34 48 -77 60 -66 69 -96 37 -125 -11 -10 -21 -28 -23 -40 -2 -15 -11 -22 -34 -24 -48 -5 -60 17 -40 77 27 85 17 118 -42 136 -23 7 -23 7 13 46 19 22 41 59 47 84 9 32 15 41 20 31 5 -9 2 -31 -5 -53z m66 -128 c20 -33 37 -69 36 -80 0 -14 -3 -11 -9 9 -5 16 -30 51 -56 77 l-47 47 14 48 14 47 6 -44 c3 -25 21 -70 42 -104z m-160 -26 c-23 -9 -93 -10 -115 -1 -9 4 17 7 58 7 42 1 67 -2 57 -6z m191 -141 c5 -20 15 -30 39 -36 19 -5 33 -15 33 -25 2 -13 1 -14 -3 -2 -3 12 -21 15 -76 15 -54 1 -68 3 -54 11 9 5 17 17 17 26 0 18 33 60 36 46 1 -4 5 -20 8 -35z m56 -110 c0 -29 -7 -91 -14 -138 -17 -103 -30 -116 -123 -126 -79 -8 -365 0 -383 11 -10 6 -11 37 -6 131 6 117 5 124 -14 136 -11 7 -20 16 -20 20 0 9 91 14 348 16 l212 2 0 -52z m-540 -128 l0 -129 33 -10 c27 -8 28 -9 8 -10 -14 -1 -33 6 -43 16 -16 14 -18 33 -18 140 0 75 4 123 10 123 6 0 10 -50 10 -130z m566 -56 c12 -10 10 -12 -12 -17 -22 -4 -25 -2 -20 17 3 11 6 30 7 41 1 15 3 14 6 -5 2 -14 11 -30 19 -36z m-624 -40 c5 -3 13 -17 19 -31 5 -13 14 -21 19 -18 6 4 9 1 8 -6 -3 -12 17 -21 152 -72 79 -29 178 -76 184 -86 17 -27 -132 -28 -210 -1 -97 34 -241 108 -263 136 -28 36 -27 72 2 84 21 8 71 5 89 -6z m698 -4 c30 -30 25 -73 -11 -115 -17 -19 -28 -35 -25 -35 4 0 2 -8 -3 -18 -6 -12 -7 -22 -1 -28 6 -6 -2 -9 -24 -6 -39 4 -54 -11 -34 -36 8 -10 1 -7 -16 6 -16 12 -43 22 -60 23 -21 0 -12 5 31 14 63 14 109 33 100 42 -3 2 -14 0 -24 -5 -10 -6 -65 -20 -121 -32 -94 -19 -105 -20 -121 -6 -25 23 -145 76 -238 105 l-82 26 210 -4 c220 -3 297 2 304 22 23 66 24 67 60 67 22 0 43 -8 55 -20z m50 -41 c0 -40 -19 -76 -49 -95 l-26 -17 22 24 c37 41 45 75 28 116 -15 36 -15 36 5 18 11 -10 20 -31 20 -46z m-173 5 c-16 -16 -99 -23 -242 -22 l-160 2 176 5 c139 5 180 9 200 22 20 14 41 8 26 -7z m90 -189 c43 -18 46 -18 37 -3 -4 6 -3 8 2 5 5 -3 11 -19 12 -35 2 -23 -3 -31 -20 -36 -41 -11 -58 -7 -58 13 0 10 -7 24 -15 31 -17 14 -20 40 -5 40 6 0 27 -7 47 -15z m-629 -22 c-18 -43 -28 -50 -28 -20 0 20 19 44 37 47 2 0 -3 -12 -9 -27z m540 2 c20 -17 32 -21 34 -13 3 7 7 5 11 -6 5 -11 3 -15 -5 -10 -8 5 -9 2 -5 -10 7 -16 0 -17 -80 -11 -113 9 -122 11 -116 35 4 13 17 21 42 25 20 4 43 8 51 10 32 6 39 4 68 -20z m-443 1 c19 -8 35 -19 35 -24 0 -14 -76 -42 -114 -42 l-34 0 19 40 c22 44 38 49 94 26z"/> </g> </svg> 