 <svg  version="1.0" xmlns="http://www.w3.org/2000/svg"  width="900.000000pt" height="900.000000pt" viewBox="0 0 900.000000 900.000000"  preserveAspectRatio="xMidYMid meet">  <g transform="translate(0.000000,900.000000) scale(0.100000,-0.100000)" fill="#ffffff" stroke="none"> <path d="M1805 6013 c-46 -14 -96 -37 -161 -71 -47 -25 -140 -127 -176 -192 -61 -109 -81 -257 -53 -387 42 -192 176 -335 385 -408 61 -22 213 -30 279 -16 30 6 56 9 59 6 3 -3 4 -52 3 -110 -3 -154 -11 -145 125 -145 64 0 124 5 135 10 18 10 19 25 19 339 0 256 -3 331 -13 339 -7 6 -66 12 -130 14 -96 2 -119 0 -127 -12 -5 -8 -10 -50 -10 -92 l0 -76 -47 -18 c-100 -39 -246 -15 -307 49 -77 81 -112 186 -95 289 12 77 20 95 68 155 42 54 84 79 173 103 77 20 188 -13 260 -78 36 -33 59 -25 133 43 32 30 63 55 67 55 4 0 8 14 8 30 0 17 -4 30 -8 30 -4 0 -23 16 -42 35 -19 19 -38 35 -43 35 -4 0 -24 11 -45 23 -73 46 -165 67 -291 66 -76 0 -133 -6 -166 -16z"/> <path d="M3970 6011 c-88 -35 -120 -51 -120 -61 0 -6 -6 -10 -13 -10 -22 0 -103 -88 -131 -142 -55 -106 -64 -183 -62 -551 1 -244 3 -289 16 -297 24 -15 245 -13 258 3 7 7 13 66 14 133 l3 119 210 0 210 0 3 -119 c1 -67 7 -126 14 -133 13 -16 219 -18 249 -3 18 10 19 25 19 335 0 254 -3 338 -15 389 -36 153 -124 257 -280 327 -43 20 -70 23 -190 25 -116 3 -148 0 -185 -15z m280 -252 c42 -18 52 -28 79 -84 27 -55 31 -72 31 -149 0 -61 -4 -86 -12 -87 -7 -1 -94 -1 -193 0 -99 1 -190 1 -203 1 -23 0 -23 1 -19 88 6 120 18 160 64 201 50 44 66 50 141 50 43 1 79 -6 112 -20z"/> <path d="M5110 6023 c-68 -25 -141 -68 -171 -100 -50 -53 -85 -103 -94 -133 -3 -14 -14 -41 -23 -60 -15 -30 -17 -85 -20 -392 -3 -250 0 -362 7 -377 11 -20 20 -21 130 -21 83 0 122 4 129 13 6 7 11 137 14 347 3 326 4 336 25 371 35 56 56 70 114 75 66 6 114 -16 144 -67 19 -32 20 -55 23 -374 2 -303 4 -341 19 -352 11 -9 56 -13 135 -13 114 0 118 1 123 23 2 12 6 162 8 332 4 334 7 359 56 414 25 28 37 33 88 37 72 6 97 -6 138 -66 l30 -45 0 -338 c0 -289 2 -339 15 -347 8 -5 67 -10 131 -10 89 0 119 3 128 14 9 11 11 107 8 373 -4 383 -2 370 -58 492 -28 60 -115 143 -186 177 -50 25 -73 29 -160 32 -78 3 -115 0 -155 -14 -60 -19 -114 -51 -142 -83 -26 -29 -56 -26 -90 9 -16 17 -58 44 -93 60 -57 27 -72 30 -161 29 -53 0 -104 -3 -112 -6z"/> <path d="M6740 6010 c-96 -35 -123 -52 -182 -111 -40 -39 -70 -82 -95 -136 l-37 -78 -4 -351 c-3 -250 -1 -358 7 -373 11 -20 20 -21 130 -21 98 0 121 3 132 17 10 11 14 48 14 132 l0 116 210 0 210 0 3 -120 c2 -98 5 -122 19 -132 23 -17 234 -18 251 -1 9 9 12 102 12 358 0 286 -3 350 -15 374 -8 15 -15 35 -15 43 0 31 -42 104 -91 157 -39 42 -73 67 -138 99 l-86 42 -135 3 c-115 2 -143 -1 -190 -18z m285 -253 c22 -12 53 -43 70 -67 29 -43 30 -50 30 -149 l0 -104 -201 0 c-111 0 -207 4 -214 8 -20 12 -5 175 20 230 20 44 68 89 105 98 11 2 49 5 85 6 50 0 74 -4 105 -22z"/> <path d="M2888 6015 c-3 -3 -27 -10 -54 -15 -64 -11 -144 -40 -144 -51 0 -5 -5 -9 -10 -9 -20 0 -72 -45 -104 -90 -46 -64 -66 -125 -66 -203 0 -147 65 -254 188 -313 28 -14 52 -30 52 -35 0 -6 -26 -42 -57 -81 -32 -39 -71 -88 -88 -108 -16 -21 -47 -58 -68 -83 -33 -39 -37 -49 -27 -66 10 -20 20 -21 141 -21 72 0 138 4 148 9 16 9 51 51 210 254 l53 68 52 -3 51 -3 2 -148 c1 -98 6 -153 14 -163 16 -19 241 -20 257 -1 12 14 20 1036 8 1055 -5 9 -82 12 -280 12 -150 0 -275 -2 -278 -5z m280 -371 c2 -97 -1 -134 -10 -141 -21 -15 -249 2 -292 22 -77 37 -99 118 -50 182 14 19 38 39 52 45 38 16 124 26 217 24 l80 -1 3 -131z"/> <path d="M5527 4730 c-50 -5 -73 -12 -92 -30 l-25 -23 0 -257 c0 -142 4 -313 9 -381 5 -68 12 -223 16 -344 5 -190 9 -227 27 -272 11 -29 24 -53 29 -53 5 0 9 -7 9 -17 0 -9 7 -23 15 -32 8 -9 27 -31 42 -49 20 -23 34 -30 48 -26 20 5 65 76 65 101 0 7 6 16 13 20 6 4 19 24 28 43 21 45 25 311 10 571 -12 200 -22 476 -21 596 1 45 -4 91 -9 102 -11 20 -72 62 -87 60 -5 -1 -39 -5 -77 -9z m123 -1309 c0 -5 -7 -14 -15 -21 -8 -7 -15 -18 -15 -25 0 -6 -8 -19 -18 -28 -17 -16 -20 -14 -40 25 -11 23 -19 45 -16 50 7 11 104 10 104 -1z"/> <path d="M1337 4560 c-157 -42 -249 -114 -287 -226 -23 -70 -24 -164 -1 -187 6 -6 11 -20 11 -31 0 -26 79 -101 132 -124 92 -40 94 -41 268 -77 101 -21 135 -33 164 -60 34 -32 35 -78 1 -109 -60 -55 -306 -39 -495 33 -94 36 -93 37 -104 -110 -6 -86 0 -106 38 -124 106 -49 222 -69 396 -69 195 1 276 23 376 101 76 61 109 133 109 237 0 73 -3 86 -32 137 -18 31 -43 64 -55 73 -47 35 -150 86 -173 86 -9 0 -25 5 -36 10 -10 6 -47 15 -82 19 -88 13 -172 35 -202 55 -20 13 -25 25 -25 56 0 35 5 43 33 60 61 38 283 20 393 -31 58 -27 82 -25 90 9 3 15 10 43 14 62 14 62 20 125 12 135 -51 69 -392 116 -545 75z"/> <path d="M3456 4564 c-132 -32 -253 -119 -303 -216 -60 -118 -57 -96 -61 -482 -4 -296 -2 -360 9 -367 21 -13 253 -11 266 2 7 7 9 44 6 105 -3 51 -2 105 1 119 l6 25 208 -2 207 -3 3 -122 c3 -145 -9 -135 162 -131 l115 3 3 340 c2 364 0 391 -51 494 -93 187 -343 290 -571 235z m200 -249 c52 -15 98 -56 124 -109 10 -19 15 -61 15 -125 l0 -96 -210 0 -210 0 2 90 c4 143 39 206 133 239 57 19 84 20 146 1z"/> <path d="M4618 4566 c-137 -25 -267 -116 -322 -226 -52 -104 -57 -148 -54 -510 l3 -335 120 -3 c66 -1 130 0 143 3 l22 5 0 331 c0 309 1 332 20 367 47 88 81 107 190 107 82 0 88 -2 127 -32 77 -62 78 -65 80 -437 2 -254 5 -331 15 -338 17 -10 239 -10 257 1 11 7 13 65 12 308 -1 165 -6 335 -10 379 -20 195 -159 339 -368 379 -90 17 -142 17 -235 1z"/> <path d="M6121 4564 c-137 -30 -261 -119 -297 -214 -59 -157 0 -294 161 -370 46 -22 73 -29 245 -65 36 -7 81 -18 101 -24 126 -38 116 -159 -13 -174 -71 -9 -210 1 -278 20 -104 28 -165 47 -174 55 -21 17 -56 8 -60 -14 -7 -36 -14 -192 -9 -205 9 -25 127 -69 232 -86 89 -15 324 -13 390 2 135 31 252 122 284 220 50 156 -17 307 -163 367 -8 3 -24 10 -35 15 -40 18 -111 38 -155 45 -80 12 -190 42 -216 58 -19 13 -24 25 -24 56 0 35 5 43 33 60 63 39 272 21 401 -34 50 -21 73 -20 79 2 9 31 26 116 31 159 6 40 4 44 -31 68 -21 14 -44 25 -51 25 -7 0 -34 6 -60 14 -129 38 -272 45 -391 20z"/> <path d="M2417 4559 c-123 -18 -246 -104 -300 -209 -51 -98 -57 -151 -57 -515 0 -294 2 -334 16 -339 24 -9 247 -7 263 3 11 7 13 33 9 129 -3 66 -1 127 4 136 7 12 24 16 67 16 81 0 263 19 276 29 5 5 24 12 40 15 45 10 136 76 167 121 52 77 71 145 66 243 -4 72 -10 97 -35 147 -50 97 -129 166 -236 204 -62 23 -199 33 -280 20z m178 -248 c65 -30 88 -62 93 -129 8 -115 -60 -161 -240 -162 l-98 0 0 64 c0 134 32 205 105 231 54 19 92 18 140 -4z"/> <path d="M6864 4550 c-10 -10 -9 -1035 2 -1051 8 -13 261 -11 269 2 4 6 8 97 8 202 l2 192 215 0 215 0 3 -195 c2 -140 6 -196 15 -202 15 -10 249 -10 262 0 15 10 16 1045 1 1054 -13 9 -238 11 -260 2 -14 -5 -16 -33 -16 -209 0 -125 -4 -205 -10 -207 -5 -1 -105 -2 -221 0 l-211 3 3 197 c2 108 0 203 -4 210 -10 15 -258 17 -273 2z"/> </g> </svg> 