<?xml version="1.0" standalone="no"?>
<!DOCTYPE svg PUBLIC "-//W3C//DTD SVG 20010904//EN"
 "http://www.w3.org/TR/2001/REC-SVG-20010904/DTD/svg10.dtd">
<svg version="1.0" xmlns="http://www.w3.org/2000/svg"
 width="900.000000pt" height="450.000000pt" viewBox="0 0 900.000000 450.000000"
 preserveAspectRatio="xMidYMid meet">
<metadata>
Created by potrace 1.10, written by Peter Selinger 2001-2011
</metadata>
<g transform="translate(0.000000,450.000000) scale(0.100000,-0.100000)"
fill="#000000" stroke="none">
<path d="M3965 3929 c-49 -4 -106 -12 -125 -19 -202 -72 -333 -197 -389 -370
-37 -113 -41 -169 -41 -587 0 -365 2 -412 16 -417 9 -3 87 -6 174 -6 128 0
160 3 170 15 9 11 12 55 9 168 l-4 152 280 0 280 0 5 -165 5 -165 155 -3 c85
-1 165 0 178 3 l23 6 -4 437 c-4 409 -10 520 -34 568 -6 10 -19 37 -29 59 -10
22 -28 54 -39 70 -28 43 -141 154 -167 165 -13 6 -30 14 -38 19 -19 11 -74 35
-120 51 -48 17 -196 26 -305 19z m231 -337 c47 -24 84 -65 117 -126 18 -36 21
-58 22 -171 l0 -130 -277 -3 c-260 -2 -278 -1 -279 15 -6 183 8 274 51 341 18
28 106 88 140 95 56 12 185 0 226 -21z"/>
<path d="M7585 3930 c-91 -6 -130 -17 -233 -68 -88 -44 -205 -152 -232 -215
-6 -12 -14 -29 -18 -37 -33 -58 -41 -86 -62 -205 -14 -82 -12 -849 2 -863 14
-14 324 -17 345 -4 9 6 13 55 15 167 l3 160 280 0 280 0 -4 -153 c-2 -110 0
-157 9 -167 18 -22 322 -22 340 0 9 11 11 117 7 467 -5 489 -3 476 -63 598
-49 101 -166 219 -254 255 -8 4 -27 13 -42 21 -14 8 -35 14 -46 14 -12 0 -23
4 -27 9 -11 18 -172 29 -300 21z m231 -338 c50 -26 111 -93 119 -133 4 -16 11
-31 16 -34 5 -4 9 -64 9 -136 l0 -129 -277 2 -278 3 0 130 c0 113 3 136 22
175 25 53 51 82 102 114 51 33 64 35 161 32 64 -2 95 -8 126 -24z"/>
<path d="M1041 3915 c-18 -8 -42 -15 -52 -15 -26 0 -144 -57 -204 -98 -69 -48
-156 -139 -199 -210 -20 -33 -36 -64 -36 -70 0 -6 -6 -23 -14 -39 -38 -74 -48
-141 -44 -288 2 -97 7 -148 16 -157 6 -6 12 -21 12 -32 0 -55 117 -239 196
-308 65 -57 202 -138 235 -138 8 0 20 -5 25 -10 33 -33 328 -51 415 -26 29 9
54 14 57 12 2 -3 5 -78 6 -168 l1 -163 167 -3 c167 -2 168 -2 173 20 3 13 4
212 3 443 l-3 420 -170 0 -170 0 -3 -107 c-2 -69 -7 -109 -15 -115 -38 -29
-115 -46 -207 -46 -88 1 -101 3 -164 34 -75 37 -142 102 -174 172 -11 23 -28
78 -37 123 -16 76 -16 86 -1 155 41 186 134 283 310 325 73 17 79 17 154 0 87
-21 149 -51 206 -101 21 -19 40 -35 43 -35 17 0 223 189 223 204 0 40 -254
206 -314 206 -7 0 -30 7 -49 15 -51 21 -337 21 -386 0z"/>
<path d="M5282 3909 c-161 -58 -285 -192 -334 -359 -34 -114 -38 -177 -38
-592 0 -370 2 -417 16 -422 9 -3 87 -6 174 -6 126 0 160 3 170 15 9 11 11 118
8 442 -3 402 -2 430 16 468 26 56 54 84 104 106 105 46 210 6 268 -101 18 -33
19 -62 19 -470 0 -239 4 -441 8 -447 6 -10 51 -13 167 -13 87 0 165 3 174 6
14 5 16 53 16 433 0 254 4 441 10 462 37 131 177 188 296 119 39 -22 58 -41
75 -77 24 -48 24 -50 29 -493 l5 -445 155 -3 c85 -1 165 0 178 3 l22 5 0 403
c0 396 -9 570 -30 591 -5 5 -10 18 -10 27 0 54 -96 198 -171 257 -116 90 -184
112 -344 112 -120 0 -180 -12 -255 -52 -35 -18 -120 -80 -120 -87 0 -4 -8 -11
-19 -18 -15 -10 -25 -5 -67 34 -27 25 -63 52 -81 59 -17 8 -34 18 -38 24 -3 5
-14 10 -24 10 -10 0 -32 7 -47 15 -45 23 -262 19 -332 -6z"/>
<path d="M2495 3910 c-27 -5 -72 -9 -100 -9 -27 -1 -63 -8 -79 -16 -15 -8 -34
-15 -41 -15 -12 0 -77 -29 -124 -55 -45 -25 -128 -115 -155 -168 -69 -132 -68
-316 4 -443 43 -77 106 -136 191 -176 44 -21 69 -39 69 -50 0 -9 -3 -18 -8
-20 -4 -1 -25 -25 -47 -53 -22 -27 -46 -56 -52 -63 -7 -7 -34 -41 -60 -75 -26
-34 -53 -68 -60 -75 -43 -44 -104 -135 -99 -147 4 -12 38 -15 196 -15 l190 0
23 26 c12 15 27 32 32 38 6 6 49 61 95 121 46 61 89 115 95 121 6 6 28 34 50
63 l40 52 75 -3 75 -3 -4 -192 c-3 -145 0 -197 9 -208 10 -12 41 -15 167 -15
87 0 163 4 174 10 18 10 19 29 19 679 0 634 -1 669 -18 684 -17 15 -52 17
-313 16 -162 -1 -316 -5 -344 -9z m307 -485 l-3 -180 -152 -3 c-180 -3 -247
11 -301 65 -60 60 -58 171 3 232 57 57 109 69 296 67 l160 -1 -3 -180z"/>
<path d="M612 2105 c-62 -7 -118 -17 -125 -24 -6 -6 -20 -11 -32 -11 -12 0
-30 -7 -41 -15 -10 -8 -25 -15 -32 -15 -21 0 -127 -85 -159 -127 -54 -71 -68
-117 -67 -228 1 -112 16 -156 81 -226 40 -43 205 -129 248 -129 9 0 24 -4 34
-9 9 -5 46 -14 82 -20 118 -19 184 -32 199 -40 9 -5 30 -12 47 -15 59 -13 101
-88 78 -142 -16 -38 -30 -49 -88 -69 -80 -27 -301 -11 -477 36 -52 14 -68 19
-132 49 -26 12 -51 19 -56 16 -8 -5 -25 -91 -37 -193 -8 -60 1 -113 18 -113 7
0 23 -6 37 -13 35 -18 126 -48 178 -59 23 -4 63 -12 90 -17 61 -13 387 -13
432 -1 19 5 53 13 75 19 120 30 255 137 301 238 22 47 25 69 25 157 0 87 -3
109 -23 148 -28 55 -61 94 -113 133 -56 43 -171 95 -208 95 -13 0 -27 4 -33
10 -5 5 -39 14 -74 20 -113 18 -195 35 -205 41 -5 4 -25 10 -42 14 -90 19 -99
141 -14 180 30 13 62 15 171 12 74 -2 155 -9 180 -15 81 -21 155 -46 175 -59
25 -17 60 -17 73 0 6 7 14 44 17 82 3 39 11 94 17 122 10 46 9 55 -6 72 -18
20 -85 47 -151 61 -22 4 -56 13 -75 18 -19 6 -79 13 -133 17 -55 3 -104 8
-110 9 -7 2 -63 -2 -125 -9z"/>
<path d="M3290 2111 c-14 -5 -44 -9 -67 -10 -82 -2 -230 -78 -313 -161 -87
-87 -127 -164 -160 -315 -13 -58 -13 -842 0 -866 10 -17 23 -19 164 -19 115 0
156 3 165 13 6 8 12 75 13 168 l3 154 273 3 c254 2 272 1 273 -15 0 -10 0 -78
-1 -150 -1 -78 4 -141 10 -153 10 -19 20 -20 165 -20 142 0 155 2 165 19 13
24 13 808 0 866 -33 150 -73 228 -160 315 -62 62 -127 104 -215 137 -72 27
-271 49 -315 34z m174 -318 c68 -24 135 -91 159 -159 12 -37 17 -83 17 -163
l0 -111 -272 2 -273 3 -3 95 c-3 104 13 176 55 242 57 92 197 131 317 91z"/>
<path d="M6730 2108 c-123 -12 -219 -44 -306 -100 -45 -29 -144 -135 -144
-154 0 -6 -7 -25 -15 -40 -10 -20 -15 -59 -15 -122 0 -141 39 -213 155 -287
61 -39 195 -87 280 -100 166 -27 280 -62 317 -98 57 -58 27 -142 -61 -171 -63
-20 -223 -21 -306 -1 -33 8 -74 15 -91 15 -18 0 -45 7 -60 15 -16 8 -39 15
-51 15 -22 0 -71 18 -126 47 -41 21 -53 5 -60 -80 -4 -39 -9 -93 -13 -119 -10
-74 -2 -91 58 -116 30 -12 60 -22 69 -22 8 0 19 -4 25 -9 5 -5 36 -15 69 -21
33 -7 78 -16 100 -21 53 -11 379 -11 430 1 82 18 111 28 166 53 52 25 68 36
124 86 63 56 97 119 115 213 12 59 11 76 -4 139 -28 117 -93 195 -204 246 -31
14 -69 32 -84 39 -14 8 -36 14 -48 14 -12 0 -31 5 -42 11 -12 7 -47 15 -77 20
-31 5 -87 15 -126 23 -156 32 -185 51 -185 119 0 47 10 64 52 90 37 23 248 24
340 2 92 -23 170 -48 193 -62 28 -19 63 -16 75 6 5 11 10 41 10 68 0 26 8 79
17 116 l18 69 -28 24 c-16 13 -36 24 -46 24 -10 0 -32 7 -47 15 -16 8 -38 15
-49 15 -11 0 -38 6 -60 14 -22 7 -89 17 -149 21 -59 3 -113 8 -120 9 -6 2 -49
-1 -96 -6z"/>
<path d="M4680 2101 c-61 -8 -157 -39 -166 -52 -3 -5 -12 -9 -20 -9 -19 0
-109 -67 -150 -111 -41 -45 -93 -128 -101 -159 -3 -14 -10 -31 -15 -37 -22
-28 -31 -159 -35 -547 -4 -375 -3 -410 13 -427 15 -17 33 -19 164 -19 101 0
151 4 163 12 15 12 17 56 19 433 3 397 4 422 23 460 28 55 52 80 108 110 40
21 61 25 132 25 127 0 197 -38 248 -135 21 -39 21 -53 25 -460 2 -376 5 -421
19 -432 12 -9 62 -13 165 -13 140 0 148 1 159 21 8 16 10 145 7 463 -5 416 -6
444 -26 496 -71 190 -177 296 -361 361 -61 21 -276 33 -371 20z"/>
<path d="M1845 2084 c-191 -60 -299 -165 -376 -364 -18 -46 -26 -928 -9 -960
10 -19 20 -20 163 -20 106 0 157 4 165 12 8 8 12 65 12 190 l0 178 148 1 c248
1 389 42 506 150 137 126 174 363 85 544 -33 67 -129 176 -171 196 -13 5 -43
21 -68 34 -25 13 -54 24 -65 24 -12 1 -27 7 -33 14 -21 20 -294 21 -357 1z
m281 -300 c94 -45 135 -126 114 -228 -12 -61 -49 -98 -125 -127 -40 -15 -77
-19 -182 -19 l-133 0 0 91 c0 104 20 188 57 237 54 72 171 92 269 46z"/>
<path d="M5698 2089 c-17 -9 -18 -52 -18 -660 0 -429 4 -657 10 -670 10 -17
23 -19 165 -19 142 0 155 2 165 19 15 30 14 1313 -2 1329 -15 15 -295 16 -320
1z"/>
<path d="M7593 2090 l-23 -9 0 -655 c0 -582 2 -656 16 -670 21 -22 305 -24
323 -3 7 9 12 99 13 263 l3 249 283 3 282 2 0 -22 c1 -13 0 -123 0 -246 0
-140 3 -229 10 -242 10 -19 21 -20 158 -20 103 0 153 4 165 13 14 11 16 74 20
664 2 358 0 658 -4 665 -11 17 -298 25 -329 8 -20 -11 -21 -17 -20 -268 l1
-257 -286 -3 -287 -2 3 260 c3 224 2 262 -11 270 -19 12 -287 12 -317 0z"/>
</g>
</svg>
