<?xml version="1.0" standalone="no"?>
<!DOCTYPE svg PUBLIC "-//W3C//DTD SVG 20010904//EN"
 "http://www.w3.org/TR/2001/REC-SVG-20010904/DTD/svg10.dtd">
<svg version="1.0" xmlns="http://www.w3.org/2000/svg"
 width="900.000000pt" height="900.000000pt" viewBox="0 0 900.000000 900.000000"
 preserveAspectRatio="xMidYMid meet">
<metadata>
Created by potrace 1.10, written by Peter Selinger 2001-2011
</metadata>
<g transform="translate(0.000000,900.000000) scale(0.100000,-0.100000)"
fill="#ffffff" stroke="none">
<path d="M1847 6098 c-7 -4 -38 -10 -70 -14 -47 -5 -72 -16 -137 -60 -44 -30
-87 -54 -95 -54 -9 0 -25 -16 -36 -35 -12 -19 -24 -35 -28 -35 -7 0 -54 -66
-98 -139 -12 -20 -22 -48 -23 -62 0 -14 -9 -36 -20 -49 -12 -14 -18 -30 -14
-39 9 -22 5 -80 -6 -102 -13 -24 -13 -76 1 -84 6 -4 7 -19 4 -36 -7 -29 10
-93 31 -119 7 -8 16 -28 20 -45 4 -16 31 -61 61 -99 29 -38 53 -73 53 -76 0
-4 17 -19 38 -32 20 -14 49 -36 63 -50 60 -56 189 -105 304 -116 28 -2 56 -9
64 -15 7 -6 32 -11 55 -12 l41 0 3 -52 c3 -47 8 -57 50 -99 26 -25 57 -53 70
-61 12 -9 22 -21 22 -28 0 -6 -21 -33 -47 -59 -46 -47 -56 -62 -95 -138 -10
-21 -27 -42 -38 -48 -11 -6 -20 -21 -20 -35 0 -13 -3 -26 -7 -28 -5 -3 -9 -52
-11 -108 -2 -57 -5 -106 -8 -108 -2 -2 -17 0 -34 5 -29 9 -139 92 -140 106 0
4 15 14 34 23 18 9 52 39 75 67 34 42 41 58 41 94 0 23 5 46 10 49 15 9 12 37
-6 74 -21 43 -52 72 -110 106 -27 16 -51 31 -54 35 -12 18 -407 35 -426 19 -7
-5 -27 -9 -46 -8 -35 3 -174 -58 -198 -86 -7 -8 -18 -15 -26 -15 -7 0 -36 -34
-64 -75 -43 -64 -52 -86 -60 -147 -17 -119 9 -268 47 -268 7 0 18 -11 23 -25
13 -33 88 -105 111 -105 10 0 38 -9 61 -19 24 -11 51 -22 61 -25 9 -3 17 -13
17 -22 0 -13 -6 -15 -32 -10 -87 17 -184 23 -203 14 -44 -22 -94 -89 -101
-135 -9 -64 1 -156 21 -186 22 -34 192 -117 240 -117 20 0 50 -6 68 -13 23
-10 68 -13 157 -10 234 6 261 11 350 68 30 19 69 42 87 50 18 8 36 22 41 31 6
10 16 15 25 11 10 -4 20 0 25 10 8 13 12 10 26 -17 9 -18 16 -39 16 -47 0 -17
25 -42 64 -67 40 -25 174 -31 226 -10 21 9 56 35 79 60 40 44 48 68 53 149 3
37 5 40 52 57 28 9 59 15 71 12 11 -3 36 2 56 10 20 8 39 13 42 10 10 -11 144
40 175 67 18 16 39 29 47 29 8 0 22 11 31 25 9 14 22 25 30 25 7 0 18 9 24 20
6 11 15 20 20 20 25 0 33 -49 31 -187 -3 -200 10 -231 117 -288 54 -29 156
-35 200 -11 15 7 39 19 55 26 15 8 27 21 27 30 0 9 11 32 25 51 14 19 31 53
37 77 15 59 38 72 123 68 39 -2 74 -4 78 -5 10 -1 47 -88 47 -111 0 -10 14
-31 31 -48 17 -17 29 -35 25 -40 -3 -5 8 -18 24 -30 23 -17 47 -22 124 -26
108 -5 133 -1 141 23 3 10 23 29 45 44 34 22 43 24 65 14 13 -7 25 -18 25 -26
0 -7 6 -11 15 -7 8 3 18 0 22 -7 5 -7 24 -21 44 -31 29 -15 50 -18 110 -14 79
5 169 39 169 64 0 7 11 23 24 36 l24 23 5 285 c3 157 9 297 13 313 3 15 19 41
34 57 24 25 35 30 77 30 57 -1 93 -26 113 -80 9 -24 15 -123 19 -323 6 -287 6
-289 29 -308 13 -10 22 -24 20 -31 -6 -18 61 -70 82 -63 9 3 38 1 64 -4 58
-11 108 1 151 35 40 32 44 36 59 59 11 16 17 17 29 7 12 -10 16 -8 21 13 11
44 37 26 60 -41 12 -34 26 -68 32 -75 6 -8 17 -32 24 -54 12 -37 55 -94 73
-95 4 0 16 -9 27 -20 31 -31 65 -35 99 -11 16 12 36 21 45 21 12 0 16 10 16
34 0 26 5 36 20 41 13 4 24 21 31 49 6 23 20 55 32 70 20 25 24 26 57 15 19
-6 43 -16 52 -20 69 -34 508 -61 545 -33 10 7 24 14 32 14 23 0 104 42 148 77
23 18 46 33 52 33 6 0 11 3 11 8 0 4 4 13 9 21 8 12 12 12 24 2 13 -10 16 -8
22 8 10 31 45 27 45 -4 0 -15 11 -36 25 -49 14 -13 25 -31 25 -39 0 -9 11 -19
25 -23 14 -3 29 -13 34 -21 6 -12 30 -15 117 -15 96 0 110 2 124 20 9 11 25
20 36 19 13 -1 19 4 19 18 0 11 11 36 23 55 20 30 23 44 18 95 -6 82 8 155 36
178 19 16 37 18 115 15 58 -2 97 -8 105 -16 9 -9 14 -51 16 -130 3 -97 7 -120
22 -137 10 -11 22 -32 25 -47 4 -16 16 -30 28 -34 12 -3 30 -14 40 -22 14 -12
40 -16 110 -16 108 -1 151 8 143 29 -4 10 1 14 17 12 16 -1 22 3 20 17 -1 11
9 33 23 48 l24 29 0 287 c0 158 2 373 3 477 2 174 0 193 -18 220 -11 17 -25
33 -32 38 -7 4 -9 15 -6 24 5 12 2 15 -10 10 -9 -3 -20 0 -24 7 -11 18 -144
40 -198 32 -24 -4 -49 -14 -55 -21 -7 -8 -21 -15 -31 -15 -11 0 -19 -6 -19
-14 0 -8 -10 -16 -23 -20 -12 -3 -24 -13 -25 -23 -1 -10 -6 -52 -11 -93 -5
-41 -10 -101 -10 -133 -1 -47 -5 -62 -25 -82 -22 -21 -29 -23 -107 -19 -124 7
-129 11 -129 137 0 118 -12 170 -43 192 -19 13 -20 18 -9 35 12 19 9 22 -25
37 -42 17 -237 21 -257 4 -6 -5 -22 -11 -36 -13 -15 -2 -26 -11 -29 -23 -2
-11 -11 -25 -21 -32 -18 -13 -40 -90 -37 -128 1 -11 -5 -21 -15 -23 -12 -2
-18 7 -23 40 -6 34 -18 53 -61 94 -29 28 -68 57 -86 64 -18 6 -42 16 -53 21
-43 19 -208 28 -347 18 -120 -8 -149 -14 -202 -38 -33 -15 -70 -38 -80 -49
-11 -12 -26 -22 -35 -22 -8 0 -30 -14 -48 -32 -32 -31 -33 -31 -48 -12 -9 12
-12 31 -9 51 15 83 -35 233 -73 219 -7 -3 -17 4 -23 14 -6 11 -16 20 -22 20
-6 0 -16 6 -22 14 -8 10 -26 11 -76 5 -107 -13 -130 -20 -130 -38 0 -9 -9 -24
-20 -34 -11 -9 -20 -24 -20 -32 0 -8 -8 -15 -18 -15 -16 0 -18 -10 -16 -107 1
-60 -2 -146 -8 -193 -6 -47 -10 -104 -9 -127 1 -23 -2 -44 -8 -47 -11 -7 -35
20 -27 32 3 5 -1 18 -9 28 -8 10 -15 28 -15 39 0 11 -11 41 -23 68 -27 56
-186 207 -218 207 -11 0 -30 6 -42 14 -12 7 -57 21 -99 31 -140 32 -339 10
-467 -53 -51 -25 -159 -140 -186 -198 -13 -28 -31 -57 -40 -64 -8 -7 -15 -23
-15 -36 0 -13 -4 -24 -10 -24 -5 0 -10 4 -10 9 0 5 -18 31 -39 58 -21 27 -47
66 -57 86 -30 56 -118 142 -176 169 -82 39 -188 67 -258 69 -102 3 -291 -28
-314 -51 -5 -5 -16 -10 -24 -10 -28 0 -164 -128 -187 -176 -8 -18 -21 -34 -29
-37 -7 -3 -16 -19 -19 -36 -9 -43 -23 -39 -47 14 -12 26 -27 49 -35 52 -8 3
-15 13 -15 24 0 18 -40 69 -54 69 -4 0 -33 20 -64 44 -32 25 -77 52 -102 61
-47 18 -146 37 -190 37 -14 0 -45 2 -70 5 -45 5 -45 5 -19 19 28 14 39 50 39
136 0 57 20 81 54 68 12 -4 65 -10 117 -11 131 -4 173 18 293 151 49 55 93
100 97 100 14 0 29 -37 29 -70 0 -45 23 -90 67 -133 32 -30 51 -39 99 -47 32
-6 84 -8 114 -4 51 5 59 10 113 66 44 47 57 68 57 92 1 30 1 30 16 11 8 -11
18 -31 21 -45 10 -41 89 -106 143 -118 54 -13 142 -6 181 14 14 7 43 32 65 56
32 35 43 57 53 105 6 34 17 65 24 71 17 13 146 22 174 11 27 -10 65 -68 58
-87 -8 -22 30 -85 78 -129 39 -36 52 -42 109 -48 81 -9 133 5 184 48 57 49 86
52 135 12 53 -45 127 -69 187 -60 82 11 109 24 145 71 47 60 60 149 48 329 -5
79 -4 170 2 232 9 92 13 105 38 129 21 20 34 25 53 20 50 -12 55 -39 61 -354
3 -160 9 -302 14 -314 13 -34 70 -83 119 -102 49 -19 142 -20 191 -3 24 8 46
30 75 72 l41 60 5 280 c7 330 14 364 76 365 55 0 70 -80 73 -388 1 -134 6
-255 12 -268 50 -134 225 -172 365 -79 29 19 57 35 63 35 6 0 38 -18 70 -40
55 -38 62 -40 134 -40 83 0 120 10 156 43 43 40 81 109 81 148 0 20 6 41 12
47 22 17 95 24 169 17 57 -6 69 -10 69 -25 0 -46 42 -152 71 -178 123 -109
319 -63 373 87 18 51 18 129 3 636 -2 61 -17 107 -37 120 -7 4 -9 18 -6 31 4
13 1 26 -6 31 -7 4 -22 24 -33 44 -44 81 -239 229 -280 213 -8 -4 -27 2 -42
11 -38 25 -211 30 -317 9 -73 -15 -94 -22 -136 -46 -8 -4 -26 -13 -40 -20 -35
-17 -70 -49 -70 -65 0 -7 -11 -18 -25 -25 -29 -13 -65 -63 -100 -140 -31 -68
-52 -89 -61 -62 -3 11 -10 27 -15 36 -5 10 -9 27 -9 38 0 10 -8 24 -18 29 -10
5 -24 22 -32 38 -28 55 -92 122 -153 161 -65 41 -96 52 -162 57 -22 2 -66 6
-97 10 -43 6 -69 4 -100 -8 -24 -8 -58 -19 -77 -22 -19 -4 -54 -18 -79 -31
-54 -29 -74 -29 -127 -4 -22 11 -45 19 -51 20 -6 0 -24 10 -39 21 -24 20 -40
22 -162 23 -118 1 -136 -1 -144 -16 -6 -10 -20 -18 -32 -18 -25 0 -120 -61
-154 -99 -54 -60 -123 -162 -123 -181 0 -11 -4 -20 -10 -20 -5 0 -12 -11 -16
-25 -9 -37 -30 -30 -48 15 -9 22 -20 40 -26 40 -5 0 -14 18 -21 39 -6 21 -21
50 -33 62 -12 13 -25 32 -29 42 -3 9 -11 17 -17 17 -6 0 -36 20 -68 45 -31 25
-61 45 -66 45 -5 0 -28 8 -50 19 -23 10 -54 23 -71 28 -40 13 -299 7 -326 -8
-17 -9 -24 -8 -30 2 -8 11 -11 11 -20 -3 -5 -10 -16 -18 -24 -18 -14 0 -63
-32 -142 -93 -53 -41 -117 -122 -132 -168 -14 -42 -67 -97 -80 -83 -5 5 -13
63 -17 129 -3 66 -12 129 -18 141 -30 57 -129 114 -165 95 -10 -6 -24 -5 -34
1 -11 6 -112 7 -269 4 -227 -5 -255 -7 -278 -24 -14 -11 -37 -23 -50 -27 -49
-14 -116 -59 -174 -117 -33 -32 -62 -58 -66 -58 -8 0 -80 74 -80 83 0 15 -66
67 -100 78 -19 7 -39 18 -43 25 -4 8 -24 14 -43 14 -19 0 -33 4 -30 9 3 5 -11
12 -32 17 -47 10 -290 11 -305 2z m282 -94 c50 -15 73 -25 153 -67 53 -28 118
-82 118 -98 0 -9 -15 -27 -33 -38 -18 -11 -53 -40 -77 -65 -25 -25 -50 -46
-56 -46 -5 0 -31 19 -56 43 -51 47 -98 67 -176 74 -53 5 -140 -17 -173 -44 -8
-7 -19 -13 -22 -13 -10 0 -37 -29 -72 -74 -85 -112 -86 -274 -1 -392 37 -51
87 -87 157 -113 65 -25 90 -26 160 -5 107 32 99 22 99 127 l0 93 121 -2 c147
-3 156 -8 139 -77 -8 -31 -11 -136 -9 -326 2 -155 2 -281 -1 -282 -3 0 -61 -1
-129 -2 l-123 -2 4 133 c5 150 2 157 -58 128 -47 -22 -198 -22 -268 0 -77 25
-177 75 -211 106 -16 15 -33 28 -36 28 -13 0 -88 107 -117 165 -65 132 -63
318 6 465 35 76 133 188 183 210 13 6 44 22 68 35 24 14 54 25 65 26 12 0 37
7 56 14 51 19 220 19 289 -1z m2171 -2 c80 -25 159 -73 205 -124 112 -127 123
-179 126 -628 l3 -295 -132 -1 c-130 -1 -132 -1 -138 22 -3 12 -4 27 -1 31 3
5 7 53 8 107 2 68 -1 100 -9 105 -7 4 -41 4 -75 -2 -34 -5 -130 -6 -214 -2
-83 3 -153 2 -156 -2 -2 -4 -1 -60 3 -123 4 -63 5 -120 3 -126 -3 -8 -47 -11
-136 -10 l-132 1 0 320 c0 350 6 406 57 505 54 107 131 170 268 221 64 24 247
25 320 1z m1047 2 c21 -9 48 -21 61 -27 12 -6 41 -30 65 -54 23 -23 47 -43 53
-43 6 0 23 13 37 30 65 72 161 110 279 110 125 0 210 -36 295 -126 35 -36 63
-71 63 -79 0 -7 6 -26 14 -42 42 -86 45 -117 47 -470 0 -188 -2 -347 -6 -353
-4 -6 -15 -8 -28 -3 -12 4 -69 7 -127 8 l-104 0 -1 345 c0 378 1 368 -63 427
-47 43 -157 42 -205 -3 -60 -56 -62 -68 -63 -432 -1 -184 -6 -337 -10 -342 -5
-5 -29 -4 -54 0 -25 5 -77 7 -115 3 -53 -4 -73 -2 -81 8 -7 9 -8 50 -3 114 11
155 10 455 -1 521 -22 123 -60 159 -166 159 -69 -1 -72 -2 -107 -38 -54 -57
-58 -92 -56 -426 2 -359 2 -333 -11 -341 -6 -4 -36 -3 -66 2 -30 4 -78 4 -109
0 -42 -7 -58 -6 -66 5 -8 9 -10 114 -6 371 4 335 6 361 27 416 33 90 129 216
165 216 7 0 18 7 25 15 7 8 20 15 29 15 9 0 27 7 41 14 37 21 199 20 247 0z
m1719 0 c139 -45 234 -122 283 -228 48 -107 50 -123 51 -471 1 -181 1 -335 1
-341 -1 -8 -42 -11 -133 -10 l-133 1 0 35 c1 19 3 78 5 130 l5 94 -228 1
c-126 0 -231 -3 -233 -7 -2 -3 0 -59 6 -125 12 -141 10 -145 -75 -131 -31 4
-79 4 -109 0 -30 -5 -60 -6 -67 -2 -8 6 -10 100 -6 371 l5 364 36 75 c60 126
136 191 281 241 68 23 243 25 311 3z m-3624 -521 c0 -287 -3 -527 -7 -533 -3
-6 -12 -7 -18 -3 -7 4 -64 8 -127 8 l-115 0 0 45 c1 25 3 97 5 160 l5 115 -65
3 -66 3 -31 -43 c-18 -24 -74 -97 -126 -163 l-94 -120 -54 3 c-30 2 -94 -2
-143 -8 -73 -10 -90 -10 -97 1 -14 22 -12 27 35 77 24 26 63 70 86 97 23 28
63 74 89 104 25 29 50 60 54 67 11 19 0 34 -24 34 -29 0 -100 34 -131 63 -76
70 -113 204 -89 319 7 34 21 78 31 99 23 43 92 107 146 132 22 10 53 26 69 35
25 13 82 17 315 22 157 4 300 6 318 6 l33 -1 1 -522z m-1390 206 c66 -34 148
-59 190 -59 43 0 68 11 111 46 16 13 34 24 40 24 17 0 49 -63 42 -82 -10 -25
14 -138 38 -179 12 -21 19 -41 15 -44 -8 -8 -67 26 -91 53 -14 15 -33 19 -98
20 -91 1 -117 -6 -168 -48 -66 -54 -70 -59 -77 -87 -8 -35 -42 -73 -65 -73
-21 0 -103 26 -137 43 -36 17 -76 112 -75 173 3 115 26 149 143 206 67 33 80
34 132 7z m1508 -101 c0 -31 -3 -39 -11 -31 -7 7 -8 24 -4 42 9 43 15 39 15
-11z m-1005 -265 c58 -36 61 -69 9 -128 -34 -38 -36 -39 -50 -21 -13 18 -22
176 -9 176 2 0 25 -12 50 -27z m3088 -615 c38 -20 46 -41 47 -114 l0 -71 -115
-5 c-64 -3 -118 -8 -121 -11 -7 -7 44 -57 58 -57 6 0 20 7 30 17 17 15 19 15
38 -2 19 -17 20 -31 21 -324 0 -281 7 -427 25 -555 6 -40 4 -50 -10 -58 -21
-12 -12 -28 16 -28 19 0 20 4 14 58 -8 70 -25 902 -19 920 3 6 18 12 34 12
l29 0 0 -72 c0 -40 7 -235 15 -433 8 -198 15 -390 15 -427 l0 -68 -32 -1 -33
-1 30 -7 c50 -10 46 -37 -25 -158 -6 -10 -15 -30 -21 -45 -6 -14 -17 -29 -26
-32 -21 -8 -53 2 -53 18 0 6 -13 27 -30 46 -16 19 -29 39 -30 44 0 5 -6 17
-13 25 -30 35 -37 104 -42 383 -3 156 -10 342 -15 413 -5 72 -9 213 -9 314 0
217 1 218 94 224 33 2 70 4 83 5 13 1 33 -3 45 -10z m-3903 -173 c30 -9 75
-24 99 -33 l43 -16 -7 -40 c-4 -23 -10 -70 -14 -106 -9 -92 -12 -95 -77 -60
-30 17 -62 30 -72 30 -9 0 -35 7 -57 15 -25 9 -80 14 -150 15 -125 0 -162 -14
-184 -68 -12 -27 -11 -34 7 -59 11 -16 31 -34 44 -39 31 -15 157 -44 187 -44
41 0 167 -41 221 -71 8 -5 25 -13 36 -18 27 -12 84 -84 107 -134 28 -62 23
-146 -15 -223 -45 -92 -151 -168 -258 -185 -25 -4 -76 -13 -115 -19 -58 -10
-88 -9 -185 5 -130 18 -216 39 -277 66 l-42 19 4 97 c3 54 5 106 5 116 0 24
13 22 87 -13 34 -16 71 -30 82 -30 10 0 34 -6 52 -14 42 -17 228 -30 298 -20
101 13 145 94 82 153 -30 28 -85 47 -226 76 -223 46 -314 100 -357 211 -36 96
-12 207 62 283 55 57 151 107 240 125 57 11 326 -2 380 -19z m915 5 c6 -5 27
-11 47 -15 21 -4 42 -13 49 -21 6 -8 17 -14 24 -14 20 0 118 -100 137 -140 40
-83 48 -114 48 -196 0 -45 -4 -85 -9 -89 -5 -3 -13 -20 -16 -37 -4 -18 -22
-51 -39 -74 -32 -43 -143 -124 -169 -124 -8 0 -31 -7 -51 -15 -26 -11 -80 -16
-188 -18 l-153 -2 2 -120 c1 -66 5 -130 8 -142 8 -33 -15 -38 -159 -35 l-128
3 7 37 c4 20 8 173 10 339 4 314 9 381 30 423 8 14 16 32 19 40 17 44 83 115
141 152 46 29 132 56 190 61 57 5 188 -4 200 -13z m1161 -25 c82 -40 158 -108
188 -168 9 -18 20 -39 25 -47 34 -58 40 -127 42 -464 l2 -340 -132 1 c-73 1
-134 3 -136 5 -2 2 0 59 6 127 5 68 7 126 4 129 -10 11 -457 7 -462 -4 -2 -6
1 -64 6 -130 5 -65 8 -121 6 -123 -5 -5 -265 -5 -268 0 -1 2 0 166 4 364 6
383 4 361 58 473 29 60 113 138 187 173 94 44 119 48 265 45 123 -3 128 -3
205 -41z m1149 4 c124 -60 175 -115 227 -244 18 -46 21 -81 27 -410 4 -198 6
-362 4 -363 -3 -7 -262 -4 -272 3 -8 4 -8 12 -1 25 6 11 10 136 9 317 0 346
-3 359 -82 426 l-47 41 -93 0 c-87 0 -96 -2 -130 -28 -20 -15 -48 -48 -62 -72
l-26 -44 1 -331 c1 -182 -1 -333 -3 -336 -6 -6 -267 -8 -270 -2 -1 2 1 162 4
354 6 353 13 423 47 457 7 7 12 19 12 28 0 44 136 159 230 193 65 23 91 26
230 22 119 -2 129 -4 195 -36z m1540 16 c33 -10 80 -25 104 -33 l43 -16 -6
-40 c-4 -23 -10 -71 -14 -108 -4 -37 -11 -70 -15 -74 -4 -4 -31 2 -60 15 -97
42 -151 53 -274 58 -104 4 -125 2 -148 -13 -41 -27 -57 -71 -39 -106 8 -15 23
-32 34 -38 28 -15 167 -50 198 -50 32 0 185 -49 222 -71 8 -5 25 -13 36 -18
29 -13 88 -87 108 -135 38 -92 10 -220 -65 -295 -50 -51 -163 -111 -208 -111
-16 0 -42 -5 -58 -11 -35 -14 -204 -13 -263 0 -25 6 -60 11 -79 11 -52 0 -207
54 -214 74 -9 26 6 226 17 226 6 0 38 -14 71 -30 33 -16 69 -30 81 -30 11 0
34 -6 50 -14 34 -16 238 -29 307 -20 97 14 139 96 79 152 -31 29 -112 62 -150
62 -26 0 -127 23 -212 48 -71 22 -164 76 -187 110 -29 43 -53 114 -53 156 0
63 38 151 86 200 38 39 70 58 179 106 34 16 75 18 225 16 104 -2 162 -8 205
-21z m632 -42 c-5 -46 -11 -316 -8 -358 1 -8 367 -12 464 -6 7 1 3 163 -8 344
l-5 77 137 0 138 0 -3 -462 c-2 -257 1 -489 6 -521 5 -35 5 -60 0 -63 -10 -6
-267 -8 -273 -2 -1 1 1 93 6 202 5 110 7 202 5 204 -3 2 -107 4 -233 4 l-228
1 0 -207 c0 -129 -4 -207 -10 -208 -5 -2 -66 -2 -135 0 l-125 3 0 525 0 524
139 0 139 0 -6 -57z m-360 -182 c4 -25 1 -46 -7 -56 -7 -8 -9 -22 -5 -32 4
-10 9 -52 11 -93 4 -75 4 -76 -26 -98 -16 -13 -30 -18 -30 -12 0 18 -110 118
-137 125 -15 3 -38 15 -51 26 l-25 19 51 0 c54 0 82 7 82 21 0 4 20 29 45 55
25 25 45 47 45 49 0 2 5 16 10 31 14 35 30 20 37 -35z m-1447 -156 c0 -13 -4
-27 -10 -30 -6 -4 -10 8 -10 30 0 22 4 34 10 30 6 -3 10 -17 10 -30z m510
-200 c7 -8 19 -15 26 -15 8 0 39 -16 71 -37 31 -20 73 -38 92 -40 19 -2 41 -9
49 -15 11 -10 10 -13 -8 -20 -28 -10 -96 1 -111 18 -7 8 -32 14 -63 15 -77 1
-88 8 -93 62 -4 50 11 63 37 32z m310 -126 c0 -13 -38 -11 -46 2 -9 16 18 30
33 17 7 -6 13 -14 13 -19z m-4766 12 c7 -11 -18 -21 -55 -21 -28 0 -37 9 -22
23 10 10 71 8 77 -2z m3959 -59 c-6 -42 -23 -59 -23 -23 0 23 19 76 25 70 2
-3 1 -23 -2 -47z m-3878 18 c0 -22 -29 -18 -33 3 -3 14 1 18 15 15 10 -2 18
-10 18 -18z m3885 -109 c0 -11 -4 -23 -10 -26 -6 -4 -10 5 -10 19 0 14 5 26
10 26 6 0 10 -9 10 -19z"/>
<path d="M4075 5787 c-106 -31 -151 -106 -156 -263 l-4 -99 230 0 230 0 -4 99
c-5 155 -50 230 -155 260 -62 18 -85 19 -141 3z m134 -121 c14 -8 30 -31 38
-55 13 -37 12 -45 -1 -65 -24 -38 -129 -42 -192 -8 -36 19 -36 69 -1 108 26
30 34 34 81 34 28 -1 62 -7 75 -14z"/>
<path d="M6850 5786 c-118 -39 -157 -106 -162 -281 l-3 -80 224 -3 c125 -1
229 2 234 7 12 12 -11 232 -27 251 -7 8 -16 23 -19 32 -8 22 -73 63 -123 77
-47 13 -78 13 -124 -3z m107 -113 c43 -7 64 -33 70 -86 5 -42 4 -44 -28 -59
-25 -11 -55 -14 -107 -10 -65 4 -75 7 -84 27 -19 41 -1 92 40 120 23 15 45 22
57 19 11 -4 34 -8 52 -11z"/>
<path d="M3000 5780 c-126 -6 -160 -18 -198 -69 -32 -43 -30 -112 4 -156 39
-52 103 -69 253 -70 l125 0 -1 150 0 150 -34 1 c-19 0 -86 -2 -149 -6z m61
-110 c21 -12 25 -50 7 -68 -31 -31 -158 -5 -158 33 0 37 102 60 151 35z"/>
<path d="M5509 4369 c-9 -78 9 -767 20 -785 8 -14 10 79 9 381 -2 274 -7 406
-14 419 -10 17 -12 15 -15 -15z"/>
<path d="M5540 3520 c0 -6 -15 -17 -32 -25 l-33 -14 37 -1 c26 0 40 5 47 19
10 18 6 31 -11 31 -4 0 -8 -5 -8 -10z"/>
<path d="M5524 3429 c-3 -6 -2 -14 3 -18 5 -3 19 -23 32 -43 12 -21 27 -38 32
-38 12 0 69 92 63 102 -8 12 -122 9 -130 -3z"/>
<path d="M2429 4320 c-43 -22 -73 -78 -89 -159 -14 -76 -13 -151 3 -152 6 0
62 0 124 1 153 2 209 30 233 116 11 37 10 53 0 87 -17 52 -32 70 -86 102 -53
31 -131 33 -185 5z m125 -110 c19 -7 26 -17 26 -36 0 -40 -27 -64 -69 -64 -36
0 -81 22 -81 40 0 9 79 70 91 70 4 0 19 -4 33 -10z"/>
<path d="M3490 4322 c-90 -43 -128 -121 -133 -276 l-2 -79 223 1 c130 0 228 4
233 9 7 7 6 49 -1 117 -14 139 -38 182 -127 227 -47 24 -143 24 -193 1z m184
-124 c8 -13 18 -42 22 -65 6 -37 4 -43 -22 -60 -31 -20 -139 -22 -175 -3 -26
14 -25 75 1 118 19 31 21 32 90 32 61 0 71 -3 84 -22z"/>
</g>
</svg>
