<?xml version="1.0" standalone="no"?>
<!DOCTYPE svg PUBLIC "-//W3C//DTD SVG 20010904//EN"
 "http://www.w3.org/TR/2001/REC-SVG-20010904/DTD/svg10.dtd">
<svg version="1.0" xmlns="http://www.w3.org/2000/svg"
 width="300.000000pt" height="150.000000pt" viewBox="0 0 300.000000 150.000000"
 preserveAspectRatio="xMidYMid meet">
<metadata>
Created by potrace 1.10, written by Peter Selinger 2001-2011
</metadata>
<g transform="translate(0.000000,150.000000) scale(0.050000,-0.050000)"
fill="#000000" stroke="none">
<path d="M2630 2619 c-271 -39 -350 -182 -350 -634 l0 -285 120 0 120 0 0 110
0 110 190 0 190 0 0 -110 0 -110 120 0 120 0 0 285 c0 509 -144 688 -510 634z
m212 -257 c47 -48 58 -76 58 -150 l0 -92 -193 0 -192 0 10 104 c18 188 191
263 317 138z"/>
<path d="M5100 2627 c-152 -23 -189 -37 -254 -93 -125 -110 -145 -182 -146
-529 l0 -305 120 0 120 0 0 110 0 110 190 0 190 0 0 -110 0 -110 122 0 123 0
-9 315 c-12 464 -157 658 -456 612z m151 -253 c42 -36 56 -70 64 -150 l10
-104 -192 0 -193 0 0 81 c0 195 174 291 311 173z"/>
<path d="M610 2582 c-486 -223 -276 -942 262 -898 l108 9 0 -106 0 -107 110 0
110 0 0 290 0 290 -110 0 -110 0 0 -70 c0 -200 -352 -114 -399 98 -60 263 197
432 427 281 75 -49 216 71 159 134 -103 115 -391 156 -557 79z"/>
<path d="M1554 2592 c-297 -81 -337 -425 -69 -582 30 -18 21 -36 -74 -150
-136 -163 -137 -160 18 -160 l129 0 112 140 c84 105 124 140 161 140 47 0 49
-5 49 -140 l0 -140 120 0 121 0 -6 455 -5 455 -230 4 c-139 2 -268 -6 -326
-22z m326 -302 l0 -130 -97 0 c-138 0 -221 33 -236 95 -25 101 62 164 228 165
l105 0 0 -130z"/>
<path d="M3468 2582 c-149 -91 -188 -213 -188 -597 l0 -285 120 0 120 0 0 301
c0 326 25 399 140 399 115 0 140 -73 140 -399 l0 -301 120 0 120 0 0 301 c0
324 26 399 137 399 114 0 133 -52 139 -388 l7 -312 121 0 121 0 -9 325 c-9
364 -34 448 -160 538 -102 73 -289 77 -404 9 l-90 -52 -74 50 c-94 64 -266 70
-360 12z"/>
<path d="M3824 1516 c-56 -56 -29 -173 41 -182 l65 -8 -66 -3 -67 -3 13 -425
c16 -510 14 -490 78 -593 64 -101 57 -101 123 12 l55 94 -13 539 c-9 345 -22
549 -36 566 -27 34 -161 35 -193 3z m176 -1127 c0 -78 -66 -105 -96 -39 -22
47 -20 50 36 50 33 0 60 -5 60 -11z"/>
<path d="M370 1402 c-174 -45 -257 -133 -257 -274 0 -146 85 -207 377 -272
108 -23 121 -31 126 -81 12 -100 -182 -121 -405 -44 -94 32 -110 18 -111 -95
0 -74 2 -75 112 -107 332 -97 652 20 652 236 0 163 -59 215 -318 281 -154 39
-177 51 -183 92 -12 87 120 109 315 51 125 -37 117 -42 125 71 7 87 5 90 -66
113 -98 33 -293 48 -367 29z"/>
<path d="M2103 1390 c-211 -66 -262 -178 -263 -585 l0 -305 110 0 110 0 0 110
0 110 190 0 190 0 0 -110 0 -110 110 0 110 0 0 301 c0 226 -8 319 -31 375 -83
197 -298 285 -526 214z m234 -199 c66 -33 103 -107 103 -202 l0 -69 -190 0
-190 0 0 57 c0 186 133 289 277 214z"/>
<path d="M3110 1402 c-251 -65 -316 -199 -306 -632 l6 -260 115 -6 115 -6 0
280 c0 348 32 422 180 422 148 0 180 -74 180 -422 l0 -280 115 6 115 6 0 310
c-1 476 -176 671 -520 582z"/>
<path d="M4398 1402 c-166 -34 -258 -134 -258 -278 0 -141 61 -189 318 -253
198 -48 241 -90 162 -155 -57 -47 -226 -40 -382 15 -100 35 -95 39 -110 -76
l-13 -92 106 -31 c410 -122 788 79 651 345 -45 87 -97 116 -303 168 -133 34
-180 55 -185 81 -19 95 117 121 314 63 124 -37 115 -43 132 72 l13 92 -76 22
c-109 32 -285 45 -369 27z"/>
<path d="M1150 1354 c-146 -83 -169 -154 -170 -529 l0 -325 110 0 110 0 0 130
0 130 135 0 c279 1 437 159 386 385 -49 219 -356 331 -571 209z m297 -175
c129 -102 39 -239 -156 -239 -87 0 -91 3 -91 57 0 185 126 277 247 182z"/>
<path d="M5020 949 l0 -451 115 6 115 6 1 170 2 170 188 0 189 0 0 -170 0
-170 115 -6 115 -6 0 452 0 452 -115 -6 -115 -6 6 -175 6 -175 -191 0 -191 0
0 180 0 180 -120 0 -120 0 0 -451z"/>
</g>
</svg>
