<?xml version="1.0" standalone="no"?>
<!DOCTYPE svg PUBLIC "-//W3C//DTD SVG 20010904//EN"
 "http://www.w3.org/TR/2001/REC-SVG-20010904/DTD/svg10.dtd">
<svg version="1.0" xmlns="http://www.w3.org/2000/svg"
 width="179.000000pt" height="191.000000pt" viewBox="0 0 179.000000 191.000000"
 preserveAspectRatio="xMidYMid meet">
<metadata>
Created by potrace 1.10, written by Peter Selinger 2001-2011
</metadata>
<g transform="translate(0.000000,191.000000) scale(0.100000,-0.100000)"
fill="#333333" stroke="none">
<path d="M536 1424 c-3 -9 -6 -28 -6 -44 0 -15 -30 -99 -66 -185 -36 -86 -66
-169 -66 -184 -1 -16 23 -79 52 -142 51 -111 100 -232 100 -248 0 -4 -13 -6
-29 -3 -22 3 -36 -2 -55 -21 -22 -22 -26 -35 -26 -87 0 -33 4 -60 10 -60 6 0
10 28 10 63 0 73 10 87 61 87 l37 0 12 -65 c7 -35 19 -72 27 -82 13 -16 14
-11 10 45 -3 34 -12 73 -20 85 -7 12 -22 47 -32 76 -10 30 -47 118 -82 195
-47 104 -63 148 -59 169 3 15 31 86 62 158 30 72 61 156 67 185 9 46 15 54 33
54 13 0 30 -7 39 -16 14 -14 14 -19 1 -38 -9 -14 -22 -20 -40 -18 -26 3 -36
-13 -13 -21 9 -3 3 -29 -22 -98 -18 -52 -41 -120 -50 -151 -15 -54 -14 -60 2
-91 23 -42 95 -117 112 -117 8 0 26 11 42 24 l28 24 55 -28 55 -27 105 55 c58
30 115 64 126 74 12 10 25 18 30 17 21 -4 26 2 14 16 -10 12 -11 44 -6 130 l7
113 -31 35 c-44 50 -37 77 20 77 25 0 31 -13 36 -68 2 -26 10 -83 18 -127 8
-44 15 -105 15 -136 1 -55 0 -57 -51 -105 -29 -27 -88 -78 -131 -112 -82 -67
-82 -68 -56 -139 5 -13 2 -41 -9 -73 -13 -41 -14 -55 -4 -70 7 -11 12 -26 12
-34 0 -7 7 -19 15 -26 22 -18 32 16 11 39 -16 18 -22 61 -8 61 20 -1 37 -23
47 -62 l10 -43 180 2 180 2 -57 -20 c-32 -12 -58 -24 -58 -28 0 -9 108 -21
190 -21 67 0 210 45 210 66 0 9 -11 14 -29 14 -27 0 -29 3 -40 60 -8 41 -9 66
-2 79 6 10 25 100 42 201 27 154 30 184 18 195 -10 9 -69 15 -200 20 -156 5
-187 4 -198 -8 -6 -8 -18 -55 -27 -103 -8 -49 -26 -151 -40 -226 -15 -76 -24
-145 -20 -153 3 -10 19 -15 46 -15 53 0 248 28 277 40 20 8 24 6 29 -18 3 -15
8 -34 10 -43 5 -17 -8 -18 -431 -32 l-69 -2 -8 39 c-11 51 -26 69 -56 63 -21
-4 -23 -2 -16 17 9 28 9 83 0 121 -7 29 -4 34 76 97 46 36 104 88 131 116 56
60 56 66 27 237 -11 64 -20 129 -20 144 0 60 -50 89 -98 55 -30 -21 -28 -47 8
-81 l30 -28 0 -125 0 -125 -33 -21 c-17 -12 -63 -39 -102 -60 -38 -21 -82 -45
-97 -53 -22 -13 -29 -14 -40 -3 -11 11 -10 12 4 7 34 -13 54 12 76 92 14 53
19 93 15 126 -5 43 -10 50 -48 72 -95 56 -171 11 -199 -117 -7 -33 -21 -36
-36 -9 -14 26 -3 51 23 51 15 0 18 3 10 11 -17 17 -53 -7 -53 -35 0 -13 9 -34
20 -47 20 -24 20 -24 35 -5 13 17 15 17 15 3 0 -9 7 -37 16 -63 14 -42 14 -47
-2 -65 -25 -27 -46 -24 -80 14 -62 65 -74 87 -67 120 13 69 94 270 118 295 34
34 33 68 -5 87 -37 19 -66 19 -74 -1z m214 -244 c-25 -3 -56 -12 -70 -20 -23
-12 -24 -12 -11 3 17 21 68 35 101 28 20 -4 16 -7 -20 -11z m65 -26 c31 -20
31 -35 1 -63 -29 -27 -136 -71 -117 -47 17 21 5 36 -27 35 -24 -2 -24 -2 -4
-6 25 -5 28 -13 10 -31 -42 -42 78 -16 135 29 l37 30 0 -28 c-1 -15 -9 -57
-19 -93 -20 -74 -35 -83 -88 -55 -29 16 -59 66 -46 79 3 3 -4 4 -15 3 -19 -1
-19 -3 -4 -27 9 -14 27 -38 41 -54 l26 -28 -33 16 c-33 17 -52 50 -57 96 -1
14 -5 41 -9 60 -9 44 6 66 59 85 53 19 80 18 110 -1z m658 -121 c100 -6 107
-7 107 -27 0 -35 -53 -340 -60 -349 -4 -4 -10 23 -14 62 -7 83 -13 101 -33
101 -12 0 -13 -7 -8 -27 4 -16 20 -89 35 -163 18 -83 35 -139 44 -146 13 -9 3
-15 -57 -31 -60 -17 -87 -20 -162 -14 l-90 7 45 13 c25 7 50 17 55 21 6 5 40
10 75 12 l65 3 -2 35 c-4 100 -22 243 -32 253 -22 22 -24 -5 -9 -86 9 -45 13
-85 10 -88 -4 -4 -61 -14 -127 -23 -66 -9 -137 -19 -157 -22 -35 -5 -38 -4
-38 18 0 21 67 416 76 446 4 14 106 16 277 5z"/>
</g>
</svg>
