<?xml version="1.0" standalone="no"?>
<!DOCTYPE svg PUBLIC "-//W3C//DTD SVG 20010904//EN"
 "http://www.w3.org/TR/2001/REC-SVG-20010904/DTD/svg10.dtd">
<svg version="1.0" xmlns="http://www.w3.org/2000/svg"
 width="300.000000pt" height="210.000000pt" viewBox="0 0 300.000000 210.000000"
 preserveAspectRatio="xMidYMid meet">
<metadata>
Created by potrace 1.10, written by Peter Selinger 2001-2011
</metadata>
<g transform="translate(0.000000,210.000000) scale(0.100000,-0.100000)"
fill="#333333" stroke="none">
<path d="M2152 1750 c-33 -14 -102 -63 -138 -99 l-31 -30 2 -133 c2 -115 5
-138 23 -173 12 -22 22 -48 22 -59 0 -10 18 -36 40 -56 22 -20 40 -46 40 -57
0 -12 -25 -46 -58 -79 -32 -33 -64 -68 -70 -79 -7 -14 -14 -17 -21 -10 -7 7
-7 29 0 70 11 57 10 64 -21 143 -29 77 -51 105 -67 88 -4 -3 -1 -28 6 -55 11
-42 10 -53 -8 -100 -12 -28 -21 -68 -21 -88 0 -42 30 -109 66 -148 21 -23 23
-31 15 -63 -5 -20 -13 -63 -16 -94 -5 -36 -11 -55 -18 -51 -5 3 -68 18 -139
34 -72 15 -133 31 -138 36 -4 4 -30 87 -59 183 -29 96 -56 179 -61 184 -9 9
-448 -10 -476 -21 -13 -5 -15 -15 -10 -57 6 -50 77 -346 90 -377 6 -13 -7 -18
-74 -28 -45 -7 -88 -15 -95 -18 -11 -4 -13 3 -8 32 5 28 1 41 -17 60 -17 18
-20 30 -15 55 9 41 -8 60 -56 60 -44 0 -62 -21 -48 -57 10 -27 -10 -82 -28
-76 -15 5 -27 -37 -21 -76 l4 -29 -135 -27 c-75 -15 -218 -50 -318 -76 -114
-31 -204 -49 -238 -49 -35 0 -55 -4 -55 -11 0 -20 136 -2 270 36 136 38 427
105 459 105 13 0 21 -8 23 -22 3 -21 9 -23 66 -26 77 -4 112 14 112 57 0 27 2
28 91 44 59 11 97 13 108 7 36 -19 305 -81 344 -79 23 1 76 -7 117 -19 57 -16
79 -27 94 -49 11 -15 34 -42 52 -60 17 -18 29 -35 25 -38 -3 -4 3 -13 13 -21
16 -11 74 -14 299 -14 l279 0 45 40 c45 40 218 115 292 127 l34 6 -7 -54 c-3
-30 -7 -65 -9 -79 l-2 -25 132 -9 c76 -5 139 -5 150 0 12 6 -31 11 -122 14
-157 6 -144 -3 -130 90 5 33 3 50 -8 64 -13 18 -18 19 -53 7 -22 -7 -45 -15
-53 -18 -7 -3 -3 5 9 17 22 22 22 26 17 194 -6 216 -25 295 -98 408 -62 98
-75 133 -99 280 -23 139 -36 190 -60 238 -23 43 -77 99 -108 111 -30 11 -100
11 -130 -1z m157 -38 c68 -55 88 -106 122 -303 27 -159 39 -194 104 -297 61
-95 79 -159 95 -325 9 -92 7 -182 -6 -244 -3 -18 -22 -28 -99 -53 -117 -37
-137 -37 -175 -2 -36 32 -50 97 -50 237 0 50 -5 106 -10 125 -6 19 -17 64 -24
100 -8 36 -41 122 -74 190 -34 69 -74 173 -91 231 -34 121 -75 219 -90 219
-34 0 13 59 88 110 82 57 150 60 210 12z m-268 -312 c12 -96 29 -140 93 -243
102 -165 141 -279 116 -342 l-12 -30 -12 47 c-7 26 -25 63 -40 82 -45 59 -134
93 -175 67 -22 -14 -5 -28 40 -34 48 -6 83 -37 137 -117 l36 -54 -17 -98 c-9
-54 -34 -144 -55 -201 l-39 -102 -144 -3 c-176 -3 -193 3 -159 61 24 41 35 44
68 21 21 -14 23 -14 32 10 5 14 12 81 15 148 6 119 36 302 57 343 6 11 39 49
73 85 35 36 64 72 65 80 5 36 -2 54 -35 87 -19 19 -35 40 -35 46 0 7 -10 32
-22 57 -18 37 -22 65 -23 149 -1 99 -1 102 12 65 8 -22 19 -77 24 -124z m48
-43 c17 -60 57 -160 91 -227 67 -134 80 -173 21 -65 -20 39 -56 101 -79 139
-22 37 -45 89 -51 115 -12 56 -24 157 -18 151 3 -3 19 -53 36 -113z m-164
-172 c23 -60 25 -79 20 -136 -5 -44 -3 -73 5 -85 9 -15 8 -27 -3 -53 l-14 -33
-31 53 c-43 77 -47 106 -21 170 16 42 20 66 15 108 -4 30 -5 53 -2 50 2 -2 16
-35 31 -74z m-392 -215 c21 -69 46 -151 56 -183 18 -57 18 -57 -3 -62 -12 -3
-111 -21 -221 -39 -199 -34 -225 -34 -225 -1 0 12 87 31 295 64 109 18 110 18
133 -2 12 -11 22 -16 22 -10 0 6 -7 16 -15 23 -9 7 -14 18 -11 25 2 6 -7 49
-20 96 -14 46 -31 108 -39 137 l-16 52 -47 0 c-91 0 -367 -23 -378 -32 -9 -6
-2 -46 23 -146 38 -148 54 -242 42 -242 -11 0 -25 47 -64 220 -40 178 -43 209
-17 211 149 11 256 16 342 15 l104 -1 39 -125z m-23 -27 c18 -65 35 -127 38
-137 5 -18 1 -19 -53 -13 -72 7 -87 21 -87 80 0 27 -5 51 -14 58 -8 6 -14 17
-14 24 0 7 -13 27 -29 44 -21 22 -38 31 -61 31 -26 0 -33 -5 -46 -37 -20 -46
-7 -100 37 -155 16 -20 29 -39 29 -42 0 -15 -80 -55 -120 -61 l-45 -7 -34 139
c-19 76 -36 143 -38 149 -5 13 51 19 383 43 19 1 25 -12 54 -116z m-169 48
c16 -16 29 -35 29 -42 0 -6 -9 0 -21 15 -22 28 -60 34 -77 14 -6 -7 -12 -26
-15 -43 -4 -29 -4 -29 -6 5 -1 39 22 80 45 80 9 0 29 -13 45 -29z m787 -43
c18 -11 43 -39 57 -62 34 -57 32 -68 -4 -20 -39 55 -88 94 -116 94 -13 0 -27
5 -31 11 -10 17 54 1 94 -23z m-789 8 c6 -7 18 -36 25 -62 7 -27 16 -56 20
-65 5 -11 1 -19 -11 -23 -37 -15 -114 105 -96 150 7 18 47 18 62 0z m950 -296
c1 -81 6 -115 21 -148 24 -54 67 -75 126 -62 59 14 63 11 19 -12 -22 -11 -55
-34 -73 -52 l-33 -31 -222 -1 c-122 0 -174 1 -115 3 l108 4 19 37 c32 64 82
233 88 301 4 41 13 75 25 90 10 13 19 33 19 45 3 54 18 -81 18 -174z m-1421
141 c7 -4 12 -23 11 -42 -1 -19 0 -41 2 -49 3 -12 -7 -16 -45 -18 -44 -3 -48
-1 -36 12 8 11 10 30 6 55 -5 32 -3 40 11 44 29 7 37 7 51 -2z m498 -11 c13 0
26 5 29 10 5 8 11 7 21 -1 8 -6 29 -15 47 -18 27 -6 19 -9 -53 -20 -47 -7 -98
-15 -115 -18 l-30 -6 28 22 c15 12 27 30 27 39 0 12 3 13 12 4 7 -7 22 -12 34
-12z m272 -98 c7 -5 -51 -22 -147 -41 -123 -26 -172 -32 -213 -27 -68 9 -98
25 -48 27 19 0 91 11 160 23 132 24 227 31 248 18z m136 -14 c45 -8 55 -13 40
-19 -10 -4 -30 -8 -44 -8 -14 -1 -36 -7 -50 -14 -21 -11 -31 -11 -55 -1 -17 7
-41 14 -55 15 -18 1 -13 4 20 13 27 8 44 18 42 26 -2 9 4 11 20 6 13 -3 50
-11 82 -18z m-866 -53 c-6 -28 -15 -56 -20 -62 -15 -18 -65 -16 -99 4 -25 15
-29 23 -29 60 l0 43 53 -6 c28 -3 63 -1 77 4 14 5 26 9 27 8 1 -1 -3 -24 -9
-51z m999 -61 c-3 -48 -8 -89 -11 -91 -9 -9 -52 21 -112 78 l-62 59 37 6 c20
3 59 12 86 19 28 7 54 13 59 14 5 0 6 -36 3 -85z m-670 55 c85 -21 90 -21 163
-4 41 9 84 19 95 22 17 5 16 2 -5 -15 -22 -18 -23 -23 -12 -41 11 -20 10 -21
-23 -21 -42 0 -296 58 -309 71 -14 12 -9 12 91 -12z m443 -4 c16 -8 55 -40 87
-70 51 -49 56 -56 40 -65 -9 -6 -24 -24 -32 -41 -18 -34 -25 -32 -55 14 l-22
32 31 -35 c17 -19 31 -29 31 -22 0 7 -22 35 -49 62 -37 37 -63 53 -106 65 -31
9 -65 15 -75 12 -11 -3 -24 1 -31 9 -43 52 98 82 181 39z m-769 -64 c-22 -41
-142 -38 -150 4 -3 19 -2 19 16 3 28 -26 109 -25 125 2 16 25 23 18 9 -9z
m699 -11 c11 -7 5 -8 -20 -4 -43 8 -51 14 -19 14 13 0 31 -5 39 -10z m990 -44
c0 -6 -93 -37 -97 -32 -2 2 15 11 39 19 47 17 58 19 58 13z"/>
</g>
</svg>
